<?xml version="1.0" encoding="utf-8"?>
<!-- Generator: Adobe Illustrator 16.0.0, SVG Export Plug-In . SVG Version: 6.00 Build 0)  -->
<!DOCTYPE svg PUBLIC "-//W3C//DTD SVG 1.1//EN" "http://www.w3.org/Graphics/SVG/1.1/DTD/svg11.dtd">
<svg version="1.1" id="Layer_1" xmlns="http://www.w3.org/2000/svg" xmlns:xlink="http://www.w3.org/1999/xlink" x="0px" y="0px"
	 width="3174.152px" height="154.083px" viewBox="0 0 3174.152 154.083" enable-background="new 0 0 3174.152 154.083"
	 xml:space="preserve">
<polygon fill="#FFF100" points="2392.702,22.553 2339.38,86.461 2375.906,85.406 2429.229,21.496 "/>
<polygon fill="#FFF100" points="2468.965,20.347 2415.643,84.255 2452.169,83.2 2505.49,19.291 "/>
<polygon fill="#FFF100" points="2316.439,24.759 2284.185,63.418 2284.896,88.038 2299.644,87.612 2352.965,23.703 "/>
<polygon fill="#FFF100" points="2926.542,7.11 2873.219,71.019 2909.745,69.962 2963.066,6.053 "/>
<polygon fill="#FFF100" points="2850.279,9.316 2796.956,73.225 2833.482,72.168 2886.805,8.259 "/>
<polygon fill="#FFF100" points="3002.805,4.904 2949.481,68.813 2986.008,67.756 3039.33,3.848 "/>
<polygon fill="#FFF100" points="2697.754,13.729 2644.431,77.637 2680.957,76.58 2734.279,12.672 "/>
<polygon fill="#FFF100" points="2774.017,11.523 2720.693,75.431 2757.22,74.374 2810.541,10.466 "/>
<polygon fill="#FFF100" points="2621.491,15.935 2568.168,79.843 2604.694,78.788 2658.016,14.878 "/>
<polygon fill="#FFF100" points="2545.229,18.141 2491.905,82.049 2528.432,80.994 2581.754,17.084 "/>
<polygon fill="#FFF100" points="3079.067,2.698 3025.745,66.606 3062.271,65.55 3115.592,1.641 "/>
<polygon fill="#FFF100" points="3172.35,0 3155.33,0.492 3102.008,64.4 3138.532,63.344 3172.986,22.05 "/>
<polygon points="2283.094,25.724 2284.185,63.418 2316.439,24.759 "/>
<polygon points="2352.966,23.703 2299.644,87.611 2339.38,86.461 2392.701,22.554 "/>
<polygon points="2429.229,21.497 2375.906,85.405 2415.643,84.255 2468.965,20.348 "/>
<polygon points="2505.491,19.291 2452.169,83.199 2491.905,82.049 2545.229,18.142 "/>
<polygon points="2581.754,17.084 2528.432,80.993 2568.168,79.843 2621.49,15.936 "/>
<polygon points="2658.017,14.878 2604.694,78.787 2644.431,77.636 2697.754,13.729 "/>
<polygon points="2734.279,12.672 2680.957,76.581 2720.693,75.431 2774.016,11.523 "/>
<polygon points="2810.542,10.466 2757.22,74.375 2796.956,73.225 2850.279,9.316 "/>
<polygon points="2886.805,8.26 2833.482,72.168 2873.219,71.019 2926.541,7.111 "/>
<polygon points="2963.067,6.054 2909.745,69.962 2949.481,68.813 3002.805,4.905 "/>
<polygon points="3039.33,3.848 2986.008,67.756 3025.745,66.607 3079.066,2.699 "/>
<polygon points="3115.593,1.642 3062.271,65.55 3102.008,64.401 3155.33,0.493 "/>
<polygon points="3138.533,63.344 3174.152,62.313 3172.986,22.05 "/>
<polygon fill="#FFF100" points="1633.685,44.51 1580.361,108.418 1616.889,107.361 1670.211,43.453 "/>
<polygon fill="#FFF100" points="1709.947,42.304 1656.625,106.211 1693.151,105.156 1746.473,41.247 "/>
<polygon fill="#FFF100" points="1557.422,46.716 1525.167,85.375 1525.879,109.995 1540.626,109.568 1593.947,45.66 "/>
<polygon fill="#FFF100" points="2167.523,29.067 2114.201,92.975 2150.728,91.919 2204.049,28.011 "/>
<polygon fill="#FFF100" points="2091.261,31.273 2037.938,95.181 2074.465,94.125 2127.787,30.216 "/>
<polygon fill="#FFF100" points="2243.786,26.861 2190.464,90.769 2226.99,89.712 2280.313,25.804 "/>
<polygon fill="#FFF100" points="1938.735,35.686 1885.413,99.593 1921.938,98.538 1975.262,34.628 "/>
<polygon fill="#FFF100" points="2014.998,33.479 1961.676,97.387 1998.202,96.332 2051.523,32.423 "/>
<polygon fill="#FFF100" points="1862.473,37.892 1809.15,101.799 1845.676,100.744 1898.998,36.834 "/>
<polygon fill="#FFF100" points="1786.21,40.098 1732.888,104.005 1769.414,102.95 1822.736,39.041 "/>
<polygon fill="#FFF100" points="2320.049,24.655 2266.727,88.563 2303.253,87.507 2356.574,23.598 "/>
<polygon fill="#FFF100" points="2413.331,21.957 2396.311,22.449 2342.989,86.357 2379.516,85.3 2413.97,44.007 "/>
<polygon points="1524.076,47.681 1525.166,85.375 1557.422,46.717 "/>
<polygon points="1593.947,45.66 1540.625,109.568 1580.361,108.417 1633.685,44.511 "/>
<polygon points="1670.21,43.454 1616.889,107.362 1656.625,106.211 1709.947,42.304 "/>
<polygon points="1746.473,41.247 1693.151,105.155 1732.888,104.006 1786.21,40.098 "/>
<polygon points="1822.736,39.041 1769.413,102.949 1809.15,101.8 1862.473,37.892 "/>
<polygon points="1898.999,36.835 1845.676,100.743 1885.413,99.594 1938.734,35.686 "/>
<polygon points="1975.262,34.629 1921.938,98.537 1961.676,97.388 2014.998,33.48 "/>
<polygon points="2051.524,32.423 1998.202,96.331 2037.938,95.182 2091.26,31.274 "/>
<polygon points="2127.787,30.217 2074.465,94.125 2114.201,92.975 2167.523,29.068 "/>
<polygon points="2204.05,28.011 2150.728,91.918 2190.464,90.769 2243.785,26.862 "/>
<polygon points="2280.313,25.805 2226.99,89.712 2266.727,88.563 2320.049,24.655 "/>
<polygon points="2356.575,23.598 2303.253,87.506 2342.989,86.357 2396.311,22.449 "/>
<polygon points="2413.97,44.006 2379.516,85.3 2415.134,84.27 "/>
<polygon fill="#FFF100" points="868.626,66.642 815.304,130.549 851.831,129.494 905.152,65.584 "/>
<polygon fill="#FFF100" points="944.889,64.436 891.567,128.343 928.093,127.287 981.415,63.378 "/>
<polygon fill="#FFF100" points="792.364,68.848 760.109,107.506 760.821,132.125 775.568,131.7 828.89,67.791 "/>
<polygon fill="#FFF100" points="1402.466,51.199 1349.143,115.107 1385.668,114.051 1438.992,50.142 "/>
<polygon fill="#FFF100" points="1326.203,53.405 1272.88,117.313 1309.406,116.257 1362.729,52.348 "/>
<polygon fill="#FFF100" points="1478.729,48.993 1425.405,112.901 1461.931,111.845 1515.254,47.936 "/>
<polygon fill="#FFF100" points="1173.678,57.817 1120.354,121.725 1156.88,120.669 1210.204,56.76 "/>
<polygon fill="#FFF100" points="1249.94,55.611 1196.617,119.519 1233.143,118.463 1286.466,54.554 "/>
<polygon fill="#FFF100" points="1097.415,60.023 1044.092,123.931 1080.618,122.875 1133.941,58.966 "/>
<polygon fill="#FFF100" points="1021.152,62.229 967.83,126.137 1004.356,125.081 1057.678,61.173 "/>
<polygon fill="#FFF100" points="1554.991,46.787 1501.668,110.695 1538.195,109.638 1591.518,45.729 "/>
<polygon fill="#FFF100" points="1648.273,44.088 1631.253,44.581 1577.931,108.488 1614.457,107.432 1648.911,66.138 "/>
<polygon points="759.018,69.812 760.108,107.506 792.364,68.848 "/>
<polygon points="828.89,67.791 775.567,131.699 815.305,130.55 868.626,66.642 "/>
<polygon points="905.152,65.585 851.83,129.493 891.567,128.343 944.889,64.436 "/>
<polygon points="981.415,63.379 928.093,127.287 967.83,126.137 1021.152,62.23 "/>
<polygon points="1057.678,61.173 1004.355,125.081 1044.092,123.931 1097.415,60.023 "/>
<polygon points="1133.941,58.966 1080.618,122.875 1120.354,121.725 1173.678,57.817 "/>
<polygon points="1210.204,56.76 1156.88,120.668 1196.617,119.519 1249.94,55.611 "/>
<polygon points="1286.466,54.554 1233.143,118.462 1272.88,117.313 1326.203,53.405 "/>
<polygon points="1362.729,52.348 1309.406,116.256 1349.143,115.107 1402.466,51.199 "/>
<polygon points="1438.992,50.142 1385.668,114.05 1425.405,112.901 1478.729,48.993 "/>
<polygon points="1515.254,47.936 1461.931,111.844 1501.668,110.694 1554.991,46.787 "/>
<polygon points="1591.517,45.73 1538.195,109.638 1577.932,108.488 1631.254,44.581 "/>
<polygon points="1648.911,66.138 1614.457,107.431 1650.076,106.401 "/>
<polygon fill="#FFF100" points="109.608,88.598 56.286,152.506 92.813,151.451 146.134,87.542 "/>
<polygon fill="#FFF100" points="185.872,86.392 132.548,150.3 169.075,149.245 222.397,85.335 "/>
<polygon fill="#FFF100" points="33.346,90.804 1.09,129.464 1.803,154.083 16.549,153.657 69.873,89.748 "/>
<polygon fill="#FFF100" points="643.448,73.155 590.125,137.063 626.652,136.007 679.974,72.099 "/>
<polygon fill="#FFF100" points="567.185,75.361 513.862,139.269 550.389,138.213 603.711,74.304 "/>
<polygon fill="#FFF100" points="719.71,70.949 666.388,134.857 702.915,133.801 756.236,69.892 "/>
<polygon fill="#FFF100" points="414.66,79.774 361.336,143.682 397.863,142.626 451.186,78.717 "/>
<polygon fill="#FFF100" points="490.922,77.568 437.599,141.476 474.125,140.419 527.448,76.511 "/>
<polygon fill="#FFF100" points="338.397,81.98 285.074,145.888 321.6,144.833 374.923,80.923 "/>
<polygon fill="#FFF100" points="262.134,84.186 208.811,148.094 245.337,147.039 298.66,83.129 "/>
<polygon fill="#FFF100" points="795.973,68.743 742.651,132.651 779.177,131.595 832.499,67.687 "/>
<polygon fill="#FFF100" points="889.255,66.045 872.235,66.537 818.913,130.445 855.439,129.389 889.893,88.095 "/>
<polygon points="0,91.769 1.09,129.464 33.346,90.804 "/>
<polygon points="69.873,89.748 16.549,153.656 56.287,152.506 109.608,88.599 "/>
<polygon points="146.135,87.542 92.812,151.45 132.549,150.3 185.872,86.393 "/>
<polygon points="222.397,85.335 169.074,149.244 208.812,148.094 262.134,84.186 "/>
<polygon points="298.66,83.129 245.337,147.038 285.074,145.888 338.397,81.981 "/>
<polygon points="374.923,80.923 321.6,144.832 361.337,143.681 414.66,79.775 "/>
<polygon points="451.186,78.717 397.862,142.625 437.6,141.475 490.922,77.569 "/>
<polygon points="527.448,76.511 474.125,140.419 513.862,139.269 567.185,75.361 "/>
<polygon points="603.711,74.305 550.389,138.212 590.125,137.064 643.448,73.156 "/>
<polygon points="679.974,72.099 626.651,136.006 666.389,134.858 719.71,70.95 "/>
<polygon points="756.236,69.893 702.914,133.8 742.651,132.652 795.973,68.744 "/>
<polygon points="832.499,67.687 779.177,131.594 818.914,130.446 872.236,66.538 "/>
<polygon points="889.894,88.095 855.439,129.389 891.059,128.359 "/>
</svg>
