<?xml version="1.0" encoding="utf-8"?>
<!-- Generator: Adobe Illustrator 16.0.0, SVG Export Plug-In . SVG Version: 6.00 Build 0)  -->
<!DOCTYPE svg PUBLIC "-//W3C//DTD SVG 1.1//EN" "http://www.w3.org/Graphics/SVG/1.1/DTD/svg11.dtd">
<svg version="1.1" id="Layer_1" xmlns="http://www.w3.org/2000/svg" xmlns:xlink="http://www.w3.org/1999/xlink" x="0px" y="0px"
	 width="78.361px" height="61.479px" viewBox="0 0 78.361 61.479" enable-background="new 0 0 78.361 61.479" xml:space="preserve">
<path fill="#ffffff" stroke="#FFFFFF" stroke-miterlimit="10" d="M32.841,0.5h-12.6c-5.46,0-10.116,1.679-13.966,5.039
	C2.424,8.899,0.5,13.871,0.5,20.45v40.528h33.181V27.8H19.401V23.39c0-1.681,0.452-2.905,1.364-3.675
	c0.909-0.768,2.274-1.155,4.096-1.155h7.979V0.5z"/>
<path fill="#ffffff" stroke="#FFFFFF" stroke-miterlimit="10" d="M77.021,0.5h-12.6c-5.46,0-10.116,1.679-13.966,5.039
	c-3.852,3.36-5.775,8.332-5.775,14.911v40.528h33.181V27.8H63.582V23.39c0-1.681,0.452-2.905,1.364-3.675
	c0.909-0.768,2.274-1.155,4.096-1.155h7.979V0.5z"/>
</svg>
