<?xml version="1.0" standalone="no"?>
<!DOCTYPE svg PUBLIC "-//W3C//DTD SVG 1.1//EN" "http://www.w3.org/Graphics/SVG/1.1/DTD/svg11.dtd" >
<svg xmlns="http://www.w3.org/2000/svg" xmlns:xlink="http://www.w3.org/1999/xlink" version="1.1">
<metadata>
Created by FontForge 20170731 at Thu Sep  5 23:11:57 2019
 By Aleksey,,,
Copyright (c) 2019 by Kaspersky, Colophon Foundry (Latin), Contrast Foundry (Cyrillic). All rights reserved.
</metadata>
<defs>
<font id="KasperskySans-Light" horiz-adv-x="0" >
  <font-face 
    font-family="Kaspersky Sans Light"
    font-weight="300"
    font-stretch="normal"
    units-per-em="1000"
    panose-1="2 11 3 3 5 1 1 4 1 3"
    ascent="800"
    descent="-200"
    x-height="482"
    cap-height="700"
    bbox="-359 -232 1135 943"
    underline-thickness="50"
    underline-position="-150"
    unicode-range="U+000D-FB02"
  />
<missing-glyph horiz-adv-x="646" 
d="M60 700h526v-700h-526v700zM329 420l4 10l122 201h-263l121 -201q3 -4 5 -10h11zM282 350l-153 249v-497zM518 599l-154 -249l154 -248v497zM455 69l-122 201l-4 10h-11q-2 -6 -5 -10l-121 -201h263z" />
    <glyph glyph-name="f_f" unicode="ff" horiz-adv-x="731" 
d="M135 414h-108v68h108v99q0 68 37 103.5t102 35.5h102v-66h-82q-45 0 -65.5 -21t-20.5 -66v-85h234v99q0 68 37 103.5t102 35.5h102v-66h-82q-45 0 -65.5 -21t-20.5 -66v-85h167v-68h-167v-414h-73v414h-234v-414h-73v414z" />
    <glyph glyph-name="f_i" unicode="fi" horiz-adv-x="556" 
d="M228.5 633q-20.5 -21 -20.5 -66v-85h296v-482h-73v416h-223v-417h-73v417h-108v66h108v99q0 68 37 103.5t102 35.5h230v-66h-210q-45 0 -65.5 -21z" />
    <glyph glyph-name="f_l" unicode="fl" horiz-adv-x="560" 
d="M504 0h-73v654h-137q-45 0 -65.5 -21t-20.5 -66v-85h139v-66h-139v-417h-73v417h-108v66h108v99q0 68 37 103.5t102 35.5h230v-720z" />
    <glyph glyph-name="uni04570457" unicode="&#x457;&#x457;" horiz-adv-x="365" 
d="M-13 670h76v-83h-76v83zM144 670h76v-83h-76v83zM302 670h76v-83h-76v83zM54 482h73v-482h-73v482zM238 482h73v-482h-73v482z" />
    <glyph glyph-name=".notdef" horiz-adv-x="646" 
d="M60 700h526v-700h-526v700zM329 420l4 10l122 201h-263l121 -201q3 -4 5 -10h11zM282 350l-153 249v-497zM518 599l-154 -249l154 -248v497zM455 69l-122 201l-4 10h-11q-2 -6 -5 -10l-121 -201h263z" />
    <glyph glyph-name=".null" 
 />
    <glyph glyph-name="nonmarkingreturn" unicode="&#xd;" horiz-adv-x="600" 
 />
    <glyph glyph-name="space" unicode=" " horiz-adv-x="220" 
 />
    <glyph glyph-name="exclam" unicode="!" horiz-adv-x="182" 
d="M52 700h78l-9 -486h-60zM50 83h83v-83h-83v83z" />
    <glyph glyph-name="quotedbl" unicode="&#x22;" horiz-adv-x="280" 
d="M40 700h77l-9 -178h-59zM163 700h77l-9 -178h-59z" />
    <glyph glyph-name="numbersign" unicode="#" horiz-adv-x="632" 
d="M484 431l-33 -156h126v-63h-140l-45 -212h-68l45 212h-168l-45 -212h-68l45 212h-103v63h117l33 156h-116v63h130l44 206h68l-44 -206h168l44 206h68l-44 -206h104v-63h-118zM416 431h-168l-33 -156h168z" />
    <glyph glyph-name="dollar" unicode="$" horiz-adv-x="579" 
d="M504.5 98.5q-26.5 -46.5 -74 -75.5t-108.5 -34v-85h-67v86q-97 11 -152.5 71t-60.5 149h72q7 -58 41.5 -98.5t99.5 -50.5v270h-1q-85 8 -139 53t-54 127q0 86 54.5 138.5t139.5 61.5v85h67v-86q85 -9 135 -60.5t59 -139.5h-72q-16 114 -122 129v-243l26 -2
q84 -8 133.5 -51.5t49.5 -139.5q0 -58 -26.5 -104.5zM164.5 439q32.5 -28 90.5 -36v237q-61 -7 -92 -40t-31 -84q0 -49 32.5 -77zM426.5 106.5q33.5 40.5 33.5 94.5q0 113 -125 124l-13 1v-267q71 7 104.5 47.5z" />
    <glyph glyph-name="percent" unicode="%" horiz-adv-x="811" 
d="M122 387q-38 23 -59.5 63t-21.5 88t21.5 88t59.5 63t86 23t86.5 -23t59.5 -63t21 -88t-21 -88t-59.5 -63t-86.5 -23t-86 23zM578 700h80l-430 -700h-80zM277 456q30 29 30 82t-30 82t-69 29t-68.5 -29t-29.5 -82t29.5 -82t68.5 -29t69 29zM516.5 11q-38.5 23 -59.5 63
t-21 88t21 88t59.5 63t86.5 23t86 -23t59 -63t21 -88t-21 -88t-59 -63t-86 -23t-86.5 23zM671 80q30 29 30 82t-30 82.5t-68 29.5q-40 0 -69.5 -29.5t-29.5 -82.5t29.5 -82t69.5 -29q38 0 68 29z" />
    <glyph glyph-name="ampersand" unicode="&#x26;" horiz-adv-x="649" 
d="M85 28.5q-44 40.5 -44 107.5q0 48 18.5 79.5t45.5 58.5l91 92l-30 31q-36 39 -57 74t-21 81q0 41 19 77.5t56.5 59.5t90.5 23q75 0 118 -44.5t43 -109.5q0 -31 -10 -55.5t-23 -40.5t-36 -40l-57 -56l128 -138l128 142h82l-159 -184v-13l160 -173h-88l-121 129l-34 -38
q-44 -51 -84.5 -77t-99.5 -26q-72 0 -116 40.5zM291 460q3 3 18 17.5t24.5 35t9.5 43.5q0 42 -26.5 63.5t-64.5 21.5q-40 0 -66 -23t-26 -65q0 -31 14 -54.5t41 -52.5l30 -32zM273 79.5q29 19.5 66 60.5l33 38l-130 138l-80 -83q-22 -23 -34 -42.5t-12 -48.5
q0 -41 26.5 -61.5t64.5 -20.5q37 0 66 19.5z" />
    <glyph glyph-name="quotesingle" unicode="'" horiz-adv-x="157" 
d="M40 700h77l-9 -178h-59z" />
    <glyph glyph-name="parenleft" unicode="(" horiz-adv-x="297" 
d="M73.5 45q-37.5 105 -37.5 222t37.5 222t113.5 211h78q-75 -104 -115 -207.5t-40 -225.5q0 -121 40 -225.5t115 -207.5h-78q-76 106 -113.5 211z" />
    <glyph glyph-name="parenright" unicode=")" horiz-adv-x="301" 
d="M147 41.5q40 104.5 40 225.5q0 122 -40 225.5t-115 207.5h78q76 -106 113.5 -211t37.5 -222t-37.5 -222t-113.5 -211h-78q75 103 115 207.5z" />
    <glyph glyph-name="asterisk" unicode="*" horiz-adv-x="397" 
d="M175 500l-100 -64l-30 48l107 56l-107 55l30 49l100 -65l-4 121h55l-4 -121l100 65l30 -49l-107 -55l107 -56l-30 -48l-100 64l4 -121h-55z" />
    <glyph glyph-name="plus" unicode="+" horiz-adv-x="496" 
d="M447 267h-166v-166h-66v166h-166v66h166v166h66v-166h166v-66z" />
    <glyph glyph-name="comma" unicode="," horiz-adv-x="183" 
d="M51 -36h14q20 0 20 19v17h-35v83h83v-103q0 -31 -18 -45.5t-45 -14.5h-19v44z" />
    <glyph glyph-name="hyphen" unicode="-" horiz-adv-x="437" 
d="M49 334h340v-68h-340v68z" />
    <glyph glyph-name="period" unicode="." horiz-adv-x="183" 
d="M50 83h83v-83h-83v83z" />
    <glyph glyph-name="slash" unicode="/" horiz-adv-x="455" 
d="M362 700h73l-342 -920h-73z" />
    <glyph glyph-name="zero" unicode="0" horiz-adv-x="612" 
d="M170 30q-59 42 -92.5 124t-33.5 196t33.5 196t92.5 124t136 42t136 -42t92.5 -124t33.5 -196t-33.5 -196t-92.5 -124t-136 -42t-136 42zM441.5 136.5q50.5 75.5 50.5 213.5t-50.5 213.5t-135.5 75.5q-55 0 -97 -33.5t-65.5 -98.5t-23.5 -157t23.5 -157t65.5 -98.5
t97 -33.5q85 0 135.5 75.5z" />
    <glyph glyph-name="one" unicode="1" horiz-adv-x="291" 
d="M157 604h-12l-127 -74v77l153 93h59v-700h-73v604z" />
    <glyph glyph-name="two" unicode="2" horiz-adv-x="498" 
d="M48 53l230 278q56 69 78 108.5t22 82.5q0 50 -30 84t-92 34t-97.5 -37t-38.5 -100h-73q1 46 21 94t67 81.5t121 33.5q65 0 110 -26.5t66.5 -68t21.5 -88.5q0 -44 -17 -84t-41.5 -73.5t-68.5 -86.5l-21 -25l-150 -182v-12h306v-66h-414v53z" />
    <glyph glyph-name="three" unicode="3" horiz-adv-x="548" 
d="M150.5 18.5q-53.5 30.5 -81.5 82t-30 113.5h73q6 -77 54 -117.5t112 -40.5q44 0 80 20.5t56.5 57t20.5 83.5q0 74 -47 115.5t-129 41.5h-68v44l185 214h-312v68h401v-61l-165 -194v-12q60 -1 107.5 -27t74.5 -74.5t27 -113.5q0 -60 -26 -112.5t-78 -85t-127 -32.5
q-74 0 -127.5 30.5z" />
    <glyph glyph-name="four" unicode="4" horiz-adv-x="564" 
d="M352 193h-316v57l316 450h72v-441h110v-66h-110v-193h-72v193zM352 259v318h-12q-8 -14 -21 -34l-198 -284h231z" />
    <glyph glyph-name="five" unicode="5" horiz-adv-x="550" 
d="M157.5 18.5q-51.5 30.5 -79.5 79.5t-31 105h73q7 -69 54 -106t106 -37q42 0 78.5 20.5t58.5 60.5t22 97q0 78 -43 123.5t-109 45.5q-54 0 -91.5 -25.5t-53.5 -61.5h-73l23 380h368v-73h-300l-17 -205h12q26 29 64.5 43t81.5 14q58 0 106 -28t76.5 -82t28.5 -127
q0 -67 -27 -125t-80 -93.5t-126 -35.5q-70 0 -121.5 30.5z" />
    <glyph glyph-name="six" unicode="6" horiz-adv-x="543" 
d="M148 17q-51 29 -78.5 80t-27.5 113q0 51 17 100t53 102l191 288h87l-178 -265v-11q27 15 73 15q64 0 112.5 -29.5t74.5 -79t26 -108.5q0 -60 -25.5 -113.5t-77.5 -87t-126 -33.5q-70 0 -121 29zM383 105q39 45 39 110q0 40 -16.5 75.5t-51 57.5t-84.5 22q-74 0 -113 -46
t-39 -110t39 -109t113 -45t113 45z" />
    <glyph glyph-name="seven" unicode="7" horiz-adv-x="506" 
d="M385 622v12h-343v66h428v-67l-329 -633h-84z" />
    <glyph glyph-name="eight" unicode="8" horiz-adv-x="533" 
d="M142.5 17.5q-50.5 29.5 -75 76.5t-24.5 101q0 58 28.5 108.5t82.5 75.5v11q-41 26 -60 63t-19 79q0 45 21 86t64 67.5t106 26.5t106.5 -26t64.5 -67.5t21 -86.5q0 -42 -19 -79t-60 -63v-11q54 -25 82 -75t28 -109q0 -54 -24.5 -101t-75 -76.5t-123.5 -29.5t-123.5 29.5z
M355 449q31 31 31 79t-31.5 80.5t-88.5 32.5t-88.5 -32.5t-31.5 -80.5t31.5 -79t88.5 -31q58 0 89 31zM375 98q41 38 41 104t-41.5 105.5t-108.5 39.5t-108.5 -39.5t-41.5 -105.5t41.5 -104t108.5 -38q68 0 109 38z" />
    <glyph glyph-name="nine" unicode="9" horiz-adv-x="525" 
d="M380.5 683q51.5 -29 78.5 -80t27 -113q0 -51 -17 -100t-52 -102l-192 -288h-86l177 265v11q-27 -15 -73 -15q-64 0 -112.5 29.5t-74 79t-25.5 108.5q0 60 25.5 113.5t77.5 87t126 33.5q69 0 120.5 -29zM145.5 594.5q-39.5 -45.5 -39.5 -109.5q0 -40 17 -75.5t51.5 -57.5
t84.5 -22q74 0 113 46t39 110t-39 109t-113 45t-113.5 -45.5z" />
    <glyph glyph-name="colon" unicode=":" horiz-adv-x="183" 
d="M50 482h83v-83h-83v83zM50 83h83v-83h-83v83z" />
    <glyph glyph-name="semicolon" unicode=";" horiz-adv-x="183" 
d="M50 482h83v-83h-83v83zM51 -36h14q20 0 20 19v17h-35v83h83v-103q0 -31 -18 -45.5t-45 -14.5h-19v44z" />
    <glyph glyph-name="less" unicode="&#x3c;" horiz-adv-x="427" 
d="M49 267v66l319 189v-79l-241 -137v-12l241 -137v-79z" />
    <glyph glyph-name="equal" unicode="=" horiz-adv-x="440" 
d="M50 434h340v-68h-340v68zM50 234h340v-68h-340v68z" />
    <glyph glyph-name="greater" unicode="&#x3e;" horiz-adv-x="427" 
d="M59 157l241 137v12l-241 137v79l319 -189v-66l-319 -189v79z" />
    <glyph glyph-name="question" unicode="?" horiz-adv-x="431" 
d="M207.5 308q20.5 38 60.5 85q35 40 52.5 70t17.5 70q0 54 -34 80.5t-88 26.5q-60 0 -91 -33.5t-33 -81.5h-74q2 44 24 87t67 71.5t111 28.5q100 0 146 -52.5t46 -125.5q0 -51 -20 -86t-59 -78q-38 -44 -57 -76.5t-21 -78.5h-69q1 55 21.5 93zM178 83h83v-83h-83v83z" />
    <glyph glyph-name="at" unicode="@" horiz-adv-x="788" 
d="M209 47q-81 47 -123 126.5t-42 176.5q0 96 44 179t124.5 133t184.5 50q99 0 178 -41t124 -112t45 -156q0 -57 -21 -105t-60 -76t-91 -28q-36 0 -60 13.5t-37 35.5h-11q-19 -28 -42 -38.5t-49 -10.5q-60 0 -99.5 42.5t-39.5 112.5q0 71 41 113.5t103 42.5q28 0 52.5 -9.5
t40.5 -26.5v29h67v-194q0 -44 45 -44q36 0 63 32t27 99q0 79 -38 136t-101 86.5t-137 29.5q-76 0 -140.5 -36t-103.5 -102.5t-39 -154.5q0 -89 37 -152.5t102.5 -96t149.5 -32.5h226v-69h-226q-113 0 -194 47zM447.5 279q25.5 24 25.5 70t-25.5 70t-61.5 24q-37 0 -62 -24
t-25 -70q0 -47 25 -70.5t62 -23.5q36 0 61.5 24z" />
    <glyph glyph-name="A" unicode="A" horiz-adv-x="684" 
d="M501 185h-318l-64 -185h-78l250 700h102l251 -700h-79zM478 251l-130 372h-12l-130 -372h272z" />
    <glyph glyph-name="B" unicode="B" horiz-adv-x="638" 
d="M60 700h266q97 0 153 -49t56 -137q0 -40 -20 -76.5t-54 -55.5v-12q58 -17 92 -61.5t34 -112.5q0 -94 -57 -145t-157 -51h-313v700zM326 390q63 0 98 34.5t35 87.5t-35 87.5t-98 34.5h-192v-244h192zM375 66q66 0 101 35.5t35 94.5t-35 94.5t-101 35.5h-241v-260h241z" />
    <glyph glyph-name="C" unicode="C" horiz-adv-x="747" 
d="M219.5 31.5q-77.5 43.5 -124 125.5t-46.5 193t46.5 193t124 125.5t167.5 43.5q74 0 140 -27.5t113 -84.5t61 -142h-75q-17 76 -78 128.5t-161 52.5q-79 0 -138.5 -40t-91.5 -106t-32 -143t32 -143t91.5 -106t138.5 -40q99 0 160.5 52t79.5 129h74q-14 -85 -61 -142
t-113 -84.5t-140 -27.5q-90 0 -167.5 43.5z" />
    <glyph glyph-name="D" unicode="D" horiz-adv-x="662" 
d="M538.5 606q79.5 -94 79.5 -256t-79.5 -256t-225.5 -94h-253v700h253q146 0 225.5 -94zM482.5 143q59.5 77 59.5 207t-59.5 207t-169.5 77h-179v-568h179q110 0 169.5 77z" />
    <glyph glyph-name="E" unicode="E" horiz-adv-x="569" 
d="M134 634v-249h365v-67h-365v-252h385v-66h-459v700h459v-66h-385z" />
    <glyph glyph-name="F" unicode="F" horiz-adv-x="567" 
d="M134 634v-274h365v-66h-365v-294h-74v700h459v-66h-385z" />
    <glyph glyph-name="G" unicode="G" horiz-adv-x="744" 
d="M212.5 31.5q-76.5 43.5 -122.5 125t-46 192.5q0 110 46.5 192.5t124.5 126.5t169 44q70 0 133.5 -26.5t109 -81t59.5 -134.5h-76q-9 43 -37 81.5t-75.5 63t-111.5 24.5q-81 0 -141.5 -40t-92.5 -106.5t-32 -143.5t32 -143t91.5 -105.5t139.5 -39.5q100 0 160.5 63.5
t68.5 177.5h-240v66h318v-368h-74v103h-11q-38 -58 -98 -86.5t-129 -28.5q-89 0 -165.5 43.5z" />
    <glyph glyph-name="H" unicode="H" horiz-adv-x="646" 
d="M586 700v-700h-73v317h-379v-317h-74v700h74v-317h379v317h73z" />
    <glyph glyph-name="I" unicode="I" horiz-adv-x="194" 
d="M60 700h74v-700h-74v700z" />
    <glyph glyph-name="J" unicode="J" horiz-adv-x="519" 
d="M137.5 14q-47.5 26 -74 72t-26.5 102h74q0 -28 15 -57.5t46 -49.5t76 -20q68 0 102.5 42.5t34.5 107.5v489h74v-489q0 -103 -57.5 -163t-154.5 -60q-62 0 -109.5 26z" />
    <glyph glyph-name="K" unicode="K" horiz-adv-x="557" 
d="M60 700h74v-318l295 318h98l-305 -324v-11l326 -365h-100l-314 356v-356h-74v700z" />
    <glyph glyph-name="L" unicode="L" horiz-adv-x="567" 
d="M519 66v-66h-459v700h74v-634h385z" />
    <glyph glyph-name="M" unicode="M" horiz-adv-x="805" 
d="M60 700h105l231 -596h13l231 596h105v-700h-73v561h-12q-15 -47 -24 -70l-189 -491h-89l-189 491q-9 23 -24 70h-11v-561h-74v700z" />
    <glyph glyph-name="N" unicode="N" horiz-adv-x="669" 
d="M60 700h95l328 -514q28 -44 41 -70h11v584h74v-700h-95l-324 507q-15 23 -45 76h-11v-583h-74v700z" />
    <glyph glyph-name="O" unicode="O" horiz-adv-x="769" 
d="M215 31q-78 43 -124.5 125t-46.5 194t46.5 194t124.5 125t170 43t169.5 -43t124 -125t46.5 -194t-46.5 -194t-124 -125t-169.5 -43t-170 43zM519.5 95.5q60.5 34.5 95.5 100t35 154.5t-35 154.5t-95.5 100t-134.5 34.5t-134.5 -34.5t-95.5 -100t-35 -154.5t35 -154.5
t95.5 -100t134.5 -34.5t134.5 34.5z" />
    <glyph glyph-name="P" unicode="P" horiz-adv-x="607" 
d="M498.5 644.5q58.5 -55.5 58.5 -148.5t-58.5 -149t-157.5 -56h-207v-291h-74v700h281q99 0 157.5 -55.5zM445.5 396.5q35.5 38.5 35.5 99.5t-35.5 99.5t-108.5 38.5h-203v-276h203q73 0 108.5 38.5z" />
    <glyph glyph-name="Q" unicode="Q" horiz-adv-x="786" 
d="M438 -9q-24 -3 -45 -3q-92 0 -169.5 43t-124 125t-46.5 194t46.5 194t124 125t169.5 43t169.5 -43t124 -125t46.5 -194q0 -124 -56.5 -210.5t-150.5 -124.5v-11l99 -129h-99zM527.5 95.5q60.5 34.5 95.5 100t35 154.5t-35 154.5t-95.5 100t-134.5 34.5t-134.5 -34.5
t-95.5 -100t-35 -154.5t35 -154.5t95.5 -100t134.5 -34.5t134.5 34.5z" />
    <glyph glyph-name="R" unicode="R" horiz-adv-x="592" 
d="M60 700h264q100 0 158 -51.5t58 -143.5q0 -90 -56 -141t-153 -53h-85v-11l287 -300h-96l-292 310h-11v-310h-74v700zM320 376q74 0 109 35t35 94t-35 94t-109 35h-186v-258h186z" />
    <glyph glyph-name="S" unicode="S" horiz-adv-x="625" 
d="M173 16.5q-61 28.5 -94 78.5t-37 115h75q8 -64 58 -107t144 -43q93 0 138 41t45 100q0 112 -137 122l-94 8q-92 6 -150.5 51.5t-58.5 127.5q0 63 33 108.5t89 69.5t124 24q111 0 176 -52.5t76 -149.5h-76q-8 59 -50.5 94.5t-125.5 35.5t-126.5 -34.5t-43.5 -90.5
q0 -52 41.5 -79.5t115.5 -33.5l82 -6q200 -16 200 -191q0 -63 -33.5 -112.5t-92.5 -77t-132 -27.5q-85 0 -146 28.5z" />
    <glyph glyph-name="T" unicode="T" horiz-adv-x="589" 
d="M258 634h-222v66h517v-66h-222v-634h-73v634z" />
    <glyph glyph-name="U" unicode="U" horiz-adv-x="610" 
d="M126.5 52.5q-65.5 64.5 -65.5 177.5l-1 470h74l1 -470q0 -75 44 -124t126 -49t126 49t44 124l1 470h74l-1 -470q0 -113 -65.5 -177.5t-178.5 -64.5t-178.5 64.5z" />
    <glyph glyph-name="V" unicode="V" horiz-adv-x="689" 
d="M41 700h80l208 -591q4 -9 6 -16.5t4 -13.5h11l10 30l209 591h80l-251 -700h-106z" />
    <glyph glyph-name="W" unicode="W" horiz-adv-x="973" 
d="M41 700h80l146 -571l5 -25h11q1 8 2.5 14.5t2.5 10.5l158 571h80l159 -571l5 -25h11q1 8 2.5 14.5t2.5 10.5l146 571h80l-187 -700h-101l-143 516q-6 24 -9 41h-11q-9 -37 -10 -41l-142 -516h-101z" />
    <glyph glyph-name="X" unicode="X" horiz-adv-x="561" 
d="M239 355l-212 345h84l152 -253q9 -17 12 -23h11q3 6 12 23l151 253h85l-212 -345l219 -355h-85l-158 263q-8 12 -12 22h-11q-4 -10 -12 -22l-158 -263h-85z" />
    <glyph glyph-name="Y" unicode="Y" horiz-adv-x="606" 
d="M340 271v-271h-74v271l-247 429h82l182 -318q10 -18 15 -29h11q5 11 15 29l181 318h83z" />
    <glyph glyph-name="Z" unicode="Z" horiz-adv-x="534" 
d="M40 66l370 556v12h-368v66h460v-66l-370 -556v-12h372v-66h-464v66z" />
    <glyph glyph-name="bracketleft" unicode="[" horiz-adv-x="351" 
d="M134 634v-733h185v-67h-259v866h259v-66h-185z" />
    <glyph glyph-name="backslash" unicode="\" horiz-adv-x="455" 
d="M20 700h73l342 -920h-73z" />
    <glyph glyph-name="bracketright" unicode="]" horiz-adv-x="351" 
d="M291 -166h-260v67h186v733h-186v66h260v-866z" />
    <glyph glyph-name="asciicircum" unicode="^" horiz-adv-x="410" 
d="M160 700h90l131 -274h-76l-94 208h-12l-94 -208h-76z" />
    <glyph glyph-name="underscore" unicode="_" horiz-adv-x="591" 
d="M40 -69h511v-66h-511v66z" />
    <glyph glyph-name="grave" unicode="`" horiz-adv-x="265" 
d="M30 705h93l112 -154h-78z" />
    <glyph glyph-name="a" unicode="a" horiz-adv-x="507" 
d="M401.5 453q50.5 -41 50.5 -125v-328h-73v51h-11q-25 -27 -67.5 -45t-88.5 -18q-86 0 -130.5 40.5t-44.5 105.5q0 70 44.5 109.5t126.5 39.5h171v41q0 46 -29.5 73t-90.5 27q-58 0 -90 -24.5t-37 -68.5h-75q8 75 62 119t142 44q90 0 140.5 -41zM379 138v83h-168
q-49 0 -73.5 -21t-24.5 -61q0 -42 29.5 -63t79.5 -21q96 0 157 83z" />
    <glyph glyph-name="b" unicode="b" horiz-adv-x="567" 
d="M212.5 8.5q-44.5 20.5 -72.5 60.5h-11v-69h-73v720h73v-303q30 39 74.5 58t93.5 19q58 0 110.5 -27.5t85.5 -85t33 -141.5q0 -83 -32.5 -140t-83 -84.5t-105.5 -27.5q-48 0 -92.5 20.5zM368 79q37 20 60.5 61t23.5 101t-23.5 101t-60.5 61t-79 20q-43 0 -79.5 -20
t-58.5 -61t-22 -101t22 -101t58.5 -61t79.5 -20q42 0 79 20z" />
    <glyph glyph-name="c" unicode="c" horiz-adv-x="533" 
d="M155 20.5q-54 32.5 -84 90t-30 130.5t30 130.5t84 90t124 32.5q84 0 141 -45t71 -121h-73q-13 43 -48.5 69.5t-90.5 26.5q-73 0 -119 -49t-46 -134q0 -87 47 -135t118 -48q55 0 90.5 26.5t48.5 69.5h73q-14 -76 -71 -121t-141 -45q-70 0 -124 32.5z" />
    <glyph glyph-name="d" unicode="d" horiz-adv-x="567" 
d="M156.5 15.5q-50.5 27.5 -83 84.5t-32.5 140q0 84 33 141.5t85.5 85t110.5 27.5q49 0 93.5 -19t74.5 -58v303h73v-720h-73v69h-12q-27 -40 -71.5 -60.5t-93.5 -20.5q-54 0 -104.5 27.5zM356.5 79q36.5 20 59 61t22.5 101t-22.5 101t-59 61t-78.5 20t-79.5 -20t-61 -61
t-23.5 -101t23.5 -101t61 -61t79.5 -20t78.5 20z" />
    <glyph glyph-name="e" unicode="e" horiz-adv-x="540" 
d="M151.5 20.5q-53.5 32.5 -82 89.5t-28.5 129t28 130t81.5 91.5t125.5 33.5q66 0 116.5 -28.5t78.5 -78t28 -112.5v-56h-384q6 -78 49.5 -119.5t112.5 -41.5q105 0 141 93h74q-19 -75 -74.5 -119t-140.5 -44q-72 0 -125.5 32.5zM426 282q1 60 -38.5 101.5t-111.5 41.5
q-64 0 -107.5 -37.5t-51.5 -105.5h309z" />
    <glyph glyph-name="f" unicode="f" horiz-adv-x="406" 
d="M135 414h-108v68h108v99q0 68 37 103.5t102 35.5h102v-66h-82q-45 0 -65.5 -21t-20.5 -66v-85h167v-68h-167v-414h-73v414z" />
    <glyph glyph-name="g" unicode="g" horiz-adv-x="544" 
d="M65.5 -192.5q-40.5 39.5 -40.5 98.5q0 68 59 109v12q-40 20 -40 65q0 24 10.5 42t29.5 41l13 15q-22 24 -34 55t-12 66q0 50 23 91.5t67.5 66t105.5 24.5q38 0 73 -11h204v-67h-114q34 -42 34 -104q0 -49 -23.5 -90t-68 -65.5t-105.5 -24.5q-52 0 -97 21l-9 -10
q-11 -13 -16.5 -22t-5.5 -18q0 -11 8 -19.5t26 -8.5h172q71 0 115.5 -37.5t44.5 -111.5q0 -69 -46.5 -113t-145.5 -44h-88q-99 0 -139.5 39.5zM333.5 228.5q36.5 28.5 36.5 83.5t-36.5 83.5t-86.5 28.5q-49 0 -85.5 -28.5t-36.5 -83.5t36.5 -83.5t85.5 -28.5q50 0 86.5 28.5
zM301 -163q42 0 76 21.5t34 66.5q0 38 -24 59.5t-70 21.5h-163q-26 -16 -40 -39.5t-14 -48.5q0 -37 27 -59t83 -22h91z" />
    <glyph glyph-name="h" unicode="h" horiz-adv-x="524" 
d="M56 720h73v-300h11q18 32 56.5 53t91.5 21q80 0 130.5 -48t50.5 -138v-308h-73v291q0 65 -36 97.5t-91 32.5q-67 0 -103.5 -43t-36.5 -107v-271h-73v720z" />
    <glyph glyph-name="i" unicode="i" horiz-adv-x="188" 
d="M53 670h83v-83h-83v83zM58 482h73v-482h-73v482z" />
    <glyph glyph-name="j" unicode="j" horiz-adv-x="195" 
d="M59 670h83v-83h-83v83zM-51 -148h29q46 0 66 20.5t20 65.5v544h73v-563q0 -68 -37.5 -103.5t-102.5 -35.5h-48v72z" />
    <glyph glyph-name="k" unicode="k" horiz-adv-x="458" 
d="M349 0l-220 244v-244h-73v720h73v-452l213 214h92l-220 -221v-11l230 -250h-95z" />
    <glyph glyph-name="l" unicode="l" horiz-adv-x="184" 
d="M56 720h73v-720h-73v720z" />
    <glyph glyph-name="m" unicode="m" horiz-adv-x="789" 
d="M57 482h73v-62h11q18 32 53 53t84 21q47 0 81.5 -21.5t50.5 -58.5h11q18 35 58.5 57.5t93.5 22.5q74 0 118 -46.5t44 -128.5v-319h-73v305q0 57 -28.5 86.5t-77.5 29.5q-59 0 -91.5 -40t-32.5 -102v-279h-73v305q0 57 -28.5 86.5t-77.5 29.5q-58 0 -90.5 -40t-32.5 -102
v-279h-73v482z" />
    <glyph glyph-name="n" unicode="n" horiz-adv-x="524" 
d="M57 482h73v-62h11q18 32 56 53t92 21q80 0 130.5 -48t50.5 -138v-308h-73v291q0 65 -36.5 97.5t-91.5 32.5q-67 0 -103 -43t-36 -107v-271h-73v482z" />
    <glyph glyph-name="o" unicode="o" horiz-adv-x="573" 
d="M158 22q-56 34 -86.5 91.5t-30.5 127.5t30.5 127.5t86.5 91.5t129 34t128.5 -34t86 -91.5t30.5 -127.5t-30.5 -127.5t-86 -91.5t-128.5 -34t-129 34zM371 80.5q39 21.5 62.5 62.5t23.5 98t-23.5 98t-62.5 62.5t-84 21.5t-84 -21.5t-63 -62.5t-24 -98t24 -98t63 -62.5
t84 -21.5t84 21.5z" />
    <glyph glyph-name="p" unicode="p" horiz-adv-x="567" 
d="M56 482h73v-69h11q28 40 72.5 60.5t92.5 20.5q55 0 105.5 -27.5t83 -84.5t32.5 -140q0 -84 -33 -141.5t-85.5 -85t-110.5 -27.5q-49 0 -93.5 19t-74.5 58v-285h-73v702zM368 79q37 20 60.5 61t23.5 101t-23.5 101t-60.5 61t-79 20q-43 0 -79.5 -20t-58.5 -61t-22 -101
t22 -101t58.5 -61t79.5 -20q42 0 79 20z" />
    <glyph glyph-name="q" unicode="q" horiz-adv-x="567" 
d="M438 65q-30 -39 -74.5 -58t-93.5 -19q-58 0 -110.5 27.5t-85.5 85t-33 141.5q0 83 32.5 140t83 84.5t104.5 27.5q49 0 93.5 -20.5t71.5 -60.5h12v69h73v-702h-73v285zM356.5 79q36.5 20 59 61t22.5 101t-22.5 101t-59 61t-78.5 20t-79.5 -20t-61 -61t-23.5 -101
t23.5 -101t61 -61t79.5 -20t78.5 20z" />
    <glyph glyph-name="r" unicode="r" horiz-adv-x="345" 
d="M57 482h73v-67h11q37 74 119 74h64v-73h-71q-61 0 -92 -39t-31 -109v-268h-73v482z" />
    <glyph glyph-name="s" unicode="s" horiz-adv-x="470" 
d="M91 31.5q-54 43.5 -59 112.5h75q6 -38 40.5 -62.5t90.5 -24.5q119 0 119 84q0 38 -23.5 52.5t-66.5 18.5l-70 6q-146 12 -146 129q0 67 50 107t131 40t128.5 -36.5t55.5 -104.5h-74q-5 34 -34 53t-75 19q-49 0 -79 -19.5t-30 -56.5q0 -32 24.5 -48t71.5 -19l61 -5
q73 -5 111 -36t38 -99q0 -69 -50.5 -111.5t-142.5 -42.5t-146 43.5z" />
    <glyph glyph-name="t" unicode="t" horiz-adv-x="397" 
d="M152.5 35.5q-37.5 35.5 -37.5 103.5v275h-107v68h107v130h73v-130h161v-68h-161v-259q0 -45 20.5 -66t66.5 -21h72v-68h-92q-65 0 -102.5 35.5z" />
    <glyph glyph-name="u" unicode="u" horiz-adv-x="524" 
d="M105 36.5q-51 48.5 -51 137.5v308h73v-291q0 -65 36.5 -97.5t91.5 -32.5q67 0 103.5 43t36.5 107v271h73v-482h-73v62h-12q-17 -32 -55.5 -53t-92.5 -21q-79 0 -130 48.5z" />
    <glyph glyph-name="v" unicode="v" horiz-adv-x="507" 
d="M18 482h81l137 -368q9 -26 12 -35h11q3 9 12 35l137 368h81l-184 -482h-103z" />
    <glyph glyph-name="w" unicode="w" horiz-adv-x="711" 
d="M20 482h76l95 -354q2 -9 5 -20t6 -25h11l11 45l97 354h70l96 -354q2 -9 5 -20t6 -25h11l11 45l95 354h76l-137 -482h-99l-88 317l-6 21h-11l-6 -21l-88 -317h-99z" />
    <glyph glyph-name="x" unicode="x" horiz-adv-x="459" 
d="M187 241l-166 241h85l105 -155l13 -21h11l13 21l105 155h85l-166 -241l166 -241h-85l-105 155l-13 21h-11l-13 -21l-105 -155h-85z" />
    <glyph glyph-name="y" unicode="y" horiz-adv-x="504" 
d="M213 62l-196 420h83l133 -291l14 -32h11l13 32l135 291h82l-324 -702h-83z" />
    <glyph glyph-name="z" unicode="z" horiz-adv-x="464" 
d="M40 70l273 330v12h-266v70h362v-70l-271 -330v-12h271v-70h-369v70z" />
    <glyph glyph-name="braceleft" unicode="{" horiz-adv-x="429" 
d="M190.5 -127.5q-44.5 38.5 -44.5 110.5v169q0 43 -13 62.5t-56 19.5h-27v66h27q43 0 56 19.5t13 62.5v169q0 73 44.5 111t107.5 38h92v-66h-70q-52 0 -76 -24.5t-24 -83.5v-128q0 -53 -13 -82.5t-52 -42.5v-12q39 -13 52 -42.5t13 -81.5v-129q0 -59 24 -83t76 -24h70v-67
h-92q-63 0 -107.5 38.5z" />
    <glyph glyph-name="bar" unicode="|" horiz-adv-x="194" 
d="M60 800h74v-900h-74v900z" />
    <glyph glyph-name="braceright" unicode="}" horiz-adv-x="429" 
d="M39 -99h69q52 0 76.5 24t24.5 83v129q0 52 13 81.5t51 42.5v12q-38 13 -51 42.5t-13 82.5v128q0 59 -24.5 83.5t-76.5 24.5h-69v66h92q62 0 106.5 -38t44.5 -111v-169q0 -43 13.5 -62.5t55.5 -19.5h28v-66h-28q-42 0 -55.5 -19.5t-13.5 -62.5v-169q0 -73 -44.5 -111
t-106.5 -38h-92v67z" />
    <glyph glyph-name="asciitilde" unicode="~" horiz-adv-x="572" 
d="M49 313q24 28 56.5 44t70.5 16q30 0 57 -10t67 -30q37 -19 59 -27.5t46 -8.5q32 0 60 17.5t59 50.5v-75q-24 -28 -57 -44t-70 -16q-31 0 -59 10.5t-66 30.5q-35 18 -57.5 26.5t-46.5 8.5q-33 0 -61 -17.5t-58 -50.5v75z" />
    <glyph glyph-name="uni00A0" unicode="&#xa0;" horiz-adv-x="220" 
 />
    <glyph glyph-name="exclamdown" unicode="&#xa1;" horiz-adv-x="182" 
d="M133 482v-83h-83v83h83zM63 266h57l8 -486h-74z" />
    <glyph glyph-name="cent" unicode="&#xa2;" horiz-adv-x="533" 
d="M382 199.5q28 26.5 39 63.5h70q-13 -69 -61 -112.5t-120 -51.5v-99h-67v99q-92 13 -147 82t-55 169t55 169t147 82v99h67v-99q72 -8 120 -51.5t61 -112.5h-70q-11 37 -39 63.5t-72 33.5v-368q44 7 72 33.5zM147 226.5q36 -47.5 96 -59.5v366q-61 -11 -96.5 -59.5
t-35.5 -123.5q0 -76 36 -123.5z" />
    <glyph glyph-name="sterling" unicode="&#xa3;" horiz-adv-x="574" 
d="M514 66v-66h-436v75q108 83 108 162q0 31 -19 74h-124v60h95q-18 39 -28 72t-10 71q0 58 25 103t71 70t106 25q63 0 108 -26.5t69 -70.5t27 -96h-72q-17 121 -132 121q-69 0 -98.5 -37t-29.5 -88q0 -34 11 -65.5t34 -78.5h229v-60h-204q12 -36 12 -65q0 -94 -85 -168v-12
h343z" />
    <glyph glyph-name="currency" unicode="&#xa4;" horiz-adv-x="493" 
d="M400 115l-65 65q-38 -24 -88 -24q-51 0 -89 24l-62 -62l-50 49l63 62q-25 41 -25 90q0 51 24 88l-65 65l49 50l65 -65q37 25 90 25q51 0 90 -25l62 63l49 -50l-62 -62q24 -39 24 -89q0 -49 -25 -90l65 -65zM179.5 247q27.5 -27 67.5 -27t67.5 27.5t27.5 71.5t-27.5 71.5
t-67.5 27.5t-67.5 -27t-27.5 -72t27.5 -72z" />
    <glyph glyph-name="yen" unicode="&#xa5;" horiz-adv-x="606" 
d="M375 331h152v-63h-187v-72h187v-64h-187v-132h-74v132h-186v64h186v72h-186v63h151l-212 369h82l182 -318q10 -18 15 -29h11q5 11 15 29l181 318h83z" />
    <glyph glyph-name="brokenbar" unicode="&#xa6;" horiz-adv-x="194" 
d="M60 800h74v-374h-74v374zM60 274h74v-374h-74v374z" />
    <glyph glyph-name="section" unicode="&#xa7;" horiz-adv-x="569" 
d="M121.5 -183.5q-59.5 48.5 -67.5 134.5h73q17 -112 159 -112q73 0 110 28.5t37 78.5q0 39 -22.5 59.5t-51 28t-74.5 13.5l-49 6q-88 12 -141 56t-53 128q0 109 95 160q-38 18 -59 51t-21 80q0 57 29.5 98.5t81 63.5t116.5 22q97 0 157 -49t68 -135h-73q-17 113 -159 113
q-73 0 -110 -29t-37 -79q0 -39 22.5 -59.5t51 -28t74.5 -13.5l49 -6q88 -12 141 -56t53 -128q0 -55 -24.5 -95t-70.5 -64q80 -39 80 -132q0 -85 -64 -134t-163 -49q-98 0 -157.5 48.5zM421 155q27 35 27 80q0 59 -42.5 91t-133.5 41l-52 4q-51 -12 -78 -46.5t-27 -80.5
q0 -58 42.5 -90t133.5 -42l52 -4q51 12 78 47z" />
    <glyph glyph-name="dieresis" unicode="&#xa8;" horiz-adv-x="330" 
d="M30 648h83v-83h-83v83zM217 648h83v-83h-83v83z" />
    <glyph glyph-name="copyright" unicode="&#xa9;" horiz-adv-x="794" 
d="M220.5 32q-80.5 44 -128.5 126.5t-48 191.5t48 191.5t128.5 126.5t176.5 44t176.5 -44t128.5 -126.5t48 -191.5t-48 -191.5t-128.5 -126.5t-176.5 -44t-176.5 44zM542 89q66 37 105 104.5t39 156.5t-39 156.5t-105 104.5t-145 37t-145 -37t-105 -104.5t-39 -156.5
t39 -156.5t105 -104.5t145 -37t145 37zM295 171.5q-44 26.5 -68.5 73.5t-24.5 107t24.5 107t68.5 73.5t100 26.5q69 0 116 -37.5t58 -102.5h-61q-10 38 -39.5 58.5t-72.5 20.5q-61 0 -97 -39.5t-36 -106.5t36 -106.5t96 -39.5q44 0 73.5 20.5t39.5 58.5h61
q-11 -65 -58 -102.5t-116 -37.5q-56 0 -100 26.5z" />
    <glyph glyph-name="ordfeminine" unicode="&#xaa;" horiz-adv-x="345" 
d="M270.5 679q33.5 -27 33.5 -80v-198h-61v27h-9q-15 -15 -39.5 -25t-50.5 -10q-50 0 -78.5 25t-28.5 65q0 43 28.5 68.5t80.5 25.5h97v19q0 24 -16 38.5t-46 14.5q-28 0 -45.5 -11.5t-20.5 -34.5h-65q5 46 40 74.5t91 28.5t89.5 -27zM243 490v40h-91q-25 0 -38.5 -10.5
t-13.5 -31.5q0 -20 15.5 -31t41.5 -11q52 0 86 44z" />
    <glyph glyph-name="guillemotleft" unicode="&#xab;" horiz-adv-x="481" 
d="M41 254v12l152 190h86l-152 -190v-12l152 -190h-86zM211 254v12l152 190h86l-152 -190v-12l152 -190h-86z" />
    <glyph glyph-name="logicalnot" unicode="&#xac;" horiz-adv-x="470" 
d="M355 277h-306v66h373v-187h-67v121z" />
    <glyph glyph-name="uni00AD" unicode="&#xad;" horiz-adv-x="340" 
d="M0 334h340v-68h-340v68z" />
    <glyph glyph-name="registered" unicode="&#xae;" horiz-adv-x="497" 
d="M139.5 293q-49.5 27 -79 77.5t-29.5 118.5t29.5 118.5t79 77.5t108.5 27t108.5 -27t79 -77.5t29.5 -118.5t-29.5 -118.5t-79 -77.5t-108.5 -27t-108.5 27zM332.5 337q38.5 21 61 60.5t22.5 91.5t-22.5 91.5t-61 61t-84.5 21.5t-84 -21.5t-60.5 -61t-22.5 -91.5
t22.5 -91.5t60.5 -60.5t84 -21t84.5 21zM171 610h89q34 0 54 -18.5t20 -50.5q0 -29 -18.5 -47t-51.5 -19v-7l69 -90h-48l-69 88h-5v-88h-40v232zM258 511q35 0 35 30q0 16 -8.5 23t-26.5 7h-47v-60h47z" />
    <glyph glyph-name="macron" unicode="&#xaf;" horiz-adv-x="375" 
d="M30 636h315v-62h-315v62z" />
    <glyph glyph-name="degree" unicode="&#xb0;" horiz-adv-x="325" 
d="M75.5 505q-34.5 35 -34.5 86q0 50 35 85.5t87 35.5t86.5 -35.5t34.5 -85.5q0 -51 -34.5 -86t-86.5 -35q-53 0 -87.5 35zM209.5 544q18.5 19 18.5 47t-18.5 46.5t-46.5 18.5q-29 0 -47.5 -18.5t-18.5 -46.5t18.5 -47t47.5 -19q28 0 46.5 19z" />
    <glyph glyph-name="plusminus" unicode="&#xb1;" horiz-adv-x="507" 
d="M220 274h-163v66h163v107h67v-107h163v-66h-163v-107h-67v107zM56 103h395v-66h-395v66z" />
    <glyph glyph-name="uni00B2" unicode="&#xb2;" horiz-adv-x="282" 
d="M50 418l98 118q21 26 30 41.5t9 33.5t-10 29t-30 11q-19 0 -31 -12t-13 -34h-57q1 39 27 70t74 31t73 -26.5t25 -63.5q0 -30 -15 -54.5t-48 -63.5l-50 -61v-8h114v-51h-196v40z" />
    <glyph glyph-name="uni00B3" unicode="&#xb3;" horiz-adv-x="301" 
d="M70.5 402.5q-29.5 30.5 -31.5 73.5h57q1 -25 17.5 -38.5t37.5 -13.5q23 0 39 15.5t16 41.5q0 25 -16.5 39.5t-48.5 14.5h-35v43l69 70h-123v52h192v-47l-64 -66v-8q36 -3 59.5 -30.5t23.5 -67.5q0 -44 -29 -76.5t-83 -32.5q-51 0 -80.5 30.5z" />
    <glyph glyph-name="acute" unicode="&#xb4;" horiz-adv-x="265" 
d="M142 705h93l-126 -154h-79z" />
    <glyph glyph-name="uni00B5" unicode="&#xb5;" horiz-adv-x="526" 
d="M56 482h73v-291q0 -65 36 -97.5t91 -32.5q67 0 103.5 43t36.5 107v271h73v-482h-73v62h-11q-18 -32 -56.5 -53t-91.5 -21q-65 0 -108 34v-242h-73v702z" />
    <glyph glyph-name="paragraph" unicode="&#xb6;" horiz-adv-x="495" 
d="M324 -100h-71v448h-8q-59 0 -103.5 24t-68 64t-23.5 88t23.5 88.5t68 64t103.5 23.5h79v-800zM435 700v-800h-71v800h71z" />
    <glyph glyph-name="periodcentered" unicode="&#xb7;" horiz-adv-x="183" 
d="M50 392h83v-83h-83v83z" />
    <glyph glyph-name="cedilla" unicode="&#xb8;" horiz-adv-x="208" 
d="M30 -147h53q12 0 19 6.5t7 17.5q0 12 -7 18.5t-19 6.5h-43l9 112h67l-9 -59q34 -1 52.5 -24t18.5 -54q0 -34 -22 -58t-63 -24h-63v58z" />
    <glyph glyph-name="uni00B9" unicode="&#xb9;" horiz-adv-x="205" 
d="M87 632h-8l-61 -35v57l78 46h48v-322h-57v254z" />
    <glyph glyph-name="ordmasculine" unicode="&#xba;" horiz-adv-x="362" 
d="M101 414q-35 21 -54 56.5t-19 78.5t19.5 79t54.5 57t80 21t79.5 -21t53.5 -57t19 -79t-19 -78.5t-53.5 -56.5t-79.5 -21q-46 0 -81 21zM246 477.5q27 26.5 27 71.5t-27 71.5t-64 26.5q-39 0 -65.5 -26.5t-26.5 -71.5t27 -71.5t65 -26.5q37 0 64 26.5z" />
    <glyph glyph-name="guillemotright" unicode="&#xbb;" horiz-adv-x="481" 
d="M32 64l152 190v12l-152 190h86l152 -190v-12l-152 -190h-86zM202 64l152 190v12l-152 190h86l152 -190v-12l-152 -190h-86z" />
    <glyph glyph-name="onequarter" unicode="&#xbc;" horiz-adv-x="589" 
d="M87 632h-8l-61 -35v57l78 46h48v-322h-57v254zM466 700h65l-403 -700h-65zM480 81h-142v42l140 199h55v-190h44v-51h-44v-81h-53v81zM480 132v109h-8q-4 -15 -30 -51l-40 -58h78z" />
    <glyph glyph-name="onehalf" unicode="&#xbd;" horiz-adv-x="645" 
d="M87 632h-8l-61 -35v57l78 46h48v-322h-57v254zM466 700h65l-403 -700h-65zM416 40l98 118q21 26 30 41.5t9 33.5t-10 29t-30 11q-19 0 -31 -12t-13 -34h-57q1 39 27 70t74 31t73 -26.5t25 -63.5q0 -30 -15 -54.5t-48 -63.5l-50 -61v-8h114v-51h-196v40z" />
    <glyph glyph-name="threequarters" unicode="&#xbe;" horiz-adv-x="630" 
d="M70.5 402.5q-29.5 30.5 -31.5 73.5h57q1 -25 17.5 -38.5t37.5 -13.5q23 0 39 15.5t16 41.5q0 25 -16.5 39.5t-48.5 14.5h-35v43l69 70h-123v52h192v-47l-64 -66v-8q36 -3 59.5 -30.5t23.5 -67.5q0 -44 -29 -76.5t-83 -32.5q-51 0 -80.5 30.5zM507 700h65l-403 -700h-65z
M521 82h-142v42l140 199h55v-190h44v-51h-44v-81h-53v81zM521 133v109h-8q-4 -15 -30 -51l-40 -58h78z" />
    <glyph glyph-name="questiondown" unicode="&#xbf;" horiz-adv-x="431" 
d="M170 482h83v-83h-83v83zM100 -206q-43 26 -62 66.5t-19 85.5q0 50 19.5 84.5t58.5 78.5q38 43 57.5 76.5t21.5 80.5h69q0 -55 -21 -94t-61 -85q-35 -40 -52.5 -70t-17.5 -70q0 -55 34.5 -83t87.5 -28q60 0 91 35.5t34 83.5h74q-2 -44 -24 -87t-67 -71.5t-112 -28.5
q-68 0 -111 26z" />
    <glyph glyph-name="Agrave" unicode="&#xc0;" horiz-adv-x="684" 
d="M501 185h-318l-64 -185h-78l250 700h102l251 -700h-79zM478 251l-130 372h-12l-130 -372h272zM185 923h95l112 -154h-80z" />
    <glyph glyph-name="Aacute" unicode="&#xc1;" horiz-adv-x="684" 
d="M501 185h-318l-64 -185h-78l250 700h102l251 -700h-79zM478 251l-130 372h-12l-130 -372h272zM404 923h95l-127 -154h-80z" />
    <glyph glyph-name="Acircumflex" unicode="&#xc2;" horiz-adv-x="684" 
d="M501 185h-318l-64 -185h-78l250 700h102l251 -700h-79zM478 251l-130 372h-12l-130 -372h272zM312 907h60l136 -140h-83l-77 77h-11l-77 -77h-84z" />
    <glyph glyph-name="Atilde" unicode="&#xc3;" horiz-adv-x="684" 
d="M501 185h-318l-64 -185h-78l250 700h102l251 -700h-79zM478 251l-130 372h-12l-130 -372h272zM197.5 867q31.5 28 77.5 28q24 0 41.5 -7t41.5 -21q17 -10 27.5 -14.5t22.5 -4.5q21 0 32.5 13.5t11.5 33.5h69q-4 -56 -35.5 -84t-76.5 -28q-24 0 -40.5 6.5t-42.5 20.5
q-16 10 -27 15t-24 5q-21 0 -32 -13.5t-11 -33.5h-70q4 56 35.5 84z" />
    <glyph glyph-name="Adieresis" unicode="&#xc4;" horiz-adv-x="684" 
d="M501 185h-318l-64 -185h-78l250 700h102l251 -700h-79zM478 251l-130 372h-12l-130 -372h272zM207 857h83v-83h-83v83zM394 857h83v-83h-83v83z" />
    <glyph glyph-name="Aring" unicode="&#xc5;" horiz-adv-x="684" 
d="M501 185h-318l-64 -185h-78l250 700h102l251 -700h-79zM478 251l-130 372h-12l-130 -372h272zM279 772.5q-25 25.5 -25 62.5t25 62.5t63 25.5q37 0 62 -25.5t25 -62.5q0 -36 -25 -62t-62 -26q-38 0 -63 25.5zM367 810.5q10 10.5 10 24.5q0 15 -10 25.5t-25 10.5
t-25 -10.5t-10 -25.5q0 -14 10 -24.5t25 -10.5t25 10.5z" />
    <glyph glyph-name="AE" unicode="&#xc6;" horiz-adv-x="873" 
d="M391 700h432v-66h-305v-249h285v-67h-285v-252h305v-66h-379v185h-230l-91 -185h-82zM444 251v383h-10l-189 -383h199z" />
    <glyph glyph-name="Ccedilla" unicode="&#xc7;" horiz-adv-x="747" 
d="M547.5 113q61.5 52 79.5 129h74q-20 -118 -100 -182t-187 -71l-5 -34q34 -1 52.5 -24t18.5 -54q0 -34 -22 -58t-63 -24h-63v58h53q12 0 19 6.5t7 17.5q0 12 -7 18.5t-19 6.5h-43l7 88q-83 9 -151 54.5t-108.5 124t-40.5 181.5q0 111 46.5 193t124 125.5t167.5 43.5
q74 0 140 -27.5t113 -84.5t61 -142h-75q-17 76 -78 128.5t-161 52.5q-79 0 -138.5 -40t-91.5 -106t-32 -143t32 -143t91.5 -106t138.5 -40q99 0 160.5 52z" />
    <glyph glyph-name="Egrave" unicode="&#xc8;" horiz-adv-x="569" 
d="M134 634v-249h365v-67h-365v-252h385v-66h-459v700h459v-66h-385zM136 923h95l112 -154h-80z" />
    <glyph glyph-name="Eacute" unicode="&#xc9;" horiz-adv-x="569" 
d="M134 634v-249h365v-67h-365v-252h385v-66h-459v700h459v-66h-385zM355 923h95l-127 -154h-80z" />
    <glyph glyph-name="Ecircumflex" unicode="&#xca;" horiz-adv-x="569" 
d="M134 634v-249h365v-67h-365v-252h385v-66h-459v700h459v-66h-385zM263 907h60l136 -140h-83l-77 77h-11l-77 -77h-84z" />
    <glyph glyph-name="Edieresis" unicode="&#xcb;" horiz-adv-x="569" 
d="M134 634v-249h365v-67h-365v-252h385v-66h-459v700h459v-66h-385zM158 857h83v-83h-83v83zM345 857h83v-83h-83v83z" />
    <glyph glyph-name="Igrave" unicode="&#xcc;" horiz-adv-x="194" 
d="M60 700h74v-700h-74v700zM-60 923h95l112 -154h-80z" />
    <glyph glyph-name="Iacute" unicode="&#xcd;" horiz-adv-x="194" 
d="M60 700h74v-700h-74v700zM159 923h95l-127 -154h-80z" />
    <glyph glyph-name="Icircumflex" unicode="&#xce;" horiz-adv-x="194" 
d="M60 700h74v-700h-74v700zM67 907h60l136 -140h-83l-77 77h-11l-77 -77h-84z" />
    <glyph glyph-name="Idieresis" unicode="&#xcf;" horiz-adv-x="194" 
d="M60 700h74v-700h-74v700zM-38 857h83v-83h-83v83zM149 857h83v-83h-83v83z" />
    <glyph glyph-name="Eth" unicode="&#xd0;" horiz-adv-x="695" 
d="M571.5 606q79.5 -94 79.5 -256t-79.5 -256t-225.5 -94h-253v317h-83v66h83v317h253q146 0 225.5 -94zM515 143q60 77 60 207t-60 207t-170 77h-179v-251h185v-66h-185v-251h179q110 0 170 77z" />
    <glyph glyph-name="Ntilde" unicode="&#xd1;" horiz-adv-x="669" 
d="M60 700h95l328 -514q28 -44 41 -70h11v584h74v-700h-95l-324 507q-15 23 -45 76h-11v-583h-74v700zM190.5 867q31.5 28 77.5 28q24 0 41.5 -7t41.5 -21q17 -10 27.5 -14.5t22.5 -4.5q21 0 32.5 13.5t11.5 33.5h69q-4 -56 -35.5 -84t-76.5 -28q-24 0 -40.5 6.5t-42.5 20.5
q-16 10 -27 15t-24 5q-21 0 -32 -13.5t-11 -33.5h-70q4 56 35.5 84z" />
    <glyph glyph-name="Ograve" unicode="&#xd2;" horiz-adv-x="769" 
d="M215 31q-78 43 -124.5 125t-46.5 194t46.5 194t124.5 125t170 43t169.5 -43t124 -125t46.5 -194t-46.5 -194t-124 -125t-169.5 -43t-170 43zM519.5 95.5q60.5 34.5 95.5 100t35 154.5t-35 154.5t-95.5 100t-134.5 34.5t-134.5 -34.5t-95.5 -100t-35 -154.5t35 -154.5
t95.5 -100t134.5 -34.5t134.5 34.5zM228 923h95l112 -154h-80z" />
    <glyph glyph-name="Oacute" unicode="&#xd3;" horiz-adv-x="769" 
d="M215 31q-78 43 -124.5 125t-46.5 194t46.5 194t124.5 125t170 43t169.5 -43t124 -125t46.5 -194t-46.5 -194t-124 -125t-169.5 -43t-170 43zM519.5 95.5q60.5 34.5 95.5 100t35 154.5t-35 154.5t-95.5 100t-134.5 34.5t-134.5 -34.5t-95.5 -100t-35 -154.5t35 -154.5
t95.5 -100t134.5 -34.5t134.5 34.5zM447 923h95l-127 -154h-80z" />
    <glyph glyph-name="Ocircumflex" unicode="&#xd4;" horiz-adv-x="769" 
d="M215 31q-78 43 -124.5 125t-46.5 194t46.5 194t124.5 125t170 43t169.5 -43t124 -125t46.5 -194t-46.5 -194t-124 -125t-169.5 -43t-170 43zM519.5 95.5q60.5 34.5 95.5 100t35 154.5t-35 154.5t-95.5 100t-134.5 34.5t-134.5 -34.5t-95.5 -100t-35 -154.5t35 -154.5
t95.5 -100t134.5 -34.5t134.5 34.5zM355 907h60l136 -140h-83l-77 77h-11l-77 -77h-84z" />
    <glyph glyph-name="Otilde" unicode="&#xd5;" horiz-adv-x="769" 
d="M215 31q-78 43 -124.5 125t-46.5 194t46.5 194t124.5 125t170 43t169.5 -43t124 -125t46.5 -194t-46.5 -194t-124 -125t-169.5 -43t-170 43zM519.5 95.5q60.5 34.5 95.5 100t35 154.5t-35 154.5t-95.5 100t-134.5 34.5t-134.5 -34.5t-95.5 -100t-35 -154.5t35 -154.5
t95.5 -100t134.5 -34.5t134.5 34.5zM240.5 867q31.5 28 77.5 28q24 0 41.5 -7t41.5 -21q17 -10 27.5 -14.5t22.5 -4.5q21 0 32.5 13.5t11.5 33.5h69q-4 -56 -35.5 -84t-76.5 -28q-24 0 -40.5 6.5t-42.5 20.5q-16 10 -27 15t-24 5q-21 0 -32 -13.5t-11 -33.5h-70
q4 56 35.5 84z" />
    <glyph glyph-name="Odieresis" unicode="&#xd6;" horiz-adv-x="769" 
d="M215 31q-78 43 -124.5 125t-46.5 194t46.5 194t124.5 125t170 43t169.5 -43t124 -125t46.5 -194t-46.5 -194t-124 -125t-169.5 -43t-170 43zM519.5 95.5q60.5 34.5 95.5 100t35 154.5t-35 154.5t-95.5 100t-134.5 34.5t-134.5 -34.5t-95.5 -100t-35 -154.5t35 -154.5
t95.5 -100t134.5 -34.5t134.5 34.5zM250 857h83v-83h-83v83zM437 857h83v-83h-83v83z" />
    <glyph glyph-name="multiply" unicode="&#xd7;" horiz-adv-x="428" 
d="M49 182l118 118l-118 118l47 47l118 -118l118 118l47 -47l-118 -118l118 -118l-47 -47l-118 118l-118 -118z" />
    <glyph glyph-name="Oslash" unicode="&#xd8;" horiz-adv-x="769" 
d="M725 350q0 -112 -46.5 -194t-124 -125t-169.5 -43q-62 0 -118 20t-101 57l-64 -69l-49 44l67 72q-76 97 -76 238q0 112 46.5 194t124.5 125t170 43q62 0 118 -20t101 -57l64 69l49 -43l-68 -73q76 -97 76 -238zM172 168l382 413q-34 28 -77.5 43t-91.5 15
q-74 0 -134.5 -34.5t-95.5 -100t-35 -154.5q0 -108 52 -182zM519.5 95.5q60.5 34.5 95.5 100t35 154.5q0 109 -52 183l-382 -414q34 -28 77.5 -43t91.5 -15q74 0 134.5 34.5z" />
    <glyph glyph-name="Ugrave" unicode="&#xd9;" horiz-adv-x="610" 
d="M126.5 52.5q-65.5 64.5 -65.5 177.5l-1 470h74l1 -470q0 -75 44 -124t126 -49t126 49t44 124l1 470h74l-1 -470q0 -113 -65.5 -177.5t-178.5 -64.5t-178.5 64.5zM148 923h95l112 -154h-80z" />
    <glyph glyph-name="Uacute" unicode="&#xda;" horiz-adv-x="610" 
d="M126.5 52.5q-65.5 64.5 -65.5 177.5l-1 470h74l1 -470q0 -75 44 -124t126 -49t126 49t44 124l1 470h74l-1 -470q0 -113 -65.5 -177.5t-178.5 -64.5t-178.5 64.5zM367 923h95l-127 -154h-80z" />
    <glyph glyph-name="Ucircumflex" unicode="&#xdb;" horiz-adv-x="610" 
d="M126.5 52.5q-65.5 64.5 -65.5 177.5l-1 470h74l1 -470q0 -75 44 -124t126 -49t126 49t44 124l1 470h74l-1 -470q0 -113 -65.5 -177.5t-178.5 -64.5t-178.5 64.5zM275 907h60l136 -140h-83l-77 77h-11l-77 -77h-84z" />
    <glyph glyph-name="Udieresis" unicode="&#xdc;" horiz-adv-x="610" 
d="M126.5 52.5q-65.5 64.5 -65.5 177.5l-1 470h74l1 -470q0 -75 44 -124t126 -49t126 49t44 124l1 470h74l-1 -470q0 -113 -65.5 -177.5t-178.5 -64.5t-178.5 64.5zM170 857h83v-83h-83v83zM357 857h83v-83h-83v83z" />
    <glyph glyph-name="Yacute" unicode="&#xdd;" horiz-adv-x="606" 
d="M340 271v-271h-74v271l-247 429h82l182 -318q10 -18 15 -29h11q5 11 15 29l181 318h83zM362 923h95l-127 -154h-80z" />
    <glyph glyph-name="Thorn" unicode="&#xde;" horiz-adv-x="607" 
d="M498.5 498.5q58.5 -55.5 58.5 -148.5t-58.5 -148.5t-157.5 -55.5h-207v-146h-74v700h74v-146h207q99 0 157.5 -55.5zM445.5 250.5q35.5 38.5 35.5 99.5t-35.5 99.5t-108.5 38.5h-203v-276h203q73 0 108.5 38.5z" />
    <glyph glyph-name="germandbls" unicode="&#xdf;" horiz-adv-x="556" 
d="M56 533q0 57 25 102t71 71t106 26q57 0 102 -23t70 -65t25 -97q0 -48 -19.5 -86t-54.5 -55v-12q60 -14 97 -61t37 -126q0 -97 -58 -152t-157 -55h-86v73h70q156 0 156 133q0 79 -45.5 113t-110.5 34h-70v73h68q45 0 72 32t27 81q0 51 -29.5 85.5t-92.5 34.5
q-62 0 -96 -36t-34 -92v-531h-73v533z" />
    <glyph glyph-name="agrave" unicode="&#xe0;" horiz-adv-x="507" 
d="M401.5 453q50.5 -41 50.5 -125v-328h-73v51h-11q-25 -27 -67.5 -45t-88.5 -18q-86 0 -130.5 40.5t-44.5 105.5q0 70 44.5 109.5t126.5 39.5h171v41q0 46 -29.5 73t-90.5 27q-58 0 -90 -24.5t-37 -68.5h-75q8 75 62 119t142 44q90 0 140.5 -41zM379 138v83h-168
q-49 0 -73.5 -21t-24.5 -61q0 -42 29.5 -63t79.5 -21q96 0 157 83zM106 705h95l112 -154h-80z" />
    <glyph glyph-name="aacute" unicode="&#xe1;" horiz-adv-x="507" 
d="M401.5 453q50.5 -41 50.5 -125v-328h-73v51h-11q-25 -27 -67.5 -45t-88.5 -18q-86 0 -130.5 40.5t-44.5 105.5q0 70 44.5 109.5t126.5 39.5h171v41q0 46 -29.5 73t-90.5 27q-58 0 -90 -24.5t-37 -68.5h-75q8 75 62 119t142 44q90 0 140.5 -41zM379 138v83h-168
q-49 0 -73.5 -21t-24.5 -61q0 -42 29.5 -63t79.5 -21q96 0 157 83zM325 705h95l-127 -154h-80z" />
    <glyph glyph-name="acircumflex" unicode="&#xe2;" horiz-adv-x="507" 
d="M401.5 453q50.5 -41 50.5 -125v-328h-73v51h-11q-25 -27 -67.5 -45t-88.5 -18q-86 0 -130.5 40.5t-44.5 105.5q0 70 44.5 109.5t126.5 39.5h171v41q0 46 -29.5 73t-90.5 27q-58 0 -90 -24.5t-37 -68.5h-75q8 75 62 119t142 44q90 0 140.5 -41zM379 138v83h-168
q-49 0 -73.5 -21t-24.5 -61q0 -42 29.5 -63t79.5 -21q96 0 157 83zM233 689h60l136 -140h-83l-77 77h-11l-77 -77h-84z" />
    <glyph glyph-name="atilde" unicode="&#xe3;" horiz-adv-x="507" 
d="M401.5 453q50.5 -41 50.5 -125v-328h-73v51h-11q-25 -27 -67.5 -45t-88.5 -18q-86 0 -130.5 40.5t-44.5 105.5q0 70 44.5 109.5t126.5 39.5h171v41q0 46 -29.5 73t-90.5 27q-58 0 -90 -24.5t-37 -68.5h-75q8 75 62 119t142 44q90 0 140.5 -41zM379 138v83h-168
q-49 0 -73.5 -21t-24.5 -61q0 -42 29.5 -63t79.5 -21q96 0 157 83zM119.5 649q31.5 28 77.5 28q24 0 41.5 -7t41.5 -21q17 -10 27.5 -14.5t22.5 -4.5q21 0 32.5 13.5t11.5 33.5h69q-4 -56 -35.5 -84t-76.5 -28q-24 0 -40.5 6.5t-42.5 20.5q-16 10 -27 15t-24 5
q-21 0 -32 -13.5t-11 -33.5h-70q4 56 35.5 84z" />
    <glyph glyph-name="adieresis" unicode="&#xe4;" horiz-adv-x="507" 
d="M401.5 453q50.5 -41 50.5 -125v-328h-73v51h-11q-25 -27 -67.5 -45t-88.5 -18q-86 0 -130.5 40.5t-44.5 105.5q0 70 44.5 109.5t126.5 39.5h171v41q0 46 -29.5 73t-90.5 27q-58 0 -90 -24.5t-37 -68.5h-75q8 75 62 119t142 44q90 0 140.5 -41zM379 138v83h-168
q-49 0 -73.5 -21t-24.5 -61q0 -42 29.5 -63t79.5 -21q96 0 157 83zM128 670h83v-83h-83v83zM315 670h83v-83h-83v83z" />
    <glyph glyph-name="aring" unicode="&#xe5;" horiz-adv-x="507" 
d="M401.5 453q50.5 -41 50.5 -125v-328h-73v51h-11q-25 -27 -67.5 -45t-88.5 -18q-86 0 -130.5 40.5t-44.5 105.5q0 70 44.5 109.5t126.5 39.5h171v41q0 46 -29.5 73t-90.5 27q-58 0 -90 -24.5t-37 -68.5h-75q8 75 62 119t142 44q90 0 140.5 -41zM379 138v83h-168
q-49 0 -73.5 -21t-24.5 -61q0 -42 29.5 -63t79.5 -21q96 0 157 83zM201 554.5q-25 25.5 -25 62.5t25 62.5t63 25.5q37 0 62 -25.5t25 -62.5q0 -36 -25 -62t-62 -26q-38 0 -63 25.5zM289 592q10 10 10 25t-10 25t-25 10t-25 -10t-10 -25t10 -25t25 -9q15 -1 25 9z" />
    <glyph glyph-name="ae" unicode="&#xe6;" horiz-adv-x="840" 
d="M82 28.5q-45 40.5 -45 105.5q0 70 44.5 110t126.5 40h151v40q0 45 -27.5 72.5t-82.5 27.5q-52 0 -83 -24.5t-36 -68.5h-73q7 75 59.5 119t133.5 44q59 0 102 -22t62 -66q29 41 73.5 64.5t99.5 23.5q60 0 108.5 -28t76 -77.5t27.5 -109.5v-57h-364q4 -80 46.5 -122
t105.5 -42q95 0 131 93h74q-19 -75 -73 -119t-132 -44q-117 0 -183 101h-12q-76 -101 -178 -101q-87 0 -132 40.5zM726 284q1 36 -15.5 68.5t-48.5 52.5t-76 20q-58 0 -100 -38t-50 -103h290zM293 76.5q35 21.5 66 68.5v77h-148q-49 0 -73.5 -21.5t-24.5 -61.5
q0 -42 28.5 -63t73.5 -21q43 0 78 21.5z" />
    <glyph glyph-name="ccedilla" unicode="&#xe7;" horiz-adv-x="533" 
d="M369.5 84.5q35.5 26.5 48.5 69.5h73q-14 -72 -66 -117t-130 -49l-5 -33q34 -1 52.5 -24t18.5 -54q0 -34 -22 -58t-63 -24h-63v58h53q12 0 19 6.5t7 17.5q0 12 -7 18.5t-19 6.5h-43l7 90q-86 16 -137.5 84t-51.5 165q0 73 30 130.5t84 90t124 32.5q84 0 141 -45t71 -121
h-73q-13 43 -48.5 69.5t-90.5 26.5q-73 0 -119 -49t-46 -134q0 -87 47 -135t118 -48q55 0 90.5 26.5z" />
    <glyph glyph-name="egrave" unicode="&#xe8;" horiz-adv-x="540" 
d="M151.5 20.5q-53.5 32.5 -82 89.5t-28.5 129t28 130t81.5 91.5t125.5 33.5q66 0 116.5 -28.5t78.5 -78t28 -112.5v-56h-384q6 -78 49.5 -119.5t112.5 -41.5q105 0 141 93h74q-19 -75 -74.5 -119t-140.5 -44q-72 0 -125.5 32.5zM426 282q1 60 -38.5 101.5t-111.5 41.5
q-64 0 -107.5 -37.5t-51.5 -105.5h309zM114 705h95l112 -154h-80z" />
    <glyph glyph-name="eacute" unicode="&#xe9;" horiz-adv-x="540" 
d="M151.5 20.5q-53.5 32.5 -82 89.5t-28.5 129t28 130t81.5 91.5t125.5 33.5q66 0 116.5 -28.5t78.5 -78t28 -112.5v-56h-384q6 -78 49.5 -119.5t112.5 -41.5q105 0 141 93h74q-19 -75 -74.5 -119t-140.5 -44q-72 0 -125.5 32.5zM426 282q1 60 -38.5 101.5t-111.5 41.5
q-64 0 -107.5 -37.5t-51.5 -105.5h309zM333 705h95l-127 -154h-80z" />
    <glyph glyph-name="ecircumflex" unicode="&#xea;" horiz-adv-x="540" 
d="M151.5 20.5q-53.5 32.5 -82 89.5t-28.5 129t28 130t81.5 91.5t125.5 33.5q66 0 116.5 -28.5t78.5 -78t28 -112.5v-56h-384q6 -78 49.5 -119.5t112.5 -41.5q105 0 141 93h74q-19 -75 -74.5 -119t-140.5 -44q-72 0 -125.5 32.5zM426 282q1 60 -38.5 101.5t-111.5 41.5
q-64 0 -107.5 -37.5t-51.5 -105.5h309zM241 689h60l136 -140h-83l-77 77h-11l-77 -77h-84z" />
    <glyph glyph-name="edieresis" unicode="&#xeb;" horiz-adv-x="540" 
d="M151.5 20.5q-53.5 32.5 -82 89.5t-28.5 129t28 130t81.5 91.5t125.5 33.5q66 0 116.5 -28.5t78.5 -78t28 -112.5v-56h-384q6 -78 49.5 -119.5t112.5 -41.5q105 0 141 93h74q-19 -75 -74.5 -119t-140.5 -44q-72 0 -125.5 32.5zM426 282q1 60 -38.5 101.5t-111.5 41.5
q-64 0 -107.5 -37.5t-51.5 -105.5h309zM136 670h83v-83h-83v83zM323 670h83v-83h-83v83z" />
    <glyph glyph-name="igrave" unicode="&#xec;" horiz-adv-x="182" 
d="M54 482h73v-482h-73v482zM-66 705h95l112 -154h-80z" />
    <glyph glyph-name="iacute" unicode="&#xed;" horiz-adv-x="182" 
d="M54 482h73v-482h-73v482zM153 705h95l-127 -154h-80z" />
    <glyph glyph-name="icircumflex" unicode="&#xee;" horiz-adv-x="182" 
d="M54 482h73v-482h-73v482zM61 689h60l136 -140h-83l-77 77h-11l-77 -77h-84z" />
    <glyph glyph-name="idieresis" unicode="&#xef;" horiz-adv-x="182" 
d="M54 482h73v-482h-73v482zM-44 670h83v-83h-83v83zM143 670h83v-83h-83v83z" />
    <glyph glyph-name="eth" unicode="&#xf0;" horiz-adv-x="573" 
d="M500 454q32 -89 32 -195q0 -78 -30.5 -139.5t-86.5 -96.5t-130 -35q-73 0 -128.5 33.5t-85.5 91t-30 126.5t29.5 126.5t83.5 91.5t126 34q94 0 143 -66h11q-22 75 -94 154l-87 -59l-38 51l78 53q-40 35 -83 62l46 46q56 -35 94 -69l92 62l39 -51l-83 -56q70 -75 102 -164
zM369.5 80.5q38.5 21.5 62.5 62t24 96.5t-24 96.5t-62.5 62t-83.5 21.5t-83.5 -21.5t-62.5 -62t-24 -96.5t24 -96.5t62.5 -62t83.5 -21.5t83.5 21.5z" />
    <glyph glyph-name="ntilde" unicode="&#xf1;" horiz-adv-x="524" 
d="M57 482h73v-62h11q18 32 56 53t92 21q80 0 130.5 -48t50.5 -138v-308h-73v291q0 65 -36.5 97.5t-91.5 32.5q-67 0 -103 -43t-36 -107v-271h-73v482zM118.5 649q31.5 28 77.5 28q24 0 41.5 -7t41.5 -21q17 -10 27.5 -14.5t22.5 -4.5q21 0 32.5 13.5t11.5 33.5h69
q-4 -56 -35.5 -84t-76.5 -28q-24 0 -40.5 6.5t-42.5 20.5q-16 10 -27 15t-24 5q-21 0 -32 -13.5t-11 -33.5h-70q4 56 35.5 84z" />
    <glyph glyph-name="ograve" unicode="&#xf2;" horiz-adv-x="573" 
d="M158 22q-56 34 -86.5 91.5t-30.5 127.5t30.5 127.5t86.5 91.5t129 34t128.5 -34t86 -91.5t30.5 -127.5t-30.5 -127.5t-86 -91.5t-128.5 -34t-129 34zM371 80.5q39 21.5 62.5 62.5t23.5 98t-23.5 98t-62.5 62.5t-84 21.5t-84 -21.5t-63 -62.5t-24 -98t24 -98t63 -62.5
t84 -21.5t84 21.5zM130 705h95l112 -154h-80z" />
    <glyph glyph-name="oacute" unicode="&#xf3;" horiz-adv-x="573" 
d="M158 22q-56 34 -86.5 91.5t-30.5 127.5t30.5 127.5t86.5 91.5t129 34t128.5 -34t86 -91.5t30.5 -127.5t-30.5 -127.5t-86 -91.5t-128.5 -34t-129 34zM371 80.5q39 21.5 62.5 62.5t23.5 98t-23.5 98t-62.5 62.5t-84 21.5t-84 -21.5t-63 -62.5t-24 -98t24 -98t63 -62.5
t84 -21.5t84 21.5zM349 705h95l-127 -154h-80z" />
    <glyph glyph-name="ocircumflex" unicode="&#xf4;" horiz-adv-x="573" 
d="M158 22q-56 34 -86.5 91.5t-30.5 127.5t30.5 127.5t86.5 91.5t129 34t128.5 -34t86 -91.5t30.5 -127.5t-30.5 -127.5t-86 -91.5t-128.5 -34t-129 34zM371 80.5q39 21.5 62.5 62.5t23.5 98t-23.5 98t-62.5 62.5t-84 21.5t-84 -21.5t-63 -62.5t-24 -98t24 -98t63 -62.5
t84 -21.5t84 21.5zM256 689h60l136 -140h-83l-77 77h-11l-77 -77h-84z" />
    <glyph glyph-name="otilde" unicode="&#xf5;" horiz-adv-x="573" 
d="M158 22q-56 34 -86.5 91.5t-30.5 127.5t30.5 127.5t86.5 91.5t129 34t128.5 -34t86 -91.5t30.5 -127.5t-30.5 -127.5t-86 -91.5t-128.5 -34t-129 34zM371 80.5q39 21.5 62.5 62.5t23.5 98t-23.5 98t-62.5 62.5t-84 21.5t-84 -21.5t-63 -62.5t-24 -98t24 -98t63 -62.5
t84 -21.5t84 21.5zM142.5 649q31.5 28 77.5 28q24 0 41.5 -7t41.5 -21q17 -10 27.5 -14.5t22.5 -4.5q21 0 32.5 13.5t11.5 33.5h69q-4 -56 -35.5 -84t-76.5 -28q-24 0 -40.5 6.5t-42.5 20.5q-16 10 -27 15t-24 5q-21 0 -32 -13.5t-11 -33.5h-70q4 56 35.5 84z" />
    <glyph glyph-name="odieresis" unicode="&#xf6;" horiz-adv-x="573" 
d="M158 22q-56 34 -86.5 91.5t-30.5 127.5t30.5 127.5t86.5 91.5t129 34t128.5 -34t86 -91.5t30.5 -127.5t-30.5 -127.5t-86 -91.5t-128.5 -34t-129 34zM371 80.5q39 21.5 62.5 62.5t23.5 98t-23.5 98t-62.5 62.5t-84 21.5t-84 -21.5t-63 -62.5t-24 -98t24 -98t63 -62.5
t84 -21.5t84 21.5zM152 670h83v-83h-83v83zM339 670h83v-83h-83v83z" />
    <glyph glyph-name="divide" unicode="&#xf7;" horiz-adv-x="496" 
d="M207 493h82v-83h-82v83zM49 333h398v-66h-398v66zM207 190h82v-83h-82v83z" />
    <glyph glyph-name="oslash" unicode="&#xf8;" horiz-adv-x="573" 
d="M515.5 338q16.5 -45 16.5 -97q0 -70 -30.5 -127.5t-86 -91.5t-128.5 -34q-76 0 -132 36l-51 -64l-51 37l53 67q-32 35 -48.5 80t-16.5 97q0 70 30.5 127.5t86.5 91.5t129 34q74 0 132 -36l50 63l51 -37l-53 -66q32 -35 48.5 -80zM152 122l222 279q-40 23 -87 23
q-46 0 -85.5 -21.5t-63.5 -63t-24 -98.5q0 -71 38 -119zM371.5 79.5q39.5 21.5 63.5 63t24 98.5q0 72 -38 119l-221 -279q40 -23 87 -23q45 0 84.5 21.5z" />
    <glyph glyph-name="ugrave" unicode="&#xf9;" horiz-adv-x="524" 
d="M105 36.5q-51 48.5 -51 137.5v308h73v-291q0 -65 36.5 -97.5t91.5 -32.5q67 0 103.5 43t36.5 107v271h73v-482h-73v62h-12q-17 -32 -55.5 -53t-92.5 -21q-79 0 -130 48.5zM105 705h95l112 -154h-80z" />
    <glyph glyph-name="uacute" unicode="&#xfa;" horiz-adv-x="524" 
d="M105 36.5q-51 48.5 -51 137.5v308h73v-291q0 -65 36.5 -97.5t91.5 -32.5q67 0 103.5 43t36.5 107v271h73v-482h-73v62h-12q-17 -32 -55.5 -53t-92.5 -21q-79 0 -130 48.5zM324 705h95l-127 -154h-80z" />
    <glyph glyph-name="ucircumflex" unicode="&#xfb;" horiz-adv-x="524" 
d="M105 36.5q-51 48.5 -51 137.5v308h73v-291q0 -65 36.5 -97.5t91.5 -32.5q67 0 103.5 43t36.5 107v271h73v-482h-73v62h-12q-17 -32 -55.5 -53t-92.5 -21q-79 0 -130 48.5zM232 689h60l136 -140h-83l-77 77h-11l-77 -77h-84z" />
    <glyph glyph-name="udieresis" unicode="&#xfc;" horiz-adv-x="524" 
d="M105 36.5q-51 48.5 -51 137.5v308h73v-291q0 -65 36.5 -97.5t91.5 -32.5q67 0 103.5 43t36.5 107v271h73v-482h-73v62h-12q-17 -32 -55.5 -53t-92.5 -21q-79 0 -130 48.5zM127 670h83v-83h-83v83zM314 670h83v-83h-83v83z" />
    <glyph glyph-name="yacute" unicode="&#xfd;" horiz-adv-x="504" 
d="M213 62l-196 420h83l133 -291l14 -32h11l13 32l135 291h82l-324 -702h-83zM313 705h95l-127 -154h-80z" />
    <glyph glyph-name="thorn" unicode="&#xfe;" horiz-adv-x="567" 
d="M56 720h73v-307h11q28 40 72.5 60.5t92.5 20.5q55 0 105.5 -27.5t83 -84.5t32.5 -140q0 -84 -33 -141.5t-85.5 -85t-110.5 -27.5q-49 0 -93.5 19t-74.5 58v-285h-73v940zM368 79q37 20 60.5 61t23.5 101t-23.5 101t-60.5 61t-79 20q-43 0 -79.5 -20t-58.5 -61t-22 -101
t22 -101t58.5 -61t79.5 -20q42 0 79 20z" />
    <glyph glyph-name="ydieresis" unicode="&#xff;" horiz-adv-x="504" 
d="M213 62l-196 420h83l133 -291l14 -32h11l13 32l135 291h82l-324 -702h-83zM117 670h83v-83h-83v83zM304 670h83v-83h-83v83z" />
    <glyph glyph-name="Amacron" unicode="&#x100;" horiz-adv-x="684" 
d="M501 185h-318l-64 -185h-78l250 700h102l251 -700h-79zM478 251l-130 372h-12l-130 -372h272zM184 854h315v-62h-315v62z" />
    <glyph glyph-name="amacron" unicode="&#x101;" horiz-adv-x="507" 
d="M401.5 453q50.5 -41 50.5 -125v-328h-73v51h-11q-25 -27 -67.5 -45t-88.5 -18q-86 0 -130.5 40.5t-44.5 105.5q0 70 44.5 109.5t126.5 39.5h171v41q0 46 -29.5 73t-90.5 27q-58 0 -90 -24.5t-37 -68.5h-75q8 75 62 119t142 44q90 0 140.5 -41zM379 138v83h-168
q-49 0 -73.5 -21t-24.5 -61q0 -42 29.5 -63t79.5 -21q96 0 157 83zM106 659h315v-62h-315v62z" />
    <glyph glyph-name="Abreve" unicode="&#x102;" horiz-adv-x="684" 
d="M501 185h-318l-64 -185h-78l250 700h102l251 -700h-79zM478 251l-130 372h-12l-130 -372h272zM224.5 799q-43.5 42 -45.5 106h69q2 -36 26.5 -60t67.5 -24t67.5 24t26.5 60h69q-2 -63 -45.5 -105.5t-117.5 -42.5t-117.5 42z" />
    <glyph glyph-name="abreve" unicode="&#x103;" horiz-adv-x="507" 
d="M401.5 453q50.5 -41 50.5 -125v-328h-73v51h-11q-25 -27 -67.5 -45t-88.5 -18q-86 0 -130.5 40.5t-44.5 105.5q0 70 44.5 109.5t126.5 39.5h171v41q0 46 -29.5 73t-90.5 27q-58 0 -90 -24.5t-37 -68.5h-75q8 75 62 119t142 44q90 0 140.5 -41zM379 138v83h-168
q-49 0 -73.5 -21t-24.5 -61q0 -42 29.5 -63t79.5 -21q96 0 157 83zM145.5 581q-43.5 42 -45.5 106h69q2 -36 26.5 -60t67.5 -24t67.5 24t26.5 60h69q-2 -63 -45.5 -105.5t-117.5 -42.5t-117.5 42z" />
    <glyph glyph-name="Aogonek" unicode="&#x104;" horiz-adv-x="684" 
d="M665 -131v-61h-44q-52 0 -85 25t-33 75q0 34 16.5 59.5t42.5 41.5l-61 176h-318l-64 -185h-78l250 700h102l251 -700q-35 -14 -54 -32.5t-19 -46.5q0 -52 67 -52h27zM478 251l-130 372h-12l-130 -372h272z" />
    <glyph glyph-name="aogonek" unicode="&#x105;" horiz-adv-x="507" 
d="M474 -131v-61h-44q-52 0 -85 25t-33 75q0 37 19 63.5t48 41.5v38h-11q-25 -27 -67.5 -45t-88.5 -18q-86 0 -130.5 40.5t-44.5 105.5q0 70 44.5 109.5t126.5 39.5h171v41q0 46 -29.5 73t-90.5 27q-58 0 -90 -24.5t-37 -68.5h-75q8 75 62 119t142 44q90 0 140.5 -41
t50.5 -125v-327l1 -1q-35 -14 -54 -32.5t-19 -46.5q0 -52 67 -52h27zM379 138v83h-168q-49 0 -73.5 -21t-24.5 -61q0 -42 29.5 -63t79.5 -21q96 0 157 83z" />
    <glyph glyph-name="Cacute" unicode="&#x106;" horiz-adv-x="747" 
d="M219.5 31.5q-77.5 43.5 -124 125.5t-46.5 193t46.5 193t124 125.5t167.5 43.5q74 0 140 -27.5t113 -84.5t61 -142h-75q-17 76 -78 128.5t-161 52.5q-79 0 -138.5 -40t-91.5 -106t-32 -143t32 -143t91.5 -106t138.5 -40q99 0 160.5 52t79.5 129h74q-14 -85 -61 -142
t-113 -84.5t-140 -27.5q-90 0 -167.5 43.5zM449 923h95l-127 -154h-80z" />
    <glyph glyph-name="cacute" unicode="&#x107;" horiz-adv-x="533" 
d="M155 20.5q-54 32.5 -84 90t-30 130.5t30 130.5t84 90t124 32.5q84 0 141 -45t71 -121h-73q-13 43 -48.5 69.5t-90.5 26.5q-73 0 -119 -49t-46 -134q0 -87 47 -135t118 -48q55 0 90.5 26.5t48.5 69.5h73q-14 -76 -71 -121t-141 -45q-70 0 -124 32.5zM341 705h95l-127 -154
h-80z" />
    <glyph glyph-name="Ccaron" unicode="&#x10c;" horiz-adv-x="747" 
d="M219.5 31.5q-77.5 43.5 -124 125.5t-46.5 193t46.5 193t124 125.5t167.5 43.5q74 0 140 -27.5t113 -84.5t61 -142h-75q-17 76 -78 128.5t-161 52.5q-79 0 -138.5 -40t-91.5 -106t-32 -143t32 -143t91.5 -106t138.5 -40q99 0 160.5 52t79.5 129h74q-14 -85 -61 -142
t-113 -84.5t-140 -27.5q-90 0 -167.5 43.5zM220 907h84l77 -77h11l77 77h83l-136 -140h-60z" />
    <glyph glyph-name="ccaron" unicode="&#x10d;" horiz-adv-x="533" 
d="M155 20.5q-54 32.5 -84 90t-30 130.5t30 130.5t84 90t124 32.5q84 0 141 -45t71 -121h-73q-13 43 -48.5 69.5t-90.5 26.5q-73 0 -119 -49t-46 -134q0 -87 47 -135t118 -48q55 0 90.5 26.5t48.5 69.5h73q-14 -76 -71 -121t-141 -45q-70 0 -124 32.5zM112 689h84l77 -77h11
l77 77h83l-136 -140h-60z" />
    <glyph glyph-name="Dcaron" unicode="&#x10e;" horiz-adv-x="662" 
d="M538.5 606q79.5 -94 79.5 -256t-79.5 -256t-225.5 -94h-253v700h253q146 0 225.5 -94zM482.5 143q59.5 77 59.5 207t-59.5 207t-169.5 77h-179v-568h179q110 0 169.5 77zM105 907h84l77 -77h11l77 77h83l-136 -140h-60z" />
    <glyph glyph-name="dcaron" unicode="&#x10f;" horiz-adv-x="672" 
d="M156.5 15.5q-50.5 27.5 -83 84.5t-32.5 140q0 84 33 141.5t85.5 85t110.5 27.5q49 0 93.5 -19t74.5 -58v303h73v-720h-73v69h-12q-27 -40 -71.5 -60.5t-93.5 -20.5q-54 0 -104.5 27.5zM356.5 79q36.5 20 59 61t22.5 101t-22.5 101t-59 61t-78.5 20t-79.5 -20t-61 -61
t-23.5 -101t23.5 -101t61 -61t79.5 -20t78.5 20zM579 720h73l-5 -208h-63z" />
    <glyph glyph-name="Dcroat" unicode="&#x110;" horiz-adv-x="695" 
d="M571.5 606q79.5 -94 79.5 -256t-79.5 -256t-225.5 -94h-253v317h-83v66h83v317h253q146 0 225.5 -94zM515 143q60 77 60 207t-60 207t-170 77h-179v-251h185v-66h-185v-251h179q110 0 170 77z" />
    <glyph glyph-name="dcroat" unicode="&#x111;" horiz-adv-x="594" 
d="M594 561h-83v-561h-73v69h-12q-27 -40 -71.5 -60.5t-93.5 -20.5q-54 0 -104.5 27.5t-83 84.5t-32.5 140q0 84 33 141.5t85.5 85t110.5 27.5q49 0 93.5 -19t74.5 -58v144h-167v65h167v94h73v-94h83v-65zM356.5 79q36.5 20 59 61t22.5 101t-22.5 101t-59 61t-78.5 20
t-79.5 -20t-61 -61t-23.5 -101t23.5 -101t61 -61t79.5 -20t78.5 20z" />
    <glyph glyph-name="Emacron" unicode="&#x112;" horiz-adv-x="569" 
d="M134 634v-249h365v-67h-365v-252h385v-66h-459v700h459v-66h-385zM135 854h315v-62h-315v62z" />
    <glyph glyph-name="emacron" unicode="&#x113;" horiz-adv-x="540" 
d="M151.5 20.5q-53.5 32.5 -82 89.5t-28.5 129t28 130t81.5 91.5t125.5 33.5q66 0 116.5 -28.5t78.5 -78t28 -112.5v-56h-384q6 -78 49.5 -119.5t112.5 -41.5q105 0 141 93h74q-19 -75 -74.5 -119t-140.5 -44q-72 0 -125.5 32.5zM426 282q1 60 -38.5 101.5t-111.5 41.5
q-64 0 -107.5 -37.5t-51.5 -105.5h309zM114 659h315v-62h-315v62z" />
    <glyph glyph-name="Edotaccent" unicode="&#x116;" horiz-adv-x="569" 
d="M134 634v-249h365v-67h-365v-252h385v-66h-459v700h459v-66h-385zM252 857h83v-83h-83v83z" />
    <glyph glyph-name="edotaccent" unicode="&#x117;" horiz-adv-x="540" 
d="M151.5 20.5q-53.5 32.5 -82 89.5t-28.5 129t28 130t81.5 91.5t125.5 33.5q66 0 116.5 -28.5t78.5 -78t28 -112.5v-56h-384q6 -78 49.5 -119.5t112.5 -41.5q105 0 141 93h74q-19 -75 -74.5 -119t-140.5 -44q-72 0 -125.5 32.5zM426 282q1 60 -38.5 101.5t-111.5 41.5
q-64 0 -107.5 -37.5t-51.5 -105.5h309zM230 670h83v-83h-83v83z" />
    <glyph glyph-name="Eogonek" unicode="&#x118;" horiz-adv-x="569" 
d="M541 -131v-61h-44q-52 0 -85 25t-33 75q0 57 46 92h-365v700h459v-66h-385v-249h365v-67h-365v-252h385v-65l1 -1q-35 -14 -54 -32.5t-19 -46.5q0 -52 67 -52h27z" />
    <glyph glyph-name="eogonek" unicode="&#x119;" horiz-adv-x="540" 
d="M499 219h-384q6 -78 49.5 -119.5t112.5 -41.5q105 0 141 93h74q-15 -55 -49.5 -94.5t-85.5 -56.5q-35 -14 -54 -32.5t-19 -46.5q0 -52 67 -52h27v-61h-44q-52 0 -85 25t-33 75q0 48 33 81q-96 10 -152 78.5t-56 171.5q0 72 28 130t81.5 91.5t125.5 33.5q66 0 116.5 -28.5
t78.5 -78t28 -112.5v-56zM387.5 383.5q-39.5 41.5 -111.5 41.5q-64 0 -107.5 -37.5t-51.5 -105.5h309q1 60 -38.5 101.5z" />
    <glyph glyph-name="Ecaron" unicode="&#x11a;" horiz-adv-x="569" 
d="M134 634v-249h365v-67h-365v-252h385v-66h-459v700h459v-66h-385zM127 907h84l77 -77h11l77 77h83l-136 -140h-60z" />
    <glyph glyph-name="ecaron" unicode="&#x11b;" horiz-adv-x="540" 
d="M151.5 20.5q-53.5 32.5 -82 89.5t-28.5 129t28 130t81.5 91.5t125.5 33.5q66 0 116.5 -28.5t78.5 -78t28 -112.5v-56h-384q6 -78 49.5 -119.5t112.5 -41.5q105 0 141 93h74q-19 -75 -74.5 -119t-140.5 -44q-72 0 -125.5 32.5zM426 282q1 60 -38.5 101.5t-111.5 41.5
q-64 0 -107.5 -37.5t-51.5 -105.5h309zM105 689h84l77 -77h11l77 77h83l-136 -140h-60z" />
    <glyph glyph-name="Gbreve" unicode="&#x11e;" horiz-adv-x="744" 
d="M212.5 31.5q-76.5 43.5 -122.5 125t-46 192.5q0 110 46.5 192.5t124.5 126.5t169 44q70 0 133.5 -26.5t109 -81t59.5 -134.5h-76q-9 43 -37 81.5t-75.5 63t-111.5 24.5q-81 0 -141.5 -40t-92.5 -106.5t-32 -143.5t32 -143t91.5 -105.5t139.5 -39.5q100 0 160.5 63.5
t68.5 177.5h-240v66h318v-368h-74v103h-11q-38 -58 -98 -86.5t-129 -28.5q-89 0 -165.5 43.5zM264.5 799q-43.5 42 -45.5 106h69q2 -36 26.5 -60t67.5 -24t67.5 24t26.5 60h69q-2 -63 -45.5 -105.5t-117.5 -42.5t-117.5 42z" />
    <glyph glyph-name="gbreve" unicode="&#x11f;" horiz-adv-x="544" 
d="M65.5 -192.5q-40.5 39.5 -40.5 98.5q0 68 59 109v12q-40 20 -40 65q0 24 10.5 42t29.5 41l13 15q-22 24 -34 55t-12 66q0 50 23 91.5t67.5 66t105.5 24.5q38 0 73 -11h204v-67h-114q34 -42 34 -104q0 -49 -23.5 -90t-68 -65.5t-105.5 -24.5q-52 0 -97 21l-9 -10
q-11 -13 -16.5 -22t-5.5 -18q0 -11 8 -19.5t26 -8.5h172q71 0 115.5 -37.5t44.5 -111.5q0 -69 -46.5 -113t-145.5 -44h-88q-99 0 -139.5 39.5zM333.5 228.5q36.5 28.5 36.5 83.5t-36.5 83.5t-86.5 28.5q-49 0 -85.5 -28.5t-36.5 -83.5t36.5 -83.5t85.5 -28.5q50 0 86.5 28.5
zM301 -163q42 0 76 21.5t34 66.5q0 38 -24 59.5t-70 21.5h-163q-26 -16 -40 -39.5t-14 -48.5q0 -37 27 -59t83 -22h91zM139.5 581q-43.5 42 -45.5 106h69q2 -36 26.5 -60t67.5 -24t67.5 24t26.5 60h69q-2 -63 -45.5 -105.5t-117.5 -42.5t-117.5 42z" />
    <glyph glyph-name="uni0122" unicode="&#x122;" horiz-adv-x="744" 
d="M212.5 31.5q-76.5 43.5 -122.5 125t-46 192.5q0 110 46.5 192.5t124.5 126.5t169 44q70 0 133.5 -26.5t109 -81t59.5 -134.5h-76q-9 43 -37 81.5t-75.5 63t-111.5 24.5q-81 0 -141.5 -40t-92.5 -106.5t-32 -143.5t32 -143t91.5 -105.5t139.5 -39.5q100 0 160.5 63.5
t68.5 177.5h-240v66h318v-368h-74v103h-11q-38 -58 -98 -86.5t-129 -28.5q-89 0 -165.5 43.5zM328 -166h14q20 0 20 20v17h-35v79h83v-98q0 -31 -18 -45.5t-45 -14.5h-19v42z" />
    <glyph glyph-name="uni0123" unicode="&#x123;" horiz-adv-x="544" 
d="M65.5 -192.5q-40.5 39.5 -40.5 98.5q0 68 59 109v12q-40 20 -40 65q0 24 10.5 42t29.5 41l13 15q-22 24 -34 55t-12 66q0 50 23 91.5t67.5 66t105.5 24.5q38 0 73 -11h204v-67h-114q34 -42 34 -104q0 -49 -23.5 -90t-68 -65.5t-105.5 -24.5q-52 0 -97 21l-9 -10
q-11 -13 -16.5 -22t-5.5 -18q0 -11 8 -19.5t26 -8.5h172q71 0 115.5 -37.5t44.5 -111.5q0 -69 -46.5 -113t-145.5 -44h-88q-99 0 -139.5 39.5zM333.5 228.5q36.5 28.5 36.5 83.5t-36.5 83.5t-86.5 28.5q-49 0 -85.5 -28.5t-36.5 -83.5t36.5 -83.5t85.5 -28.5q50 0 86.5 28.5
zM301 -163q42 0 76 21.5t34 66.5q0 38 -24 59.5t-70 21.5h-163q-26 -16 -40 -39.5t-14 -48.5q0 -37 27 -59t83 -22h91zM289 659h-14q-21 0 -21 -20v-17h36v-79h-83v98q0 31 18 45.5t44 14.5h20v-42z" />
    <glyph glyph-name="Imacron" unicode="&#x12a;" horiz-adv-x="194" 
d="M60 700h74v-700h-74v700zM-61 854h315v-62h-315v62z" />
    <glyph glyph-name="imacron" unicode="&#x12b;" horiz-adv-x="182" 
d="M54 482h73v-482h-73v482zM-67 659h315v-62h-315v62z" />
    <glyph glyph-name="Iogonek" unicode="&#x12e;" horiz-adv-x="194" 
d="M26.5 -167q-33.5 25 -33.5 75q0 38 19 64t48 41v687h74v-700q-35 -14 -54 -32.5t-19 -46.5q0 -53 67 -53h27v-60h-43q-52 0 -85.5 25z" />
    <glyph glyph-name="iogonek" unicode="&#x12f;" horiz-adv-x="182" 
d="M132 587h-83v83h83v-83zM149 -132v-60h-44q-52 0 -85 25t-33 75q0 37 19 63.5t48 42.5v468h73v-482q-35 -14 -53.5 -32.5t-18.5 -46.5q0 -53 67 -53h27z" />
    <glyph glyph-name="Idotaccent" unicode="&#x130;" horiz-adv-x="194" 
d="M60 700h74v-700h-74v700zM55 857h83v-83h-83v83z" />
    <glyph glyph-name="dotlessi" unicode="&#x131;" horiz-adv-x="182" 
d="M54 482h73v-482h-73v482z" />
    <glyph glyph-name="uni0136" unicode="&#x136;" horiz-adv-x="557" 
d="M60 700h74v-318l295 318h98l-305 -324v-11l326 -365h-100l-314 356v-356h-74v700zM242 -166h14q20 0 20 20v17h-35v79h83v-98q0 -31 -18 -45.5t-45 -14.5h-19v42z" />
    <glyph glyph-name="uni0137" unicode="&#x137;" horiz-adv-x="458" 
d="M349 0l-220 244v-244h-73v720h73v-452l213 214h92l-220 -221v-11l230 -250h-95zM191 -166h14q20 0 20 20v17h-35v79h83v-98q0 -31 -18 -45.5t-45 -14.5h-19v42z" />
    <glyph glyph-name="Lacute" unicode="&#x139;" horiz-adv-x="567" 
d="M519 66v-66h-459v700h74v-634h385zM162 923h95l-127 -154h-80z" />
    <glyph glyph-name="lacute" unicode="&#x13a;" horiz-adv-x="184" 
d="M56 720h73v-720h-73v720zM154 943h95l-127 -154h-80z" />
    <glyph glyph-name="uni013B" unicode="&#x13b;" horiz-adv-x="567" 
d="M519 66v-66h-459v700h74v-634h385zM243 -166h14q20 0 20 20v17h-35v79h83v-98q0 -31 -18 -45.5t-45 -14.5h-19v42z" />
    <glyph glyph-name="uni013C" unicode="&#x13c;" horiz-adv-x="184" 
d="M56 720h73v-720h-73v720zM52 -166h14q20 0 20 20v17h-35v79h83v-98q0 -31 -18 -45.5t-45 -14.5h-19v42z" />
    <glyph glyph-name="Lcaron" unicode="&#x13d;" horiz-adv-x="567" 
d="M519 66v-66h-459v700h74v-634h385zM368 720h73l-5 -208h-63z" />
    <glyph glyph-name="lcaron" unicode="&#x13e;" horiz-adv-x="290" 
d="M197 720h73l-5 -208h-63zM56 720h73v-720h-73v720z" />
    <glyph glyph-name="Lslash" unicode="&#x141;" horiz-adv-x="615" 
d="M567 66v-66h-459v281l-88 -41v68l88 41v351h74v-316l199 93v-68l-199 -93v-250h385z" />
    <glyph glyph-name="lslash" unicode="&#x142;" horiz-adv-x="236" 
d="M226 431l-73 -82v-349h-73v266l-70 -79v93l70 79v361h73v-278l73 82v-93z" />
    <glyph glyph-name="Nacute" unicode="&#x143;" horiz-adv-x="669" 
d="M60 700h95l328 -514q28 -44 41 -70h11v584h74v-700h-95l-324 507q-15 23 -45 76h-11v-583h-74v700zM396 923h95l-127 -154h-80z" />
    <glyph glyph-name="nacute" unicode="&#x144;" horiz-adv-x="524" 
d="M57 482h73v-62h11q18 32 56 53t92 21q80 0 130.5 -48t50.5 -138v-308h-73v291q0 65 -36.5 97.5t-91.5 32.5q-67 0 -103 -43t-36 -107v-271h-73v482zM324 705h95l-127 -154h-80z" />
    <glyph glyph-name="uni0145" unicode="&#x145;" horiz-adv-x="669" 
d="M60 700h95l328 -514q28 -44 41 -70h11v584h74v-700h-95l-324 507q-15 23 -45 76h-11v-583h-74v700zM294 -166h14q20 0 20 20v17h-35v79h83v-98q0 -31 -18 -45.5t-45 -14.5h-19v42z" />
    <glyph glyph-name="uni0146" unicode="&#x146;" horiz-adv-x="524" 
d="M57 482h73v-62h11q18 32 56 53t92 21q80 0 130.5 -48t50.5 -138v-308h-73v291q0 65 -36.5 97.5t-91.5 32.5q-67 0 -103 -43t-36 -107v-271h-73v482zM222 -166h14q20 0 20 20v17h-35v79h83v-98q0 -31 -18 -45.5t-45 -14.5h-19v42z" />
    <glyph glyph-name="Ncaron" unicode="&#x147;" horiz-adv-x="669" 
d="M60 700h95l328 -514q28 -44 41 -70h11v584h74v-700h-95l-324 507q-15 23 -45 76h-11v-583h-74v700zM168 907h84l77 -77h11l77 77h83l-136 -140h-60z" />
    <glyph glyph-name="ncaron" unicode="&#x148;" horiz-adv-x="524" 
d="M57 482h73v-62h11q18 32 56 53t92 21q80 0 130.5 -48t50.5 -138v-308h-73v291q0 65 -36.5 97.5t-91.5 32.5q-67 0 -103 -43t-36 -107v-271h-73v482zM96 689h84l77 -77h11l77 77h83l-136 -140h-60z" />
    <glyph glyph-name="Omacron" unicode="&#x14c;" horiz-adv-x="769" 
d="M215 31q-78 43 -124.5 125t-46.5 194t46.5 194t124.5 125t170 43t169.5 -43t124 -125t46.5 -194t-46.5 -194t-124 -125t-169.5 -43t-170 43zM519.5 95.5q60.5 34.5 95.5 100t35 154.5t-35 154.5t-95.5 100t-134.5 34.5t-134.5 -34.5t-95.5 -100t-35 -154.5t35 -154.5
t95.5 -100t134.5 -34.5t134.5 34.5zM227 854h315v-62h-315v62z" />
    <glyph glyph-name="omacron" unicode="&#x14d;" horiz-adv-x="573" 
d="M158 22q-56 34 -86.5 91.5t-30.5 127.5t30.5 127.5t86.5 91.5t129 34t128.5 -34t86 -91.5t30.5 -127.5t-30.5 -127.5t-86 -91.5t-128.5 -34t-129 34zM371 80.5q39 21.5 62.5 62.5t23.5 98t-23.5 98t-62.5 62.5t-84 21.5t-84 -21.5t-63 -62.5t-24 -98t24 -98t63 -62.5
t84 -21.5t84 21.5zM129 659h315v-62h-315v62z" />
    <glyph glyph-name="Ohungarumlaut" unicode="&#x150;" horiz-adv-x="769" 
d="M215 31q-78 43 -124.5 125t-46.5 194t46.5 194t124.5 125t170 43t169.5 -43t124 -125t46.5 -194t-46.5 -194t-124 -125t-169.5 -43t-170 43zM519.5 95.5q60.5 34.5 95.5 100t35 154.5t-35 154.5t-95.5 100t-134.5 34.5t-134.5 -34.5t-95.5 -100t-35 -154.5t35 -154.5
t95.5 -100t134.5 -34.5t134.5 34.5zM370 923h93l-126 -154h-79zM523 923h93l-127 -154h-78z" />
    <glyph glyph-name="ohungarumlaut" unicode="&#x151;" horiz-adv-x="573" 
d="M158 22q-56 34 -86.5 91.5t-30.5 127.5t30.5 127.5t86.5 91.5t129 34t128.5 -34t86 -91.5t30.5 -127.5t-30.5 -127.5t-86 -91.5t-128.5 -34t-129 34zM371 80.5q39 21.5 62.5 62.5t23.5 98t-23.5 98t-62.5 62.5t-84 21.5t-84 -21.5t-63 -62.5t-24 -98t24 -98t63 -62.5
t84 -21.5t84 21.5zM262 705h93l-127 -154h-78zM414 705h94l-127 -154h-79z" />
    <glyph glyph-name="OE" unicode="&#x152;" horiz-adv-x="923" 
d="M215 42.5q-78 42.5 -124.5 122t-46.5 185.5t46.5 185.5t124.5 122t170 42.5h489v-66h-328v-249h308v-67h-308v-252h328v-66h-489q-92 0 -170 42.5zM472 68v564h-87q-74 0 -134.5 -34.5t-95.5 -98.5t-35 -149q0 -84 35 -148.5t95.5 -99t134.5 -34.5h87z" />
    <glyph glyph-name="oe" unicode="&#x153;" horiz-adv-x="917" 
d="M151.5 22q-53.5 34 -82 91.5t-28.5 127.5t28.5 127.5t82 91.5t124.5 34q66 0 117 -30t81 -82q28 53 76.5 82.5t111.5 29.5q61 0 110 -28t76.5 -78t27.5 -113v-56h-365q5 -78 47.5 -119.5t104.5 -41.5q50 0 83 25.5t48 67.5h74q-19 -75 -72.5 -119t-131.5 -44
q-64 0 -113 29.5t-77 82.5q-30 -53 -81 -82.5t-117 -29.5q-71 0 -124.5 34zM803 282q0 60 -37.5 101.5t-103.5 41.5q-57 0 -98.5 -38t-50.5 -105h290zM356 80.5q37 21.5 59 62.5t22 98t-22 98t-59 62.5t-79 21.5q-43 0 -80 -21.5t-59 -62.5t-22 -98t22 -98t59 -62.5
t80 -21.5q42 0 79 21.5z" />
    <glyph glyph-name="Racute" unicode="&#x154;" horiz-adv-x="592" 
d="M60 700h264q100 0 158 -51.5t58 -143.5q0 -90 -56 -141t-153 -53h-85v-11l287 -300h-96l-292 310h-11v-310h-74v700zM320 376q74 0 109 35t35 94t-35 94t-109 35h-186v-258h186zM309 923h95l-127 -154h-80z" />
    <glyph glyph-name="racute" unicode="&#x155;" horiz-adv-x="345" 
d="M57 482h73v-67h11q37 74 119 74h64v-73h-71q-61 0 -92 -39t-31 -109v-268h-73v482zM235 705h95l-127 -154h-80z" />
    <glyph glyph-name="uni0156" unicode="&#x156;" horiz-adv-x="592" 
d="M60 700h264q100 0 158 -51.5t58 -143.5q0 -90 -56 -141t-153 -53h-85v-11l287 -300h-96l-292 310h-11v-310h-74v700zM320 376q74 0 109 35t35 94t-35 94t-109 35h-186v-258h186zM242 -166h14q20 0 20 20v17h-35v79h83v-98q0 -31 -18 -45.5t-45 -14.5h-19v42z" />
    <glyph glyph-name="uni0157" unicode="&#x157;" horiz-adv-x="345" 
d="M57 482h73v-67h11q37 74 119 74h64v-73h-71q-61 0 -92 -39t-31 -109v-268h-73v482zM53 -166h14q20 0 20 20v17h-35v79h83v-98q0 -31 -18 -45.5t-45 -14.5h-19v42z" />
    <glyph glyph-name="Rcaron" unicode="&#x158;" horiz-adv-x="592" 
d="M60 700h264q100 0 158 -51.5t58 -143.5q0 -90 -56 -141t-153 -53h-85v-11l287 -300h-96l-292 310h-11v-310h-74v700zM320 376q74 0 109 35t35 94t-35 94t-109 35h-186v-258h186zM81 907h84l77 -77h11l77 77h83l-136 -140h-60z" />
    <glyph glyph-name="rcaron" unicode="&#x159;" horiz-adv-x="345" 
d="M57 482h73v-67h11q37 74 119 74h64v-73h-71q-61 0 -92 -39t-31 -109v-268h-73v482zM7 689h84l77 -77h11l77 77h83l-136 -140h-60z" />
    <glyph glyph-name="Sacute" unicode="&#x15a;" horiz-adv-x="625" 
d="M173 16.5q-61 28.5 -94 78.5t-37 115h75q8 -64 58 -107t144 -43q93 0 138 41t45 100q0 112 -137 122l-94 8q-92 6 -150.5 51.5t-58.5 127.5q0 63 33 108.5t89 69.5t124 24q111 0 176 -52.5t76 -149.5h-76q-8 59 -50.5 94.5t-125.5 35.5t-126.5 -34.5t-43.5 -90.5
q0 -52 41.5 -79.5t115.5 -33.5l82 -6q200 -16 200 -191q0 -63 -33.5 -112.5t-92.5 -77t-132 -27.5q-85 0 -146 28.5zM375 923h95l-127 -154h-80z" />
    <glyph glyph-name="sacute" unicode="&#x15b;" horiz-adv-x="470" 
d="M91 31.5q-54 43.5 -59 112.5h75q6 -38 40.5 -62.5t90.5 -24.5q119 0 119 84q0 38 -23.5 52.5t-66.5 18.5l-70 6q-146 12 -146 129q0 67 50 107t131 40t128.5 -36.5t55.5 -104.5h-74q-5 34 -34 53t-75 19q-49 0 -79 -19.5t-30 -56.5q0 -32 24.5 -48t71.5 -19l61 -5
q73 -5 111 -36t38 -99q0 -69 -50.5 -111.5t-142.5 -42.5t-146 43.5zM297 705h95l-127 -154h-80z" />
    <glyph glyph-name="Scedilla" unicode="&#x15e;" horiz-adv-x="625" 
d="M546.5 97.5q-30.5 -47.5 -84 -76t-121.5 -32.5l-5 -34q34 -1 52.5 -24t18.5 -54q0 -34 -22 -58t-63 -24h-63v58h53q12 0 19 6.5t7 17.5q0 12 -7 18.5t-19 6.5h-43l7 88q-107 10 -168 70t-66 150h75q8 -64 58 -107t144 -43q93 0 138 41t45 100q0 112 -137 122l-94 8
q-92 6 -150.5 51.5t-58.5 127.5q0 63 33 108.5t89 69.5t124 24q111 0 176 -52.5t76 -149.5h-76q-8 59 -50.5 94.5t-125.5 35.5t-126.5 -34.5t-43.5 -90.5q0 -52 41.5 -79.5t115.5 -33.5l82 -6q200 -16 200 -191q0 -60 -30.5 -107.5z" />
    <glyph glyph-name="scedilla" unicode="&#x15f;" horiz-adv-x="470" 
d="M386.5 36.5q-43.5 -41.5 -123.5 -47.5l-5 -34q34 -1 52.5 -24t18.5 -54q0 -34 -22 -58t-63 -24h-63v58h53q12 0 19 6.5t7 17.5q0 12 -7 18.5t-19 6.5h-43l7 88q-75 10 -118 51.5t-48 102.5h75q6 -38 40.5 -62.5t90.5 -24.5q119 0 119 84q0 38 -23.5 52.5t-66.5 18.5
l-70 6q-146 12 -146 129q0 67 50 107t131 40t128.5 -36.5t55.5 -104.5h-74q-5 34 -34 53t-75 19q-49 0 -79 -19.5t-30 -56.5q0 -32 24.5 -48t71.5 -19l61 -5q73 -5 111 -36t38 -99q0 -64 -43.5 -105.5z" />
    <glyph glyph-name="Scaron" unicode="&#x160;" horiz-adv-x="625" 
d="M173 16.5q-61 28.5 -94 78.5t-37 115h75q8 -64 58 -107t144 -43q93 0 138 41t45 100q0 112 -137 122l-94 8q-92 6 -150.5 51.5t-58.5 127.5q0 63 33 108.5t89 69.5t124 24q111 0 176 -52.5t76 -149.5h-76q-8 59 -50.5 94.5t-125.5 35.5t-126.5 -34.5t-43.5 -90.5
q0 -52 41.5 -79.5t115.5 -33.5l82 -6q200 -16 200 -191q0 -63 -33.5 -112.5t-92.5 -77t-132 -27.5q-85 0 -146 28.5zM146 907h84l77 -77h11l77 77h83l-136 -140h-60z" />
    <glyph glyph-name="scaron" unicode="&#x161;" horiz-adv-x="470" 
d="M91 31.5q-54 43.5 -59 112.5h75q6 -38 40.5 -62.5t90.5 -24.5q119 0 119 84q0 38 -23.5 52.5t-66.5 18.5l-70 6q-146 12 -146 129q0 67 50 107t131 40t128.5 -36.5t55.5 -104.5h-74q-5 34 -34 53t-75 19q-49 0 -79 -19.5t-30 -56.5q0 -32 24.5 -48t71.5 -19l61 -5
q73 -5 111 -36t38 -99q0 -69 -50.5 -111.5t-142.5 -42.5t-146 43.5zM69 689h84l77 -77h11l77 77h83l-136 -140h-60z" />
    <glyph glyph-name="uni0162" unicode="&#x162;" horiz-adv-x="589" 
d="M241 -147h53q12 0 19 6.5t7 17.5q0 12 -7 18.5t-19 6.5h-43l10 98h-3v634h-222v66h517v-66h-222v-634h-3l-10 -45q34 -1 52.5 -24t18.5 -54q0 -34 -22 -58t-63 -24h-63v58z" />
    <glyph glyph-name="uni0163" unicode="&#x163;" horiz-adv-x="397" 
d="M188 414v-259q0 -45 20.5 -66t66.5 -21h72v-68h-64l-7 -45q34 -1 52.5 -24t18.5 -54q0 -34 -22 -58t-63 -24h-63v58h53q12 0 19 6.5t7 17.5q0 12 -7 18.5t-19 6.5h-43l8 101q-48 10 -75 44.5t-27 91.5v275h-107v68h107v130h73v-130h161v-68h-161z" />
    <glyph glyph-name="Tcaron" unicode="&#x164;" horiz-adv-x="589" 
d="M258 634h-222v66h517v-66h-222v-634h-73v634zM128 907h84l77 -77h11l77 77h83l-136 -140h-60z" />
    <glyph glyph-name="tcaron" unicode="&#x165;" horiz-adv-x="397" 
d="M152.5 35.5q-37.5 35.5 -37.5 103.5v275h-107v68h107v130h73v-130h161v-68h-161v-259q0 -45 20.5 -66t66.5 -21h72v-68h-92q-65 0 -102.5 35.5zM273 786h73l-5 -208h-63z" />
    <glyph glyph-name="Umacron" unicode="&#x16a;" horiz-adv-x="610" 
d="M126.5 52.5q-65.5 64.5 -65.5 177.5l-1 470h74l1 -470q0 -75 44 -124t126 -49t126 49t44 124l1 470h74l-1 -470q0 -113 -65.5 -177.5t-178.5 -64.5t-178.5 64.5zM147 854h315v-62h-315v62z" />
    <glyph glyph-name="umacron" unicode="&#x16b;" horiz-adv-x="524" 
d="M105 36.5q-51 48.5 -51 137.5v308h73v-291q0 -65 36.5 -97.5t91.5 -32.5q67 0 103.5 43t36.5 107v271h73v-482h-73v62h-12q-17 -32 -55.5 -53t-92.5 -21q-79 0 -130 48.5zM104 659h315v-62h-315v62z" />
    <glyph glyph-name="Uring" unicode="&#x16e;" horiz-adv-x="610" 
d="M126.5 52.5q-65.5 64.5 -65.5 177.5l-1 470h74l1 -470q0 -75 44 -124t126 -49t126 49t44 124l1 470h74l-1 -470q0 -113 -65.5 -177.5t-178.5 -64.5t-178.5 64.5zM242 772.5q-25 25.5 -25 62.5t25 62.5t63 25.5q37 0 62 -25.5t25 -62.5q0 -36 -25 -62t-62 -26
q-38 0 -63 25.5zM330 810.5q10 10.5 10 24.5q0 15 -10 25.5t-25 10.5t-25 -10.5t-10 -25.5q0 -14 10 -24.5t25 -10.5t25 10.5z" />
    <glyph glyph-name="uring" unicode="&#x16f;" horiz-adv-x="524" 
d="M105 36.5q-51 48.5 -51 137.5v308h73v-291q0 -65 36.5 -97.5t91.5 -32.5q67 0 103.5 43t36.5 107v271h73v-482h-73v62h-12q-17 -32 -55.5 -53t-92.5 -21q-79 0 -130 48.5zM200 554.5q-25 25.5 -25 62.5t25 62.5t63 25.5q37 0 62 -25.5t25 -62.5q0 -36 -25 -62t-62 -26
q-38 0 -63 25.5zM288 592q10 10 10 25t-10 25t-25 10t-25 -10t-10 -25t10 -25t25 -9q15 -1 25 9z" />
    <glyph glyph-name="Uhungarumlaut" unicode="&#x170;" horiz-adv-x="610" 
d="M126.5 52.5q-65.5 64.5 -65.5 177.5l-1 470h74l1 -470q0 -75 44 -124t126 -49t126 49t44 124l1 470h74l-1 -470q0 -113 -65.5 -177.5t-178.5 -64.5t-178.5 64.5zM290 923h93l-126 -154h-79zM443 923h93l-127 -154h-78z" />
    <glyph glyph-name="uhungarumlaut" unicode="&#x171;" horiz-adv-x="524" 
d="M105 36.5q-51 48.5 -51 137.5v308h73v-291q0 -65 36.5 -97.5t91.5 -32.5q67 0 103.5 43t36.5 107v271h73v-482h-73v62h-12q-17 -32 -55.5 -53t-92.5 -21q-79 0 -130 48.5zM238 705h93l-127 -154h-78zM390 705h94l-127 -154h-79z" />
    <glyph glyph-name="Uogonek" unicode="&#x172;" horiz-adv-x="610" 
d="M550 700l-1 -470q0 -89 -42 -149t-117 -82q-35 -14 -53 -32t-18 -46q0 -52 67 -52h27v-61h-44q-52 0 -85 25t-33 75q0 46 33 81q-104 6 -163.5 69.5t-59.5 171.5l-1 470h74l1 -470q0 -75 44 -124t126 -49t126 49t44 124l1 470h74z" />
    <glyph glyph-name="uogonek" unicode="&#x173;" horiz-adv-x="524" 
d="M489 -131v-61h-44q-52 0 -85 25t-33 75q0 38 19 64.5t49 41.5v48h-12q-17 -32 -55.5 -53t-92.5 -21q-79 0 -130 48.5t-51 137.5v308h73v-291q0 -65 36.5 -97.5t91.5 -32.5q67 0 103.5 43t36.5 107v271h73v-482q-35 -14 -54 -32.5t-19 -46.5q0 -52 67 -52h27z" />
    <glyph glyph-name="Wcircumflex" unicode="&#x174;" horiz-adv-x="973" 
d="M41 700h80l146 -571l5 -25h11q1 8 2.5 14.5t2.5 10.5l158 571h80l159 -571l5 -25h11q1 8 2.5 14.5t2.5 10.5l146 571h80l-187 -700h-101l-143 516q-6 24 -9 41h-11q-9 -37 -10 -41l-142 -516h-101zM456 907h60l136 -140h-83l-77 77h-11l-77 -77h-84z" />
    <glyph glyph-name="wcircumflex" unicode="&#x175;" horiz-adv-x="711" 
d="M20 482h76l95 -354q2 -9 5 -20t6 -25h11l11 45l97 354h70l96 -354q2 -9 5 -20t6 -25h11l11 45l95 354h76l-137 -482h-99l-88 317l-6 21h-11l-6 -21l-88 -317h-99zM326 689h60l136 -140h-83l-77 77h-11l-77 -77h-84z" />
    <glyph glyph-name="Ycircumflex" unicode="&#x176;" horiz-adv-x="606" 
d="M340 271v-271h-74v271l-247 429h82l182 -318q10 -18 15 -29h11q5 11 15 29l181 318h83zM273 907h60l136 -140h-83l-77 77h-11l-77 -77h-84z" />
    <glyph glyph-name="ycircumflex" unicode="&#x177;" horiz-adv-x="504" 
d="M213 62l-196 420h83l133 -291l14 -32h11l13 32l135 291h82l-324 -702h-83zM222 689h60l136 -140h-83l-77 77h-11l-77 -77h-84z" />
    <glyph glyph-name="Ydieresis" unicode="&#x178;" horiz-adv-x="606" 
d="M340 271v-271h-74v271l-247 429h82l182 -318q10 -18 15 -29h11q5 11 15 29l181 318h83zM168 857h83v-83h-83v83zM355 857h83v-83h-83v83z" />
    <glyph glyph-name="Zacute" unicode="&#x179;" horiz-adv-x="534" 
d="M40 66l370 556v12h-368v66h460v-66l-370 -556v-12h372v-66h-464v66zM329 923h95l-127 -154h-80z" />
    <glyph glyph-name="zacute" unicode="&#x17a;" horiz-adv-x="464" 
d="M40 70l273 330v12h-266v70h362v-70l-271 -330v-12h271v-70h-369v70zM294 705h95l-127 -154h-80z" />
    <glyph glyph-name="Zdotaccent" unicode="&#x17b;" horiz-adv-x="534" 
d="M40 66l370 556v12h-368v66h460v-66l-370 -556v-12h372v-66h-464v66zM226 857h83v-83h-83v83z" />
    <glyph glyph-name="zdotaccent" unicode="&#x17c;" horiz-adv-x="464" 
d="M40 70l273 330v12h-266v70h362v-70l-271 -330v-12h271v-70h-369v70zM191 670h83v-83h-83v83z" />
    <glyph glyph-name="Zcaron" unicode="&#x17d;" horiz-adv-x="534" 
d="M40 66l370 556v12h-368v66h460v-66l-370 -556v-12h372v-66h-464v66zM101 907h84l77 -77h11l77 77h83l-136 -140h-60z" />
    <glyph glyph-name="zcaron" unicode="&#x17e;" horiz-adv-x="464" 
d="M40 70l273 330v12h-266v70h362v-70l-271 -330v-12h271v-70h-369v70zM66 689h84l77 -77h11l77 77h83l-136 -140h-60z" />
    <glyph glyph-name="florin" unicode="&#x192;" horiz-adv-x="490" 
d="M340.5 634q-18.5 -20 -23.5 -67l-10 -85h142v-68h-151l-55 -447q-18 -139 -140 -139h-76v67h56q44 0 62.5 19.5t24.5 66.5l53 433h-118v68h127l12 99q17 139 140 139h76v-66h-57q-44 0 -62.5 -20z" />
    <glyph glyph-name="uni0218" unicode="&#x218;" horiz-adv-x="625" 
d="M173 16.5q-61 28.5 -94 78.5t-37 115h75q8 -64 58 -107t144 -43q93 0 138 41t45 100q0 112 -137 122l-94 8q-92 6 -150.5 51.5t-58.5 127.5q0 63 33 108.5t89 69.5t124 24q111 0 176 -52.5t76 -149.5h-76q-8 59 -50.5 94.5t-125.5 35.5t-126.5 -34.5t-43.5 -90.5
q0 -52 41.5 -79.5t115.5 -33.5l82 -6q200 -16 200 -191q0 -63 -33.5 -112.5t-92.5 -77t-132 -27.5q-85 0 -146 28.5zM272 -166h14q20 0 20 20v17h-35v79h83v-98q0 -31 -18 -45.5t-45 -14.5h-19v42z" />
    <glyph glyph-name="uni0219" unicode="&#x219;" horiz-adv-x="470" 
d="M91 31.5q-54 43.5 -59 112.5h75q6 -38 40.5 -62.5t90.5 -24.5q119 0 119 84q0 38 -23.5 52.5t-66.5 18.5l-70 6q-146 12 -146 129q0 67 50 107t131 40t128.5 -36.5t55.5 -104.5h-74q-5 34 -34 53t-75 19q-49 0 -79 -19.5t-30 -56.5q0 -32 24.5 -48t71.5 -19l61 -5
q73 -5 111 -36t38 -99q0 -69 -50.5 -111.5t-142.5 -42.5t-146 43.5zM195 -166h14q20 0 20 20v17h-35v79h83v-98q0 -31 -18 -45.5t-45 -14.5h-19v42z" />
    <glyph glyph-name="uni021A" unicode="&#x21a;" horiz-adv-x="589" 
d="M258 634h-222v66h517v-66h-222v-634h-73v634zM254 -166h14q20 0 20 20v17h-35v79h83v-98q0 -31 -18 -45.5t-45 -14.5h-19v42z" />
    <glyph glyph-name="uni021B" unicode="&#x21b;" horiz-adv-x="397" 
d="M152.5 35.5q-37.5 35.5 -37.5 103.5v275h-107v68h107v130h73v-130h161v-68h-161v-259q0 -45 20.5 -66t66.5 -21h72v-68h-92q-65 0 -102.5 35.5zM212 -166h14q20 0 20 20v17h-35v79h83v-98q0 -31 -18 -45.5t-45 -14.5h-19v42z" />
    <glyph glyph-name="uni02BC" unicode="&#x2bc;" horiz-adv-x="183" 
d="M51 581h14q20 0 20 19v17h-35v83h83v-103q0 -31 -18 -45.5t-45 -14.5h-19v44z" />
    <glyph glyph-name="circumflex" unicode="&#x2c6;" horiz-adv-x="392" 
d="M166 689h60l136 -140h-83l-77 77h-11l-77 -77h-84z" />
    <glyph glyph-name="caron" unicode="&#x2c7;" horiz-adv-x="392" 
d="M30 689h84l77 -77h11l77 77h83l-136 -140h-60z" />
    <glyph glyph-name="uni02C9" unicode="&#x2c9;" horiz-adv-x="315" 
d="M0 659h315v-62h-315v62z" />
    <glyph glyph-name="breve" unicode="&#x2d8;" horiz-adv-x="386" 
d="M75.5 581q-43.5 42 -45.5 106h69q2 -36 26.5 -60t67.5 -24t67.5 24t26.5 60h69q-2 -63 -45.5 -105.5t-117.5 -42.5t-117.5 42z" />
    <glyph glyph-name="dotaccent" unicode="&#x2d9;" horiz-adv-x="143" 
d="M30 648h83v-83h-83v83z" />
    <glyph glyph-name="ring" unicode="&#x2da;" horiz-adv-x="235" 
d="M55 542.5q-25 25.5 -25 62.5t25 62.5t63 25.5q37 0 62 -26t25 -62t-25 -62t-62 -26q-38 0 -63 25.5zM143 580q10 10 10 25t-10 25t-25 10t-25 -10t-10 -25t10 -25t25 -10t25 10z" />
    <glyph glyph-name="ogonek" unicode="&#x2db;" horiz-adv-x="222" 
d="M63 -167q-33 25 -33 75q0 48 30.5 78t70.5 40l40 -26q-35 -14 -54 -32.5t-19 -46.5q0 -52 67 -52h27v-61h-44q-52 0 -85 25z" />
    <glyph glyph-name="tilde" unicode="&#x2dc;" horiz-adv-x="419" 
d="M65.5 649q31.5 28 77.5 28q24 0 41.5 -7t41.5 -21q17 -10 27.5 -14.5t22.5 -4.5q21 0 32.5 13.5t11.5 33.5h69q-4 -56 -35.5 -84t-76.5 -28q-24 0 -40.5 6.5t-42.5 20.5q-16 10 -27 15t-24 5q-21 0 -32 -13.5t-11 -33.5h-70q4 56 35.5 84z" />
    <glyph glyph-name="hungarumlaut" unicode="&#x2dd;" horiz-adv-x="418" 
d="M142 705h93l-126 -154h-79zM295 705h93l-126 -154h-79z" />
    <glyph glyph-name="gravecomb" unicode="&#x300;" 
d="M-207 705h95l112 -154h-80z" />
    <glyph glyph-name="acutecomb" unicode="&#x301;" 
d="M-95 705h95l-127 -154h-80z" />
    <glyph glyph-name="uni0302" unicode="&#x302;" 
d="M-196 689h60l136 -140h-83l-77 77h-11l-77 -77h-84z" />
    <glyph glyph-name="tildecomb" unicode="&#x303;" 
d="M-323.5 649q31.5 28 77.5 28q24 0 41.5 -7t41.5 -21q17 -10 27.5 -14.5t22.5 -4.5q21 0 32.5 13.5t11.5 33.5h69q-4 -56 -35.5 -84t-76.5 -28q-24 0 -40.5 6.5t-42.5 20.5q-16 10 -27 15t-24 5q-21 0 -32 -13.5t-11 -33.5h-70q4 56 35.5 84z" />
    <glyph glyph-name="uni0304" unicode="&#x304;" 
d="M-315 659h315v-62h-315v62z" />
    <glyph glyph-name="uni0306" unicode="&#x306;" 
d="M-280.5 581q-43.5 42 -45.5 106h69q2 -36 26.5 -60t67.5 -24t67.5 24t26.5 60h69q-2 -63 -45.5 -105.5t-117.5 -42.5t-117.5 42z" />
    <glyph glyph-name="uni0307" unicode="&#x307;" 
d="M-83 670h83v-83h-83v83z" />
    <glyph glyph-name="uni0308" unicode="&#x308;" 
d="M-270 670h83v-83h-83v83zM-83 670h83v-83h-83v83z" />
    <glyph glyph-name="uni030A" unicode="&#x30a;" 
d="M-150 554.5q-25 25.5 -25 62.5t25 62.5t63 25.5q37 0 62 -25.5t25 -62.5q0 -36 -25 -62t-62 -26q-38 0 -63 25.5zM-62 592q10 10 10 25t-10 25t-25 10t-25 -10t-10 -25t10 -25t25 -9q15 -1 25 9z" />
    <glyph glyph-name="uni030B" unicode="&#x30b;" 
d="M-240 705h93l-127 -154h-78zM-88 705h94l-127 -154h-79z" />
    <glyph glyph-name="uni030C" unicode="&#x30c;" 
d="M-332 689h84l77 -77h11l77 77h83l-136 -140h-60z" />
    <glyph glyph-name="uni0312" unicode="&#x312;" 
d="M-1 659h-14q-21 0 -21 -20v-17h36v-79h-83v98q0 31 18 45.5t44 14.5h20v-42z" />
    <glyph glyph-name="uni0326" unicode="&#x326;" 
d="M-82 -166h14q20 0 20 20v17h-35v79h83v-98q0 -31 -18 -45.5t-45 -14.5h-19v42z" />
    <glyph glyph-name="uni0327" unicode="&#x327;" 
d="M-148 -147h53q12 0 19 6.5t7 17.5q0 12 -7 18.5t-19 6.5h-43l9 112h67l-9 -59q34 -1 52.5 -24t18.5 -54q0 -34 -22 -58t-63 -24h-63v58z" />
    <glyph glyph-name="uni0328" unicode="&#x328;" 
d="M-129 -167q-33 25 -33 75q0 48 30.5 78t70.5 40l40 -26q-35 -14 -54 -32.5t-19 -46.5q0 -52 67 -52h27v-61h-44q-52 0 -85 25z" />
    <glyph glyph-name="pi" unicode="&#x3c0;" horiz-adv-x="554" 
d="M101 416h-93v66h538v-66h-93v-416h-74v416h-204v-416h-74v416z" />
    <glyph glyph-name="uni0400" unicode="&#x400;" horiz-adv-x="569" 
d="M134 634v-249h365v-67h-365v-252h385v-66h-459v700h459v-66h-385zM136 923h95l112 -154h-80z" />
    <glyph glyph-name="uni0401" unicode="&#x401;" horiz-adv-x="569" 
d="M134 634v-249h365v-67h-365v-252h385v-66h-459v700h459v-66h-385zM158 857h83v-83h-83v83zM345 857h83v-83h-83v83z" />
    <glyph glyph-name="uni0402" unicode="&#x402;" horiz-adv-x="796" 
d="M310 0h-74v634h-200v66h537v-66h-263v-242h10q34 19 87 33.5t109 14.5q108 0 169 -51t61 -161q0 -113 -57 -170.5t-154 -57.5h-22v69h19q66 0 103 40.5t37 118.5q0 144 -169 144q-52 0 -105.5 -15.5t-87.5 -39.5v-317z" />
    <glyph glyph-name="uni0403" unicode="&#x403;" horiz-adv-x="500" 
d="M60 700h404v-66h-330v-634h-74v700zM325 923h95l-127 -154h-80z" />
    <glyph glyph-name="uni0404" unicode="&#x404;" horiz-adv-x="747" 
d="M547.5 112.5q61.5 52.5 79.5 129.5h74q-14 -85 -61 -142t-113 -84.5t-140 -27.5q-90 0 -167.5 43.5t-124 125.5t-46.5 193t46.5 193t124 125.5t167.5 43.5q74 0 140 -27.5t113 -84.5t61 -142h-75q-17 77 -78.5 129.5t-160.5 52.5q-73 0 -130 -34.5t-90.5 -93.5
t-40.5 -129h386v-66h-386q7 -70 40.5 -129t90.5 -93.5t130 -34.5q99 0 160.5 52.5z" />
    <glyph glyph-name="uni0405" unicode="&#x405;" horiz-adv-x="625" 
d="M173 16.5q-61 28.5 -94 78.5t-37 115h75q8 -64 58 -107t144 -43q93 0 138 41t45 100q0 112 -137 122l-94 8q-92 6 -150.5 51.5t-58.5 127.5q0 63 33 108.5t89 69.5t124 24q111 0 176 -52.5t76 -149.5h-76q-8 59 -50.5 94.5t-125.5 35.5t-126.5 -34.5t-43.5 -90.5
q0 -52 41.5 -79.5t115.5 -33.5l82 -6q200 -16 200 -191q0 -63 -33.5 -112.5t-92.5 -77t-132 -27.5q-85 0 -146 28.5z" />
    <glyph glyph-name="uni0406" unicode="&#x406;" horiz-adv-x="194" 
d="M60 700h74v-700h-74v700z" />
    <glyph glyph-name="uni0407" unicode="&#x407;" horiz-adv-x="194" 
d="M-12 857h72v-83h-72v83zM134 857h71v-83h-71v83zM60 700h74v-700h-74v700z" />
    <glyph glyph-name="uni0408" unicode="&#x408;" horiz-adv-x="519" 
d="M137.5 14q-47.5 26 -74 72t-26.5 102h74q0 -28 15 -57.5t46 -49.5t76 -20q68 0 102.5 42.5t34.5 107.5v489h74v-489q0 -103 -57.5 -163t-154.5 -60q-62 0 -109.5 26z" />
    <glyph glyph-name="uni0409" unicode="&#x409;" horiz-adv-x="1054" 
d="M19 72h20q46 0 71 26t36.5 92t14.5 191l7 319h424v-278h204q99 0 157 -54.5t58 -147.5q0 -63 -26.5 -113t-75 -78.5t-113.5 -28.5h-278v634h-280l-6 -256q-4 -152 -21 -232t-56 -113.5t-111 -33.5h-25v73zM791 66q73 0 108.5 45t35.5 109q0 62 -35 99t-109 37h-199v-290
h199z" />
    <glyph glyph-name="uni040A" unicode="&#x40a;" horiz-adv-x="1043" 
d="M60 700h74v-300h373v300h74v-299h204q100 0 157.5 -51.5t57.5 -143.5q0 -95 -58 -150.5t-157 -55.5h-278v333h-373v-333h-74v700zM780 66q74 0 109.5 39t35.5 101q0 60 -35 94.5t-110 34.5h-199v-269h199z" />
    <glyph glyph-name="uni040B" unicode="&#x40b;" horiz-adv-x="798" 
d="M310 0h-74v634h-200v66h537v-66h-263v-242h10q34 19 86.5 33.5t106.5 14.5q104 0 168.5 -48.5t64.5 -143.5v-248h-74v235q0 71 -47 104t-123 33q-51 0 -104.5 -15.5t-87.5 -39.5v-317z" />
    <glyph glyph-name="uni040C" unicode="&#x40c;" horiz-adv-x="557" 
d="M60 700h74v-318l295 318h98l-305 -324v-11l326 -365h-100l-314 356v-356h-74v700zM326 923h95l-127 -154h-80z" />
    <glyph glyph-name="uni040D" unicode="&#x40d;" horiz-adv-x="655" 
d="M60 700h74v-579h11l15 26q18 32 30 50l320 503h85v-700h-74v579h-11q-5 -7 -8.5 -14t-6.5 -12q-13 -23 -30 -50l-320 -503h-85v700zM172 923h95l112 -154h-80z" />
    <glyph glyph-name="uni040E" unicode="&#x40e;" horiz-adv-x="640" 
d="M621 700l-371 -700h-82l123 233l-250 467h83l190 -357q11 -19 14 -29h12q3 8 15 29l186 357h80zM209 796.5q-45 39.5 -47 109.5h69q2 -41 29.5 -66t72.5 -25t72 25t29 66h70q-3 -70 -47.5 -109.5t-123.5 -39.5t-124 39.5z" />
    <glyph glyph-name="uni040F" unicode="&#x40f;" horiz-adv-x="643" 
d="M60 700h74v-634h376v634h73v-700h-227v-142h-69v142h-227v700z" />
    <glyph glyph-name="uni0410" unicode="&#x410;" horiz-adv-x="684" 
d="M501 185h-318l-64 -185h-78l250 700h102l251 -700h-79zM478 251l-130 372h-12l-130 -372h272z" />
    <glyph glyph-name="uni0411" unicode="&#x411;" horiz-adv-x="606" 
d="M60 700h446v-66h-372v-230h205q103 0 160 -51.5t57 -143.5q0 -95 -59.5 -152t-158.5 -57h-278v700zM340 66q65 0 103 41.5t38 100.5q0 58 -37.5 94.5t-103.5 36.5h-206v-273h206z" />
    <glyph glyph-name="uni0412" unicode="&#x412;" horiz-adv-x="638" 
d="M60 700h266q97 0 153 -49t56 -137q0 -40 -20 -76.5t-54 -55.5v-12q58 -17 92 -61.5t34 -112.5q0 -94 -57 -145t-157 -51h-313v700zM326 390q63 0 98 34.5t35 87.5t-35 87.5t-98 34.5h-192v-244h192zM375 66q66 0 101 35.5t35 94.5t-35 94.5t-101 35.5h-241v-260h241z" />
    <glyph glyph-name="uni0413" unicode="&#x413;" horiz-adv-x="500" 
d="M60 700h404v-66h-330v-634h-74v700z" />
    <glyph glyph-name="uni0414" unicode="&#x414;" horiz-adv-x="682" 
d="M5 66h74q39 56 57.5 139.5t22.5 225.5l6 269h418v-634h89v-208h-69v142h-529v-142h-69v208zM509 66v568h-276l-5 -212q-7 -255 -68 -356h349z" />
    <glyph glyph-name="uni0415" unicode="&#x415;" horiz-adv-x="569" 
d="M134 634v-249h365v-67h-365v-252h385v-66h-459v700h459v-66h-385z" />
    <glyph glyph-name="uni0416" unicode="&#x416;" horiz-adv-x="902" 
d="M286 365v11l-266 324h90l245 -297h59v297h74v-296h59l245 296h90l-266 -324v-11l277 -365h-91l-255 337h-59v-337h-74v336h-59l-255 -336h-91z" />
    <glyph glyph-name="uni0417" unicode="&#x417;" horiz-adv-x="636" 
d="M123 50q-70 62 -80 170h76q12 -72 60 -116t140 -44q88 0 139 37t51 106q0 56 -35.5 89t-104.5 33h-130v66h129q66 0 100 34t34 91q0 56 -46 90t-129 34t-132.5 -37.5t-67.5 -105.5h-76q18 101 92 158t184 57q120 0 185.5 -52.5t65.5 -140.5q0 -58 -29.5 -96.5
t-73.5 -54.5v-12q46 -12 77.5 -52.5t31.5 -101.5q0 -62 -31.5 -110.5t-91.5 -76t-142 -27.5q-126 0 -196 62z" />
    <glyph glyph-name="uni0418" unicode="&#x418;" horiz-adv-x="655" 
d="M60 700h74v-579h11l15 26q18 32 30 50l320 503h85v-700h-74v579h-11q-5 -7 -8.5 -14t-6.5 -12q-13 -23 -30 -50l-320 -503h-85v700z" />
    <glyph glyph-name="uni0419" unicode="&#x419;" horiz-adv-x="655" 
d="M60 700h74v-579h11l15 26q18 32 30 50l320 503h85v-700h-74v579h-11q-5 -7 -8.5 -14t-6.5 -12q-13 -23 -30 -50l-320 -503h-85v700zM204 796.5q-45 39.5 -47 109.5h69q2 -41 29.5 -66t72.5 -25t72 25t29 66h70q-3 -70 -47.5 -109.5t-123.5 -39.5t-124 39.5z" />
    <glyph glyph-name="uni041A" unicode="&#x41a;" horiz-adv-x="557" 
d="M60 700h74v-318l295 318h98l-305 -324v-11l326 -365h-100l-314 356v-356h-74v700z" />
    <glyph glyph-name="uni041B" unicode="&#x41b;" horiz-adv-x="657" 
d="M19 72h20q46 0 71 26t36.5 92t14.5 191l7 319h429v-700h-74v634h-285l-6 -256q-4 -152 -21 -232t-56 -113.5t-111 -33.5h-25v73z" />
    <glyph glyph-name="uni041C" unicode="&#x41c;" horiz-adv-x="805" 
d="M60 700h105l231 -596h13l231 596h105v-700h-73v561h-12q-15 -47 -24 -70l-189 -491h-89l-189 491q-9 23 -24 70h-11v-561h-74v700z" />
    <glyph glyph-name="uni041D" unicode="&#x41d;" horiz-adv-x="646" 
d="M586 700v-700h-73v317h-379v-317h-74v700h74v-317h379v317h73z" />
    <glyph glyph-name="uni041E" unicode="&#x41e;" horiz-adv-x="769" 
d="M215 31q-78 43 -124.5 125t-46.5 194t46.5 194t124.5 125t170 43t169.5 -43t124 -125t46.5 -194t-46.5 -194t-124 -125t-169.5 -43t-170 43zM519.5 95.5q60.5 34.5 95.5 100t35 154.5t-35 154.5t-95.5 100t-134.5 34.5t-134.5 -34.5t-95.5 -100t-35 -154.5t35 -154.5
t95.5 -100t134.5 -34.5t134.5 34.5z" />
    <glyph glyph-name="uni041F" unicode="&#x41f;" horiz-adv-x="644" 
d="M60 700h524v-700h-73v634h-377v-634h-74v700z" />
    <glyph glyph-name="uni0420" unicode="&#x420;" horiz-adv-x="607" 
d="M498.5 644.5q58.5 -55.5 58.5 -148.5t-58.5 -149t-157.5 -56h-207v-291h-74v700h281q99 0 157.5 -55.5zM445.5 396.5q35.5 38.5 35.5 99.5t-35.5 99.5t-108.5 38.5h-203v-276h203q73 0 108.5 38.5z" />
    <glyph glyph-name="uni0421" unicode="&#x421;" horiz-adv-x="747" 
d="M219.5 31.5q-77.5 43.5 -124 125.5t-46.5 193t46.5 193t124 125.5t167.5 43.5q74 0 140 -27.5t113 -84.5t61 -142h-75q-17 76 -78 128.5t-161 52.5q-79 0 -138.5 -40t-91.5 -106t-32 -143t32 -143t91.5 -106t138.5 -40q99 0 160.5 52t79.5 129h74q-14 -85 -61 -142
t-113 -84.5t-140 -27.5q-90 0 -167.5 43.5z" />
    <glyph glyph-name="uni0422" unicode="&#x422;" horiz-adv-x="589" 
d="M258 634h-222v66h517v-66h-222v-634h-73v634z" />
    <glyph glyph-name="uni0423" unicode="&#x423;" horiz-adv-x="640" 
d="M621 700l-371 -700h-82l123 233l-250 467h83l190 -357q11 -19 14 -29h12q3 8 15 29l186 357h80z" />
    <glyph glyph-name="uni0424" unicode="&#x424;" horiz-adv-x="840" 
d="M650 595q74 -36 110 -98.5t36 -144.5t-36 -145.5t-110 -100.5t-185 -37h-8v-84h-74v84h-7q-111 0 -185.5 37t-110.5 100.5t-36 145.5q0 126 83.5 202.5t248.5 76.5h7v84h74v-84h8q111 0 185 -36zM383 135v429h-9q-130 0 -192 -55.5t-62 -156.5q0 -102 62.5 -159.5
t191.5 -57.5h9zM658 192.5q62 57.5 62 159.5q0 101 -62 156.5t-191 55.5h-10v-429h10q129 0 191 57.5z" />
    <glyph glyph-name="uni0425" unicode="&#x425;" horiz-adv-x="561" 
d="M239 355l-212 345h84l152 -253q9 -17 12 -23h11q3 6 12 23l151 253h85l-212 -345l219 -355h-85l-158 263q-8 12 -12 22h-11q-4 -10 -12 -22l-158 -263h-85z" />
    <glyph glyph-name="uni0426" unicode="&#x426;" horiz-adv-x="682" 
d="M61 700h73v-634h374v634h74v-634h90v-208h-69v142h-542v700z" />
    <glyph glyph-name="uni0427" unicode="&#x427;" horiz-adv-x="607" 
d="M474 700h73v-700h-73v304h-10q-27 -22 -75.5 -36t-102.5 -14q-108 0 -174.5 50t-66.5 154v242h74v-235q0 -73 47.5 -107t127.5 -34q118 0 180 61v315z" />
    <glyph glyph-name="uni0428" unicode="&#x428;" horiz-adv-x="929" 
d="M60 700h74v-634h294v634h73v-634h295v634h73v-700h-809v700z" />
    <glyph glyph-name="uni0429" unicode="&#x429;" horiz-adv-x="969" 
d="M60 700h74v-634h294v634h73v-634h295v634h73v-634h90v-208h-69v142h-830v700z" />
    <glyph glyph-name="uni042A" unicode="&#x42a;" horiz-adv-x="782" 
d="M36 700h278v-278h210q99 0 157 -54.5t58 -147.5q0 -63 -26.5 -113t-75 -78.5t-113.5 -28.5h-283v634h-205v66zM519 66q73 0 108.5 45t35.5 109q0 62 -35 99t-109 37h-205v-290h205z" />
    <glyph glyph-name="uni042B" unicode="&#x42b;" horiz-adv-x="765" 
d="M60 700h74v-278h209q99 0 157 -54.5t58 -147.5q0 -63 -26.5 -113t-75 -78.5t-113.5 -28.5h-283v700zM631 700h74v-700h-74v700zM338 66q73 0 108.5 45t35.5 109q0 62 -35 99t-109 37h-204v-290h204z" />
    <glyph glyph-name="uni042C" unicode="&#x42c;" horiz-adv-x="601" 
d="M60 700h74v-278h209q99 0 157 -54.5t58 -147.5q0 -63 -26.5 -113t-75 -78.5t-113.5 -28.5h-283v700zM338 66q73 0 108.5 45t35.5 109q0 62 -35 99t-109 37h-204v-290h204z" />
    <glyph glyph-name="uni042D" unicode="&#x42d;" horiz-adv-x="742" 
d="M532 668.5q76 -43.5 121 -125.5t45 -193q0 -110 -45 -192.5t-121 -126t-166 -43.5q-76 0 -143.5 28t-115 85t-62.5 141h76q11 -49 43.5 -90t84 -66.5t117.5 -25.5q73 0 128.5 34.5t88 93t39.5 129.5h-370v66h370q-7 71 -39 129.5t-88 93t-130 34.5q-65 0 -116.5 -25.5
t-84 -67t-44.5 -89.5h-75q15 84 63.5 141.5t115.5 85t141 27.5q91 0 167 -43.5z" />
    <glyph glyph-name="uni042E" unicode="&#x42e;" horiz-adv-x="996" 
d="M60 700h74v-317h138q7 102 54.5 176.5t122 113.5t162.5 39q92 0 169.5 -43t124 -125t46.5 -194t-46.5 -194t-124 -125t-169.5 -43q-88 0 -162.5 39t-122 113.5t-54.5 176.5h-138v-317h-74v700zM381 195.5q35 -65.5 95.5 -100t134.5 -34.5t134.5 34.5t95.5 100t35 154.5
t-35 154.5t-95.5 100t-134.5 34.5t-134.5 -34.5t-95.5 -100t-35 -154.5t35 -154.5z" />
    <glyph glyph-name="uni042F" unicode="&#x42f;" horiz-adv-x="592" 
d="M346 300v11h-85q-97 2 -153 53t-56 141q0 92 58 143.5t158 51.5h264v-700h-74v310h-11l-292 -310h-96zM458 376v258h-186q-74 0 -109 -35t-35 -94t35 -94t109 -35h186z" />
    <glyph glyph-name="uni0430" unicode="&#x430;" horiz-adv-x="507" 
d="M401.5 453q50.5 -41 50.5 -125v-328h-73v51h-11q-25 -27 -67.5 -45t-88.5 -18q-86 0 -130.5 40.5t-44.5 105.5q0 70 44.5 109.5t126.5 39.5h171v41q0 46 -29.5 73t-90.5 27q-58 0 -90 -24.5t-37 -68.5h-75q8 75 62 119t142 44q90 0 140.5 -41zM379 138v83h-168
q-49 0 -73.5 -21t-24.5 -61q0 -42 29.5 -63t79.5 -21q96 0 157 83z" />
    <glyph glyph-name="uni0431" unicode="&#x431;" horiz-adv-x="589" 
d="M171.5 19q-55.5 31 -86.5 91t-31 143v105q0 140 51 217t165 89l124 13q20 2 29.5 10t11.5 23l2 16h75l-2 -26q-4 -45 -28.5 -66t-77.5 -26l-126 -14q-79 -8 -116.5 -61t-37.5 -149h11q29 42 74.5 65t105.5 23q65 0 118 -31t84 -85.5t31 -122.5q0 -69 -31.5 -124.5
t-87.5 -88t-128 -32.5q-74 0 -129.5 31zM386 78.5q39 19.5 63 59t24 95.5t-24 95t-63 58t-85 19q-45 0 -84 -20t-63.5 -59t-24.5 -93q0 -56 24 -95.5t63.5 -59t84.5 -19.5q46 0 85 19.5z" />
    <glyph glyph-name="uni0432" unicode="&#x432;" horiz-adv-x="489" 
d="M57 482h230q68 0 107 -34.5t39 -87.5q0 -34 -16.5 -58.5t-46.5 -37.5v-11q35 -10 58 -40t23 -69q0 -66 -44 -105t-123 -39h-227v482zM280 278q41 0 61 21t20 52q0 29 -19.5 48t-53.5 19h-160v-140h152zM285 64q46 0 69.5 21.5t23.5 58.5q0 34 -24 53.5t-68 19.5h-158
v-153h157z" />
    <glyph glyph-name="uni0433" unicode="&#x433;" horiz-adv-x="387" 
d="M57 482h305v-69h-232v-413h-73v482z" />
    <glyph glyph-name="uni0434" unicode="&#x434;" horiz-adv-x="540" 
d="M5 69h59q29 44 44 100.5t16 146.5l3 166h332v-413h73v-187h-69v118h-389v-118h-69v187zM386 69v344h-190l-3 -105q-3 -89 -15.5 -143t-34.5 -96h243z" />
    <glyph glyph-name="uni0435" unicode="&#x435;" horiz-adv-x="540" 
d="M151.5 20.5q-53.5 32.5 -82 89.5t-28.5 129t28 130t81.5 91.5t125.5 33.5q66 0 116.5 -28.5t78.5 -78t28 -112.5v-56h-384q6 -78 49.5 -119.5t112.5 -41.5q105 0 141 93h74q-19 -75 -74.5 -119t-140.5 -44q-72 0 -125.5 32.5zM426 282q1 60 -38.5 101.5t-111.5 41.5
q-64 0 -107.5 -37.5t-51.5 -105.5h309z" />
    <glyph glyph-name="uni0436" unicode="&#x436;" horiz-adv-x="720" 
d="M231 250v11l-207 221h92l181 -195h27v195h73v-195h26l181 195h92l-207 -221v-11l217 -250h-95l-188 223h-26v-223h-73v223h-27l-188 -223h-95z" />
    <glyph glyph-name="uni0437" unicode="&#x437;" horiz-adv-x="484" 
d="M98.5 31.5q-54.5 43.5 -59.5 112.5h75q6 -39 40 -63t91 -24q59 0 92.5 23.5t33.5 65.5q0 36 -22.5 52.5t-71.5 16.5h-97v63h94q45 0 67 20t22 55t-28.5 53.5t-81.5 18.5q-56 0 -89 -24t-42 -63h-75q8 68 62.5 112t143.5 44q87 0 135.5 -36.5t48.5 -96.5q0 -35 -17.5 -61
t-48.5 -40v-11q74 -24 74 -108q0 -68 -53 -110.5t-147 -42.5q-92 0 -146.5 43.5z" />
    <glyph glyph-name="uni0438" unicode="&#x438;" horiz-adv-x="535" 
d="M57 482h73v-395h11l9.5 19t12.5 23l214 353h101v-482h-73v394h-10q-7 -15 -15 -29l-222 -365h-101v482z" />
    <glyph glyph-name="uni0439" unicode="&#x439;" horiz-adv-x="535" 
d="M57 482h73v-395h11l9.5 19t12.5 23l214 353h101v-482h-73v394h-10q-7 -15 -15 -29l-222 -365h-101v482zM152.5 577.5q-42.5 37.5 -44.5 108.5h70q4 -86 90 -86q41 0 64 21.5t25 64.5h70q-2 -71 -44.5 -108.5t-114.5 -37.5q-73 0 -115.5 37.5z" />
    <glyph glyph-name="uni043A" unicode="&#x43a;" horiz-adv-x="460" 
d="M351 0l-221 245v-245h-73v482h73v-215l214 215h92l-220 -221v-11l230 -250h-95z" />
    <glyph glyph-name="uni043B" unicode="&#x43b;" horiz-adv-x="512" 
d="M14 70h7q33 0 52.5 17.5t29.5 59t12 116.5l5 219h336v-482h-73v413h-194l-4 -150q-2 -97 -18 -154.5t-49.5 -83.5t-88.5 -26h-15v71z" />
    <glyph glyph-name="uni043C" unicode="&#x43c;" horiz-adv-x="665" 
d="M57 482h121l138 -367q2 -7 5 -15.5t6 -19.5h11l11 35l138 367h122v-482h-73v402h-11l-12 -38l-139 -364h-83l-139 364q-3 9 -5.5 18t-6.5 20h-10v-402h-73v482z" />
    <glyph glyph-name="uni043D" unicode="&#x43d;" horiz-adv-x="524" 
d="M57 482h73v-195h264v195h73v-482h-73v218h-264v-218h-73v482z" />
    <glyph glyph-name="uni043E" unicode="&#x43e;" horiz-adv-x="573" 
d="M158 22q-56 34 -86.5 91.5t-30.5 127.5t30.5 127.5t86.5 91.5t129 34t128.5 -34t86 -91.5t30.5 -127.5t-30.5 -127.5t-86 -91.5t-128.5 -34t-129 34zM371 80.5q39 21.5 62.5 62.5t23.5 98t-23.5 98t-62.5 62.5t-84 21.5t-84 -21.5t-63 -62.5t-24 -98t24 -98t63 -62.5
t84 -21.5t84 21.5z" />
    <glyph glyph-name="uni043F" unicode="&#x43f;" horiz-adv-x="522" 
d="M57 482h408v-482h-73v413h-262v-413h-73v482z" />
    <glyph glyph-name="uni0440" unicode="&#x440;" horiz-adv-x="567" 
d="M56 482h73v-69h11q28 40 72.5 60.5t92.5 20.5q55 0 105.5 -27.5t83 -84.5t32.5 -140q0 -84 -33 -141.5t-85.5 -85t-110.5 -27.5q-49 0 -93.5 19t-74.5 58v-285h-73v702zM368 79q37 20 60.5 61t23.5 101t-23.5 101t-60.5 61t-79 20q-43 0 -79.5 -20t-58.5 -61t-22 -101
t22 -101t58.5 -61t79.5 -20q42 0 79 20z" />
    <glyph glyph-name="uni0441" unicode="&#x441;" horiz-adv-x="533" 
d="M155 20.5q-54 32.5 -84 90t-30 130.5t30 130.5t84 90t124 32.5q84 0 141 -45t71 -121h-73q-13 43 -48.5 69.5t-90.5 26.5q-73 0 -119 -49t-46 -134q0 -87 47 -135t118 -48q55 0 90.5 26.5t48.5 69.5h73q-14 -76 -71 -121t-141 -45q-70 0 -124 32.5z" />
    <glyph glyph-name="uni0442" unicode="&#x442;" horiz-adv-x="478" 
d="M25 482h428v-69h-178v-413h-73v413h-177v69z" />
    <glyph glyph-name="uni0443" unicode="&#x443;" horiz-adv-x="504" 
d="M213 62l-196 420h83l133 -291l14 -32h11l13 32l135 291h82l-324 -702h-83z" />
    <glyph glyph-name="uni0444" unicode="&#x444;" horiz-adv-x="711" 
d="M636.5 111.5q-33.5 -57.5 -96.5 -90.5t-148 -33v-208h-73v208q-85 1 -148 34t-96.5 90t-33.5 129t33.5 129t96.5 90t148 34v226h73v-226q85 -1 148 -34t96.5 -90t33.5 -129t-33.5 -129.5zM539 107q56 48 56 134t-56 134t-147 49v-366q91 1 147 49zM172.5 108
q56.5 -48 146.5 -50v366q-90 -2 -146.5 -50t-56.5 -133t56.5 -133z" />
    <glyph glyph-name="uni0445" unicode="&#x445;" horiz-adv-x="459" 
d="M187 241l-166 241h85l105 -155l13 -21h11l13 21l105 155h85l-166 -241l166 -241h-85l-105 155l-13 21h-11l-13 -21l-105 -155h-85z" />
    <glyph glyph-name="uni0446" unicode="&#x446;" horiz-adv-x="544" 
d="M57 482h73v-413h261v413h73v-413h72v-187h-68v118h-411v482z" />
    <glyph glyph-name="uni0447" unicode="&#x447;" horiz-adv-x="497" 
d="M46 482h73v-155q0 -53 31.5 -78t81.5 -25q44 0 80 16.5t55 42.5v199h73v-482h-73v208h-11q-19 -22 -52.5 -36.5t-81.5 -14.5q-73 0 -124.5 39.5t-51.5 124.5v161z" />
    <glyph glyph-name="uni0448" unicode="&#x448;" horiz-adv-x="736" 
d="M57 482h73v-413h201v413h73v-413h202v413h73v-482h-622v482z" />
    <glyph glyph-name="uni0449" unicode="&#x449;" horiz-adv-x="777" 
d="M57 482h73v-413h201v413h73v-413h202v413h73v-413h90v-187h-68v118h-644v482z" />
    <glyph glyph-name="uni044A" unicode="&#x44a;" horiz-adv-x="594" 
d="M25 482h235v-174h140q73 0 118 -40t45 -107q0 -74 -46.5 -117.5t-125.5 -43.5h-204v413h-162v69zM392 65q48 0 73 25.5t25 68.5q0 40 -24.5 62.5t-69.5 22.5h-136v-179h132z" />
    <glyph glyph-name="uni044B" unicode="&#x44b;" horiz-adv-x="620" 
d="M57 482h73v-174h140q73 0 117.5 -39.5t44.5 -107.5q0 -74 -46 -117.5t-125 -43.5h-204v482zM564 0h-73v482h73v-482zM262 65q48 0 73 25.5t25 68.5q0 40 -24.5 62.5t-69.5 22.5h-136v-179h132z" />
    <glyph glyph-name="uni044C" unicode="&#x44c;" horiz-adv-x="465" 
d="M57 482h73v-174h140q73 0 118 -40t45 -107q0 -74 -46.5 -117.5t-125.5 -43.5h-204v482zM262 65q48 0 73 25.5t25 68.5q0 40 -24.5 62.5t-69.5 22.5h-136v-179h132z" />
    <glyph glyph-name="uni044D" unicode="&#x44d;" horiz-adv-x="533" 
d="M384 462q52 -32 79.5 -89t27.5 -132q0 -73 -27.5 -130.5t-79.5 -90t-122 -32.5q-89 0 -148.5 44t-72.5 122h74q10 -43 49.5 -69.5t96.5 -26.5q68 0 109.5 42t47.5 117h-230v63h228q-9 70 -50.5 107t-103.5 37q-53 0 -93.5 -27t-53.5 -69h-74q18 76 79 121t142 45
q70 0 122 -32z" />
    <glyph glyph-name="uni044E" unicode="&#x44e;" horiz-adv-x="749" 
d="M57 482h73v-193h92q9 58 41 105t83.5 73.5t116.5 26.5q73 0 128.5 -34t86 -91.5t30.5 -127.5t-30.5 -127.5t-86 -91.5t-128.5 -34q-70 0 -124 30.5t-85 83.5t-36 118h-88v-220h-73v482zM316 143q24 -41 63 -62.5t84 -21.5t84 21.5t62.5 62.5t23.5 98t-23.5 98t-62.5 62.5
t-84 21.5t-84 -21.5t-63 -62.5t-24 -98t24 -98z" />
    <glyph glyph-name="uni044F" unicode="&#x44f;" horiz-adv-x="490" 
d="M85.5 225q-45.5 39 -45.5 105q0 68 48.5 110t124.5 42h220v-482h-73v183h-54l-171 -183h-92l165 171v13q-77 2 -122.5 41zM140 267.5q27 -22.5 74 -22.5h146v172h-146q-47 0 -74 -23.5t-27 -63.5t27 -62.5z" />
    <glyph glyph-name="uni0450" unicode="&#x450;" horiz-adv-x="540" 
d="M151.5 20.5q-53.5 32.5 -82 89.5t-28.5 129t28 130t81.5 91.5t125.5 33.5q66 0 116.5 -28.5t78.5 -78t28 -112.5v-56h-384q6 -78 49.5 -119.5t112.5 -41.5q105 0 141 93h74q-19 -75 -74.5 -119t-140.5 -44q-72 0 -125.5 32.5zM426 282q1 60 -38.5 101.5t-111.5 41.5
q-64 0 -107.5 -37.5t-51.5 -105.5h309zM114 705h95l112 -154h-80z" />
    <glyph glyph-name="uni0451" unicode="&#x451;" horiz-adv-x="540" 
d="M151.5 20.5q-53.5 32.5 -82 89.5t-28.5 129t28 130t81.5 91.5t125.5 33.5q66 0 116.5 -28.5t78.5 -78t28 -112.5v-56h-384q6 -78 49.5 -119.5t112.5 -41.5q105 0 141 93h74q-19 -75 -74.5 -119t-140.5 -44q-72 0 -125.5 32.5zM426 282q1 60 -38.5 101.5t-111.5 41.5
q-64 0 -107.5 -37.5t-51.5 -105.5h309zM136 670h83v-83h-83v83zM323 670h83v-83h-83v83z" />
    <glyph glyph-name="uni0452" unicode="&#x452;" horiz-adv-x="524" 
d="M418.5 446q50.5 -48 50.5 -138v-389q0 -68 -37 -103.5t-103 -35.5h-47v72h28q46 0 66 20.5t20 65.5v353q0 65 -36 97.5t-91 32.5q-67 0 -103.5 -43t-36.5 -107v-271h-73v561h-72v65h72v94h73v-94h178v-65h-178v-141h11q18 32 56.5 53t91.5 21q80 0 130.5 -48z" />
    <glyph glyph-name="uni0453" unicode="&#x453;" horiz-adv-x="387" 
d="M57 482h305v-69h-232v-413h-73v482zM274 705h95l-127 -154h-80z" />
    <glyph glyph-name="uni0454" unicode="&#x454;" horiz-adv-x="533" 
d="M367.5 84.5q39.5 26.5 49.5 69.5h74q-13 -78 -72.5 -122t-148.5 -44q-70 0 -122 32.5t-79.5 90t-27.5 130.5q0 75 27.5 132.5t79.5 89t123 31.5q81 0 142 -45t78 -121h-73q-13 42 -53.5 69t-93.5 27q-62 0 -104 -37t-51 -106h228v-64h-230q6 -75 48 -117t109 -42
q57 0 96.5 26.5z" />
    <glyph glyph-name="uni0455" unicode="&#x455;" horiz-adv-x="470" 
d="M91 31.5q-54 43.5 -59 112.5h75q6 -38 40.5 -62.5t90.5 -24.5q119 0 119 84q0 38 -23.5 52.5t-66.5 18.5l-70 6q-146 12 -146 129q0 67 50 107t131 40t128.5 -36.5t55.5 -104.5h-74q-5 34 -34 53t-75 19q-49 0 -79 -19.5t-30 -56.5q0 -32 24.5 -48t71.5 -19l61 -5
q73 -5 111 -36t38 -99q0 -69 -50.5 -111.5t-142.5 -42.5t-146 43.5z" />
    <glyph glyph-name="uni0456" unicode="&#x456;" horiz-adv-x="188" 
d="M53 670h83v-83h-83v83zM58 482h73v-482h-73v482z" />
    <glyph glyph-name="uni0457" unicode="&#x457;" horiz-adv-x="182" 
d="M-13 670h76v-83h-76v83zM119 670h76v-83h-76v83zM54 482h73v-482h-73v482z" />
    <glyph glyph-name="uni0458" unicode="&#x458;" horiz-adv-x="195" 
d="M59 670h83v-83h-83v83zM-51 -148h29q46 0 66 20.5t20 65.5v544h73v-563q0 -68 -37.5 -103.5t-102.5 -35.5h-48v72z" />
    <glyph glyph-name="uni0459" unicode="&#x459;" horiz-adv-x="781" 
d="M14 70h7q33 0 52.5 17.5t29.5 59t12 116.5l5 219h331v-174h135q73 0 118 -40t45 -107q0 -74 -46.5 -117.5t-125.5 -43.5h-199v413h-189l-4 -150q-2 -97 -18 -154.5t-49.5 -83.5t-88.5 -26h-15v71zM578 65q48 0 73 25.5t25 68.5q0 40 -24.5 62.5t-69.5 22.5h-131v-179h127
z" />
    <glyph glyph-name="uni045A" unicode="&#x45a;" horiz-adv-x="792" 
d="M57 482h73v-195h259v195h73v-184h134q73 0 118.5 -38t45.5 -105q0 -72 -47 -113.5t-127 -41.5h-197v218h-259v-218h-73v482zM587 65q49 0 74.5 24t25.5 65q0 38 -25 58t-70 20h-130v-167h125z" />
    <glyph glyph-name="uni045B" unicode="&#x45b;" horiz-adv-x="524" 
d="M418.5 446q50.5 -48 50.5 -138v-308h-73v291q0 65 -36 97.5t-91 32.5q-67 0 -103.5 -43t-36.5 -107v-271h-73v561h-72v65h72v94h73v-94h178v-65h-178v-141h11q18 32 56.5 53t91.5 21q80 0 130.5 -48z" />
    <glyph glyph-name="uni045C" unicode="&#x45c;" horiz-adv-x="460" 
d="M351 0l-221 245v-245h-73v482h73v-215l214 215h92l-220 -221v-11l230 -250h-95zM293 705h95l-127 -154h-80z" />
    <glyph glyph-name="uni045D" unicode="&#x45d;" horiz-adv-x="535" 
d="M57 482h73v-395h11l9.5 19t12.5 23l214 353h101v-482h-73v394h-10q-7 -15 -15 -29l-222 -365h-101v482zM111 705h95l112 -154h-80z" />
    <glyph glyph-name="uni045E" unicode="&#x45e;" horiz-adv-x="504" 
d="M213 62l-196 420h83l133 -291l14 -32h11l13 32l135 291h82l-324 -702h-83zM136.5 577.5q-42.5 37.5 -44.5 108.5h70q4 -86 90 -86q41 0 64 21.5t25 64.5h70q-2 -71 -44.5 -108.5t-114.5 -37.5q-73 0 -115.5 37.5z" />
    <glyph glyph-name="uni045F" unicode="&#x45f;" horiz-adv-x="522" 
d="M57 482h73v-413h262v413h73v-482h-169v-118h-69v118h-170v482z" />
    <glyph glyph-name="uni0490" unicode="&#x490;" horiz-adv-x="500" 
d="M60 700h335v142h69v-208h-330v-634h-74v700z" />
    <glyph glyph-name="uni0491" unicode="&#x491;" horiz-adv-x="388" 
d="M57 482h237v118h69v-187h-233v-413h-73v482z" />
    <glyph glyph-name="Wgrave" unicode="&#x1e80;" horiz-adv-x="973" 
d="M41 700h80l146 -571l5 -25h11q1 8 2.5 14.5t2.5 10.5l158 571h80l159 -571l5 -25h11q1 8 2.5 14.5t2.5 10.5l146 571h80l-187 -700h-101l-143 516q-6 24 -9 41h-11q-9 -37 -10 -41l-142 -516h-101zM333 923h95l112 -154h-80z" />
    <glyph glyph-name="wgrave" unicode="&#x1e81;" horiz-adv-x="711" 
d="M20 482h76l95 -354q2 -9 5 -20t6 -25h11l11 45l97 354h70l96 -354q2 -9 5 -20t6 -25h11l11 45l95 354h76l-137 -482h-99l-88 317l-6 21h-11l-6 -21l-88 -317h-99zM205 705h95l112 -154h-80z" />
    <glyph glyph-name="Wacute" unicode="&#x1e82;" horiz-adv-x="973" 
d="M41 700h80l146 -571l5 -25h11q1 8 2.5 14.5t2.5 10.5l158 571h80l159 -571l5 -25h11q1 8 2.5 14.5t2.5 10.5l146 571h80l-187 -700h-101l-143 516q-6 24 -9 41h-11q-9 -37 -10 -41l-142 -516h-101zM555 923h95l-127 -154h-80z" />
    <glyph glyph-name="wacute" unicode="&#x1e83;" horiz-adv-x="711" 
d="M20 482h76l95 -354q2 -9 5 -20t6 -25h11l11 45l97 354h70l96 -354q2 -9 5 -20t6 -25h11l11 45l95 354h76l-137 -482h-99l-88 317l-6 21h-11l-6 -21l-88 -317h-99zM412 705h95l-127 -154h-80z" />
    <glyph glyph-name="Wdieresis" unicode="&#x1e84;" horiz-adv-x="973" 
d="M41 700h80l146 -571l5 -25h11q1 8 2.5 14.5t2.5 10.5l158 571h80l159 -571l5 -25h11q1 8 2.5 14.5t2.5 10.5l146 571h80l-187 -700h-101l-143 516q-6 24 -9 41h-11q-9 -37 -10 -41l-142 -516h-101zM351 857h83v-83h-83v83zM538 857h83v-83h-83v83z" />
    <glyph glyph-name="wdieresis" unicode="&#x1e85;" horiz-adv-x="711" 
d="M20 482h76l95 -354q2 -9 5 -20t6 -25h11l11 45l97 354h70l96 -354q2 -9 5 -20t6 -25h11l11 45l95 354h76l-137 -482h-99l-88 317l-6 21h-11l-6 -21l-88 -317h-99zM221 670h83v-83h-83v83zM408 670h83v-83h-83v83z" />
    <glyph glyph-name="Ygrave" unicode="&#x1ef2;" horiz-adv-x="606" 
d="M340 271v-271h-74v271l-247 429h82l182 -318q10 -18 15 -29h11q5 11 15 29l181 318h83zM149 923h95l112 -154h-80z" />
    <glyph glyph-name="ygrave" unicode="&#x1ef3;" horiz-adv-x="504" 
d="M213 62l-196 420h83l133 -291l14 -32h11l13 32l135 291h82l-324 -702h-83zM98 705h95l112 -154h-80z" />
    <glyph glyph-name="endash" unicode="&#x2013;" horiz-adv-x="597" 
d="M49 334h500v-68h-500v68z" />
    <glyph glyph-name="emdash" unicode="&#x2014;" horiz-adv-x="758" 
d="M49 334h661v-68h-661v68z" />
    <glyph glyph-name="quoteleft" unicode="&#x2018;" horiz-adv-x="183" 
d="M132 656h-14q-21 0 -21 -20v-16h36v-83h-83v102q0 31 18 46t44 15h20v-44z" />
    <glyph glyph-name="quoteright" unicode="&#x2019;" horiz-adv-x="183" 
d="M51 581h14q20 0 20 19v17h-35v83h83v-103q0 -31 -18 -45.5t-45 -14.5h-19v44z" />
    <glyph glyph-name="quotesinglbase" unicode="&#x201a;" horiz-adv-x="183" 
d="M51 -36h14q20 0 20 19v17h-35v83h83v-103q0 -31 -18 -45.5t-45 -14.5h-19v44z" />
    <glyph glyph-name="quotedblleft" unicode="&#x201c;" horiz-adv-x="307" 
d="M132 656h-14q-21 0 -21 -20v-16h36v-83h-83v102q0 31 18 46t44 15h20v-44zM256 656h-14q-21 0 -21 -20v-16h36v-83h-83v102q0 31 18 46t44 15h20v-44z" />
    <glyph glyph-name="quotedblright" unicode="&#x201d;" horiz-adv-x="307" 
d="M51 581h14q20 0 20 19v17h-35v83h83v-103q0 -31 -18 -45.5t-45 -14.5h-19v44zM175 581h14q20 0 20 19v17h-35v83h83v-103q0 -31 -18 -45.5t-45 -14.5h-19v44z" />
    <glyph glyph-name="quotedblbase" unicode="&#x201e;" horiz-adv-x="307" 
d="M51 -36h14q20 0 20 19v17h-35v83h83v-103q0 -31 -18 -45.5t-45 -14.5h-19v44zM175 -36h14q20 0 20 19v17h-35v83h83v-103q0 -31 -18 -45.5t-45 -14.5h-19v44z" />
    <glyph glyph-name="dagger" unicode="&#x2020;" horiz-adv-x="333" 
d="M293 541h-97v-241h-66v241h-90v59h90v100h66v-100h97v-59z" />
    <glyph glyph-name="daggerdbl" unicode="&#x2021;" horiz-adv-x="331" 
d="M130 400h-90v55h90v90h-90v55h90v100h64v-100h97v-55h-97v-90h97v-55h-97v-100h-64v100z" />
    <glyph glyph-name="bullet" unicode="&#x2022;" horiz-adv-x="230" 
d="M49 416h132v-132h-132v132z" />
    <glyph glyph-name="ellipsis" unicode="&#x2026;" horiz-adv-x="520" 
d="M219 83h83v-83h-83v83zM387 83h83v-83h-83v83zM50 83h83v-83h-83v83z" />
    <glyph glyph-name="perthousand" unicode="&#x2030;" horiz-adv-x="1177" 
d="M122 387q-38 23 -59.5 63t-21.5 88t21.5 88t59.5 63t86 23t86.5 -23t59.5 -63t21 -88t-21 -88t-59.5 -63t-86.5 -23t-86 23zM578 700h80l-430 -700h-80zM277 456q30 29 30 82t-30 82t-69 29t-68.5 -29t-29.5 -82t29.5 -82t68.5 -29t69 29zM516.5 11q-38.5 23 -59.5 63
t-21 88t21 88t59.5 63t86.5 23t86 -23t59 -63t21 -88t-21 -88t-59 -63t-86 -23t-86.5 23zM882.5 11q-38.5 23 -59.5 63t-21 88t21 88t59.5 63t86.5 23t86 -23t59 -63t21 -88t-21 -88t-59 -63t-86 -23t-86.5 23zM671 80q30 29 30 82t-30 82.5t-68 29.5q-40 0 -69.5 -29.5
t-29.5 -82.5t29.5 -82t69.5 -29q38 0 68 29zM1037 80q30 29 30 82t-30 82.5t-68 29.5q-40 0 -69.5 -29.5t-29.5 -82.5t29.5 -82t69.5 -29q38 0 68 29z" />
    <glyph glyph-name="guilsinglleft" unicode="&#x2039;" horiz-adv-x="315" 
d="M43 254v12l151 190h87l-152 -190v-12l152 -190h-87z" />
    <glyph glyph-name="guilsinglright" unicode="&#x203a;" horiz-adv-x="315" 
d="M34 64l152 190v12l-152 190h87l151 -190v-12l-151 -190h-87z" />
    <glyph glyph-name="fraction" unicode="&#x2044;" horiz-adv-x="68" 
d="M203 700h65l-403 -700h-65z" />
    <glyph glyph-name="uni2074" unicode="&#x2074;" horiz-adv-x="308" 
d="M181 459h-142v42l140 199h55v-190h44v-51h-44v-81h-53v81zM181 510v109h-8q-4 -15 -30 -51l-40 -58h78z" />
    <glyph glyph-name="Euro" unicode="&#x20ac;" horiz-adv-x="742" 
d="M552 99q49 40 70 106h75q-26 -108 -101 -162.5t-172 -54.5q-113 0 -194.5 69.5t-104.5 198.5h-95v62h88q-1 10 -1 32q0 27 1 40h-88v62h96q25 125 106 192.5t192 67.5q97 0 172 -54.5t101 -162.5h-75q-21 66 -70 106t-128 40q-87 0 -143 -51t-77 -138h230v-62h-240
q-2 -26 -2 -40q0 -21 1 -32h241v-62h-232q20 -90 76.5 -143.5t145.5 -53.5q79 0 128 40z" />
    <glyph glyph-name="uni20B4" unicode="&#x20b4;" horiz-adv-x="619" 
d="M459 393q-24 -13 -66 -29.5t-50 -19.5q-38 -14 -65 -26h294v-58h-387q-24 -32 -24 -72q0 -58 41.5 -94t112.5 -36q70 0 114 41t52 109h73q-8 -99 -70.5 -159.5t-168.5 -60.5q-71 0 -122.5 24.5t-78.5 68t-27 99.5q0 46 21 80h-60v58h111q33 20 152 64q9 4 16 6.5t12 4.5
h-291v58h389q29 34 29 80q0 49 -36 80t-101 31q-66 0 -108.5 -35.5t-50.5 -91.5h-73q10 91 73.5 144t158.5 53t153 -47.5t58 -126.5q0 -49 -26 -87h58v-58h-113z" />
    <glyph glyph-name="uni20B8" unicode="&#x20b8;" horiz-adv-x="589" 
d="M36 700h517v-64h-517v64zM258 498h-222v66h517v-66h-222v-498h-73v498z" />
    <glyph glyph-name="uni20BA" unicode="&#x20ba;" horiz-adv-x="568" 
d="M536 302q0 -101 -40 -168.5t-105.5 -100.5t-143.5 -33h-114v252l-105 -45v65l105 45v93l-105 -45v64l105 45v226h74v-195l137 58v-64l-137 -58v-93l137 58v-64l-137 -59v-217h35q101 0 160.5 58t64.5 178h69z" />
    <glyph glyph-name="uni20BD" unicode="&#x20bd;" horiz-adv-x="656" 
d="M223 297v-89h238v-62h-238v-146h-74v146h-121v62h121v89h-121v63h121v340h242q99 0 157 -55t58 -148q0 -92 -57.5 -146t-157.5 -54h-168zM223 360h164q73 0 108 38.5t35 98.5t-35 98.5t-108 38.5h-164v-274z" />
    <glyph glyph-name="uni2113" unicode="&#x2113;" horiz-adv-x="487" 
d="M302.5 73.5q21.5 16.5 36.5 45.5l59 -27q-21 -49 -60 -76.5t-84 -27.5q-116 0 -143 157q-42 -15 -76 -23l5 73q29 6 64 20q-1 13 -1 39q0 118 23.5 222.5t73.5 170t125 65.5q59 0 90.5 -39t31.5 -108q0 -120 -72 -222.5t-192 -165.5q7 -57 26.5 -88.5t50.5 -31.5
q21 0 42.5 16.5zM178 253q88 55 140.5 138t52.5 172q0 80 -50 80q-47 0 -79.5 -58.5t-48 -148t-15.5 -180.5v-3z" />
    <glyph glyph-name="uni2116" unicode="&#x2116;" horiz-adv-x="1026" 
d="M745 414q-35 21 -54 56.5t-19 78.5t19.5 79t54.5 57t80 21t79.5 -21t53.5 -57t19 -79t-19 -78.5t-53.5 -56.5t-79.5 -21q-46 0 -81 21zM60 700h95l328 -514q28 -44 41 -70h11v584h74v-700h-95l-324 507q-15 23 -45 76h-11v-583h-74v700zM890 477.5q27 26.5 27 71.5
t-27 71.5t-64 26.5q-39 0 -65.5 -26.5t-26.5 -71.5t27 -71.5t65 -26.5q37 0 64 26.5zM682 338h286v-59h-286v59z" />
    <glyph glyph-name="trademark" unicode="&#x2122;" horiz-adv-x="697" 
d="M133 649h-103v51h261v-51h-104v-296h-54v296zM328 700h69l101 -268l102 268h67v-347h-55v221h-3l-84 -221h-55l-82 221h-5v-221h-55v347z" />
    <glyph glyph-name="uni2126" unicode="&#x2126;" horiz-adv-x="715" 
d="M59 66h141v12q-71 62 -112.5 144.5t-41.5 167.5q0 105 44.5 177.5t116 108.5t151.5 36t151.5 -36t116 -108.5t44.5 -177.5q0 -85 -41.5 -167.5t-112.5 -144.5v-12h140v-66h-250v64q94 75 141 157t47 167q0 83 -33 139.5t-87 84t-116 27.5t-116 -27.5t-87.5 -84
t-33.5 -139.5q0 -85 47 -167t141 -157v-64h-250v66z" />
    <glyph glyph-name="estimated" unicode="&#x212e;" horiz-adv-x="748" 
d="M207.5 38.5q-77.5 50.5 -117.5 133.5t-40 176q0 96 38 179.5t113.5 134t183.5 50.5q92 0 163 -43.5t110.5 -125t39.5 -191.5h-516v-206q33 -49 91 -74t114 -25q90 0 147.5 40t93.5 122l50 -21q-33 -76 -99.5 -138t-188.5 -62q-105 0 -182.5 50.5zM569 411v161
q-28 41 -76.5 61t-107.5 20q-64 0 -116.5 -20t-86.5 -62v-160h387z" />
    <glyph glyph-name="partialdiff" unicode="&#x2202;" horiz-adv-x="540" 
d="M136.5 17q-46.5 28 -71 77.5t-24.5 111.5q0 68 29.5 123.5t82.5 87.5t120 32q94 0 143 -59h11q-8 101 -62.5 173t-150.5 102l31 53q128 -40 191 -141.5t63 -240.5q0 -111 -32 -189t-89 -118t-131 -40q-64 0 -110.5 28zM339.5 85q38.5 29 61 79.5t25.5 111.5v23
q-52 85 -145 85q-49 0 -88 -23.5t-60.5 -64.5t-21.5 -91q0 -70 40.5 -109.5t100.5 -39.5q49 0 87.5 29z" />
    <glyph glyph-name="uni2206" unicode="&#x2206;" horiz-adv-x="684" 
d="M291 700h102l251 -700h-603zM542 66l-194 557h-12l-194 -557h400z" />
    <glyph glyph-name="product" unicode="&#x220f;" horiz-adv-x="672" 
d="M142 634h-106v66h600v-66h-106v-734h-73v734h-241v-734h-74v734z" />
    <glyph glyph-name="summation" unicode="&#x2211;" horiz-adv-x="567" 
d="M60 -35l223 335l-223 335v65h457v-66h-365v-12l215 -322l-215 -322v-12h365v-66h-457v65z" />
    <glyph glyph-name="minus" unicode="&#x2212;" horiz-adv-x="496" 
d="M49 333h398v-66h-398v66z" />
    <glyph glyph-name="uni2215" unicode="&#x2215;" horiz-adv-x="442" 
d="M339 780h75l-311 -899h-75z" />
    <glyph glyph-name="uni2219" unicode="&#x2219;" horiz-adv-x="240" 
d="M50 378h143v-143h-143v143z" />
    <glyph glyph-name="radical" unicode="&#x221a;" horiz-adv-x="735" 
d="M30 311h76l121 -306h12l258 695h210v-66h-158l-275 -734h-79z" />
    <glyph glyph-name="infinity" unicode="&#x221e;" horiz-adv-x="580" 
d="M110 171q-31 16 -50 48.5t-19 80.5t19 80.5t50 48.5t65 16q31 0 60.5 -15t48.5 -45h12q19 30 48.5 45t60.5 15q34 0 65 -16t50 -48.5t19 -80.5t-19 -80.5t-50 -48.5t-65 -16q-31 0 -60.5 15t-48.5 45h-12q-19 -30 -48.5 -45t-60.5 -15q-34 0 -65 16zM235.5 238
q21.5 22 21.5 62t-21.5 62t-54.5 22q-34 0 -57.5 -22t-23.5 -62t23.5 -62t57.5 -22q33 0 54.5 22zM456.5 238q23.5 22 23.5 62t-23.5 62t-57.5 22q-33 0 -54.5 -22t-21.5 -62t21.5 -62t54.5 -22q34 0 57.5 22z" />
    <glyph glyph-name="integral" unicode="&#x222b;" horiz-adv-x="490" 
d="M27 -105h56q44 0 62.5 19.5t24.5 66.5l74 600q17 139 140 139h76v-66h-57q-44 0 -62.5 -20t-23.5 -67l-74 -600q-18 -139 -140 -139h-76v67z" />
    <glyph glyph-name="approxequal" unicode="&#x2248;" horiz-adv-x="575" 
d="M50 403q24 28 56.5 44t70.5 16q30 0 57 -10t67 -30q37 -19 59 -27.5t46 -8.5q32 0 60 17.5t59 50.5v-75q-24 -28 -57 -44t-70 -16q-31 0 -59 10.5t-66 30.5q-35 18 -57.5 26.5t-46.5 8.5q-32 0 -60.5 -17.5t-58.5 -50.5v75zM50 255q24 28 57 44t70 16q31 0 58.5 -10.5
t65.5 -30.5q37 -19 59 -27.5t46 -8.5q32 0 60 17.5t59 50.5v-75q-24 -28 -57 -44t-70 -16q-31 0 -59 10.5t-66 30.5q-37 19 -58.5 27.5t-45.5 8.5q-32 0 -60.5 -17.5t-58.5 -50.5v75z" />
    <glyph glyph-name="notequal" unicode="&#x2260;" horiz-adv-x="464" 
d="M307 366l-75 -132h182v-68h-221l-49 -85h-75l49 85h-68v68h107l76 132h-183v68h222l49 85h74l-49 -85h68v-68h-107z" />
    <glyph glyph-name="lessequal" unicode="&#x2264;" horiz-adv-x="504" 
d="M50 330v72l395 158v-76l-311 -112v-12l311 -113v-75zM50 103h395v-66h-395v66z" />
    <glyph glyph-name="greaterequal" unicode="&#x2265;" horiz-adv-x="504" 
d="M59 247l311 113v12l-311 112v76l395 -158v-72l-395 -158v75zM59 103h395v-66h-395v66z" />
    <glyph glyph-name="lozenge" unicode="&#x25ca;" horiz-adv-x="483" 
d="M41 350l152 350h97l152 -350l-152 -350h-97zM247 75l121 275l-121 275h-11l-121 -275l121 -275h11z" />
    <glyph glyph-name="uniF8FF" unicode="&#xf8ff;" horiz-adv-x="672" 
d="M46.5 6.5q-6.5 6.5 -6.5 15.5v595q0 7 4.5 13.5t11.5 8.5l270 78l10 2l10 -2l270 -78q7 -2 11.5 -8.5t4.5 -13.5v-595q0 -9 -6.5 -15.5t-15.5 -6.5l-7 1l-267 77l-267 -77l-7 -1q-9 0 -15.5 6.5zM314 669l-230 -67q4 -62 35 -114t82.5 -84.5t112.5 -37.5v303z
M470.5 403.5q51.5 32.5 82.5 84.5t35 114l-230 67v-303q61 5 112.5 37.5zM314 118v204q-73 6 -133.5 43.5t-97.5 97.5v-412zM589 463q-37 -60 -97.5 -97.5t-133.5 -43.5v-204l231 -67v412z" />
    <glyph glyph-name="fi" unicode="&#xfb01;" horiz-adv-x="556" 
d="M228.5 633q-20.5 -21 -20.5 -66v-85h296v-482h-73v416h-223v-417h-73v417h-108v66h108v99q0 68 37 103.5t102 35.5h230v-66h-210q-45 0 -65.5 -21z" />
    <glyph glyph-name="fl" unicode="&#xfb02;" horiz-adv-x="560" 
d="M504 0h-73v654h-137q-45 0 -65.5 -21t-20.5 -66v-85h139v-66h-139v-417h-73v417h-108v66h108v99q0 68 37 103.5t102 35.5h230v-720z" />
    <glyph glyph-name="NULL" 
 />
    <glyph glyph-name="A.ss02" horiz-adv-x="684" 
d="M565 0l-64 185h-234v66h211l-130 372h-12l-217 -623h-78l250 700h102l251 -700h-79z" />
    <glyph glyph-name="Aacute.ss02" horiz-adv-x="684" 
d="M565 0l-64 185h-234v66h211l-130 372h-12l-217 -623h-78l250 700h102l251 -700h-79zM404 923h95l-127 -154h-80z" />
    <glyph glyph-name="Abreve.ss02" horiz-adv-x="684" 
d="M565 0l-64 185h-234v66h211l-130 372h-12l-217 -623h-78l250 700h102l251 -700h-79zM224.5 799q-43.5 42 -45.5 106h69q2 -36 26.5 -60t67.5 -24t67.5 24t26.5 60h69q-2 -63 -45.5 -105.5t-117.5 -42.5t-117.5 42z" />
    <glyph glyph-name="Acircumflex.ss02" horiz-adv-x="684" 
d="M565 0l-64 185h-234v66h211l-130 372h-12l-217 -623h-78l250 700h102l251 -700h-79zM312 907h60l136 -140h-83l-77 77h-11l-77 -77h-84z" />
    <glyph glyph-name="Adieresis.ss02" horiz-adv-x="684" 
d="M565 0l-64 185h-234v66h211l-130 372h-12l-217 -623h-78l250 700h102l251 -700h-79zM207 857h83v-83h-83v83zM394 857h83v-83h-83v83z" />
    <glyph glyph-name="Agrave.ss02" horiz-adv-x="684" 
d="M565 0l-64 185h-234v66h211l-130 372h-12l-217 -623h-78l250 700h102l251 -700h-79zM185 923h95l112 -154h-80z" />
    <glyph glyph-name="Amacron.ss02" horiz-adv-x="684" 
d="M565 0l-64 185h-234v66h211l-130 372h-12l-217 -623h-78l250 700h102l251 -700h-79zM184 854h315v-62h-315v62z" />
    <glyph glyph-name="Aogonek.ss02" horiz-adv-x="684" 
d="M665 -131v-61h-44q-52 0 -85 25t-33 75q0 34 16.5 59.5t42.5 41.5l-61 176h-234v66h211l-130 372h-12l-217 -623h-78l250 700h102l251 -700q-35 -14 -54 -32.5t-19 -46.5q0 -52 67 -52h27z" />
    <glyph glyph-name="Aring.ss02" horiz-adv-x="684" 
d="M565 0l-64 185h-234v66h211l-130 372h-12l-217 -623h-78l250 700h102l251 -700h-79zM279 772.5q-25 25.5 -25 62.5t25 62.5t63 25.5q37 0 62 -25.5t25 -62.5q0 -36 -25 -62t-62 -26q-38 0 -63 25.5zM367 810.5q10 10.5 10 24.5q0 15 -10 25.5t-25 10.5t-25 -10.5
t-10 -25.5q0 -14 10 -24.5t25 -10.5t25 10.5z" />
    <glyph glyph-name="Atilde.ss02" horiz-adv-x="684" 
d="M565 0l-64 185h-234v66h211l-130 372h-12l-217 -623h-78l250 700h102l251 -700h-79zM197.5 867q31.5 28 77.5 28q24 0 41.5 -7t41.5 -21q17 -10 27.5 -14.5t22.5 -4.5q21 0 32.5 13.5t11.5 33.5h69q-4 -56 -35.5 -84t-76.5 -28q-24 0 -40.5 6.5t-42.5 20.5q-16 10 -27 15
t-24 5q-21 0 -32 -13.5t-11 -33.5h-70q4 56 35.5 84z" />
    <glyph glyph-name="AE.ss02" horiz-adv-x="873" 
d="M391 700h432v-66h-305v-249h285v-67h-285v-252h305v-66h-379v185h-142v66h142v383h-10l-311 -634h-82z" />
    <glyph glyph-name="B.ss02" horiz-adv-x="638" 
d="M60 700h266q97 0 153 -49t56 -137q0 -40 -20 -76.5t-54 -55.5v-12q58 -16 92 -61t34 -113q0 -94 -57 -145t-157 -51h-179v66h181q66 0 101 35.5t35 94.5t-35 94.5t-101 35.5h-181v64h132q63 0 98 34.5t35 87.5t-35 87.5t-98 34.5h-192v-634h-74v700z" />
    <glyph glyph-name="D.ss02" horiz-adv-x="662" 
d="M538.5 606q79.5 -94 79.5 -256t-79.5 -256t-225.5 -94h-119v66h119q110 0 169.5 77t59.5 207t-59.5 207t-169.5 77h-179v-634h-74v700h253q146 0 225.5 -94z" />
    <glyph glyph-name="Eth.ss02" horiz-adv-x="695" 
d="M571.5 606q79.5 -94 79.5 -256t-79.5 -256t-225.5 -94h-120v66h119q110 0 170 77t60 207t-60 207t-170 77h-179v-251h185v-66h-185v-317h-73v317h-83v66h83v317h253q146 0 225.5 -94z" />
    <glyph glyph-name="Dcaron.ss02" horiz-adv-x="662" 
d="M538.5 606q79.5 -94 79.5 -256t-79.5 -256t-225.5 -94h-119v66h119q110 0 169.5 77t59.5 207t-59.5 207t-169.5 77h-179v-634h-74v700h253q146 0 225.5 -94zM105 907h84l77 -77h11l77 77h83l-136 -140h-60z" />
    <glyph glyph-name="Dcroat.ss02" horiz-adv-x="695" 
d="M571.5 606q79.5 -94 79.5 -256t-79.5 -256t-225.5 -94h-120v66h119q110 0 170 77t60 207t-60 207t-170 77h-179v-251h185v-66h-185v-317h-73v317h-83v66h83v317h253q146 0 225.5 -94z" />
    <glyph glyph-name="K.ss02" horiz-adv-x="545" 
d="M60 700h74v-700h-74v700zM164 358v21l258 321h93l-265 -325v-10l286 -365h-93z" />
    <glyph glyph-name="uni0136.ss02" horiz-adv-x="545" 
d="M60 700h74v-700h-74v700zM164 358v21l258 321h93l-265 -325v-10l286 -365h-93zM242 -166h14q20 0 20 20v17h-35v79h83v-98q0 -31 -18 -45.5t-45 -14.5h-19v42z" />
    <glyph glyph-name="P.ss02" horiz-adv-x="607" 
d="M498.5 644.5q58.5 -55.5 58.5 -148.5t-58.5 -149t-157.5 -56h-147v67h143q73 0 108.5 38.5t35.5 99.5t-35.5 99.5t-108.5 38.5h-203v-634h-74v700h281q99 0 157.5 -55.5z" />
    <glyph glyph-name="R.ss02" horiz-adv-x="592" 
d="M60 700h264q100 0 158 -51.5t58 -143.5q0 -91 -56 -141.5t-154 -52.5h-72l275 -311h-97l-242 279v98h126q74 0 109 34.5t35 93.5t-35 94t-109 35h-186v-634h-74v700z" />
    <glyph glyph-name="Racute.ss02" horiz-adv-x="592" 
d="M60 700h264q100 0 158 -51.5t58 -143.5q0 -91 -56 -141.5t-154 -52.5h-72l275 -311h-97l-242 279v98h126q74 0 109 34.5t35 93.5t-35 94t-109 35h-186v-634h-74v700zM309 923h95l-127 -154h-80z" />
    <glyph glyph-name="Rcaron.ss02" horiz-adv-x="592" 
d="M60 700h264q100 0 158 -51.5t58 -143.5q0 -91 -56 -141.5t-154 -52.5h-72l275 -311h-97l-242 279v98h126q74 0 109 34.5t35 93.5t-35 94t-109 35h-186v-634h-74v700zM81 907h84l77 -77h11l77 77h83l-136 -140h-60z" />
    <glyph glyph-name="uni0156.ss02" horiz-adv-x="592" 
d="M60 700h264q100 0 158 -51.5t58 -143.5q0 -91 -56 -141.5t-154 -52.5h-72l275 -311h-97l-242 279v98h126q74 0 109 34.5t35 93.5t-35 94t-109 35h-186v-634h-74v700zM242 -166h14q20 0 20 20v17h-35v79h83v-98q0 -31 -18 -45.5t-45 -14.5h-19v42z" />
    <glyph glyph-name="a.ss01" horiz-adv-x="567" 
d="M156.5 15.5q-50.5 27.5 -83 84.5t-32.5 140q0 84 33 141.5t85.5 85t110.5 27.5q49 0 93.5 -19t74.5 -58v65h73v-482h-73v69h-12q-27 -40 -71.5 -60.5t-93.5 -20.5q-54 0 -104.5 27.5zM356.5 79q36.5 20 59 61t22.5 101t-22.5 101t-59 61t-78.5 20t-79.5 -20t-61 -61
t-23.5 -101t23.5 -101t61 -61t79.5 -20t78.5 20z" />
    <glyph glyph-name="aacute.ss01" horiz-adv-x="567" 
d="M156.5 15.5q-50.5 27.5 -83 84.5t-32.5 140q0 84 33 141.5t85.5 85t110.5 27.5q49 0 93.5 -19t74.5 -58v65h73v-482h-73v69h-12q-27 -40 -71.5 -60.5t-93.5 -20.5q-54 0 -104.5 27.5zM356.5 79q36.5 20 59 61t22.5 101t-22.5 101t-59 61t-78.5 20t-79.5 -20t-61 -61
t-23.5 -101t23.5 -101t61 -61t79.5 -20t78.5 20zM336 705h95l-127 -154h-80z" />
    <glyph glyph-name="abreve.ss01" horiz-adv-x="567" 
d="M156.5 15.5q-50.5 27.5 -83 84.5t-32.5 140q0 84 33 141.5t85.5 85t110.5 27.5q49 0 93.5 -19t74.5 -58v65h73v-482h-73v69h-12q-27 -40 -71.5 -60.5t-93.5 -20.5q-54 0 -104.5 27.5zM356.5 79q36.5 20 59 61t22.5 101t-22.5 101t-59 61t-78.5 20t-79.5 -20t-61 -61
t-23.5 -101t23.5 -101t61 -61t79.5 -20t78.5 20zM156.5 581q-43.5 42 -45.5 106h69q2 -36 26.5 -60t67.5 -24t67.5 24t26.5 60h69q-2 -63 -45.5 -105.5t-117.5 -42.5t-117.5 42z" />
    <glyph glyph-name="acircumflex.ss01" horiz-adv-x="567" 
d="M156.5 15.5q-50.5 27.5 -83 84.5t-32.5 140q0 84 33 141.5t85.5 85t110.5 27.5q49 0 93.5 -19t74.5 -58v65h73v-482h-73v69h-12q-27 -40 -71.5 -60.5t-93.5 -20.5q-54 0 -104.5 27.5zM356.5 79q36.5 20 59 61t22.5 101t-22.5 101t-59 61t-78.5 20t-79.5 -20t-61 -61
t-23.5 -101t23.5 -101t61 -61t79.5 -20t78.5 20zM244 689h60l136 -140h-83l-77 77h-11l-77 -77h-84z" />
    <glyph glyph-name="adieresis.ss01" horiz-adv-x="567" 
d="M156.5 15.5q-50.5 27.5 -83 84.5t-32.5 140q0 84 33 141.5t85.5 85t110.5 27.5q49 0 93.5 -19t74.5 -58v65h73v-482h-73v69h-12q-27 -40 -71.5 -60.5t-93.5 -20.5q-54 0 -104.5 27.5zM356.5 79q36.5 20 59 61t22.5 101t-22.5 101t-59 61t-78.5 20t-79.5 -20t-61 -61
t-23.5 -101t23.5 -101t61 -61t79.5 -20t78.5 20zM139 670h83v-83h-83v83zM326 670h83v-83h-83v83z" />
    <glyph glyph-name="agrave.ss01" horiz-adv-x="567" 
d="M156.5 15.5q-50.5 27.5 -83 84.5t-32.5 140q0 84 33 141.5t85.5 85t110.5 27.5q49 0 93.5 -19t74.5 -58v65h73v-482h-73v69h-12q-27 -40 -71.5 -60.5t-93.5 -20.5q-54 0 -104.5 27.5zM356.5 79q36.5 20 59 61t22.5 101t-22.5 101t-59 61t-78.5 20t-79.5 -20t-61 -61
t-23.5 -101t23.5 -101t61 -61t79.5 -20t78.5 20zM117 705h95l112 -154h-80z" />
    <glyph glyph-name="amacron.ss01" horiz-adv-x="567" 
d="M156.5 15.5q-50.5 27.5 -83 84.5t-32.5 140q0 84 33 141.5t85.5 85t110.5 27.5q49 0 93.5 -19t74.5 -58v65h73v-482h-73v69h-12q-27 -40 -71.5 -60.5t-93.5 -20.5q-54 0 -104.5 27.5zM356.5 79q36.5 20 59 61t22.5 101t-22.5 101t-59 61t-78.5 20t-79.5 -20t-61 -61
t-23.5 -101t23.5 -101t61 -61t79.5 -20t78.5 20zM116 659h315v-62h-315v62z" />
    <glyph glyph-name="aogonek.ss01" horiz-adv-x="567" 
d="M532 -131v-61h-44q-52 0 -85 25t-33 75q0 38 19 64.5t49 41.5v55h-12q-27 -40 -71.5 -60.5t-93.5 -20.5q-54 0 -104.5 27.5t-83 84.5t-32.5 140q0 84 33 141.5t85.5 85t110.5 27.5q49 0 93.5 -19t74.5 -58v65h73v-482q-35 -14 -54 -32.5t-19 -46.5q0 -52 67 -52h27z
M356.5 79q36.5 20 59 61t22.5 101t-22.5 101t-59 61t-78.5 20t-79.5 -20t-61 -61t-23.5 -101t23.5 -101t61 -61t79.5 -20t78.5 20z" />
    <glyph glyph-name="aring.ss01" horiz-adv-x="567" 
d="M156.5 15.5q-50.5 27.5 -83 84.5t-32.5 140q0 84 33 141.5t85.5 85t110.5 27.5q49 0 93.5 -19t74.5 -58v65h73v-482h-73v69h-12q-27 -40 -71.5 -60.5t-93.5 -20.5q-54 0 -104.5 27.5zM356.5 79q36.5 20 59 61t22.5 101t-22.5 101t-59 61t-78.5 20t-79.5 -20t-61 -61
t-23.5 -101t23.5 -101t61 -61t79.5 -20t78.5 20zM211 554.5q-25 25.5 -25 62.5t25 62.5t63 25.5q37 0 62 -25.5t25 -62.5q0 -36 -25 -62t-62 -26q-38 0 -63 25.5zM299 592q10 10 10 25t-10 25t-25 10t-25 -10t-10 -25t10 -25t25 -9q15 -1 25 9z" />
    <glyph glyph-name="atilde.ss01" horiz-adv-x="567" 
d="M156.5 15.5q-50.5 27.5 -83 84.5t-32.5 140q0 84 33 141.5t85.5 85t110.5 27.5q49 0 93.5 -19t74.5 -58v65h73v-482h-73v69h-12q-27 -40 -71.5 -60.5t-93.5 -20.5q-54 0 -104.5 27.5zM356.5 79q36.5 20 59 61t22.5 101t-22.5 101t-59 61t-78.5 20t-79.5 -20t-61 -61
t-23.5 -101t23.5 -101t61 -61t79.5 -20t78.5 20zM129.5 649q31.5 28 77.5 28q24 0 41.5 -7t41.5 -21q17 -10 27.5 -14.5t22.5 -4.5q21 0 32.5 13.5t11.5 33.5h69q-4 -56 -35.5 -84t-76.5 -28q-24 0 -40.5 6.5t-42.5 20.5q-16 10 -27 15t-24 5q-21 0 -32 -13.5t-11 -33.5h-70
q4 56 35.5 84z" />
    <glyph glyph-name="ae.ss01" horiz-adv-x="919" 
d="M156.5 15.5q-50.5 27.5 -83 84.5t-32.5 140q0 84 33 141.5t85.5 85t110.5 27.5q49 0 93.5 -19t74.5 -58v65h70v-64q58 76 158 76q60 0 108.5 -28t76 -77.5t27.5 -109.5v-56h-364q2 -47 22.5 -84.5t54.5 -59t74 -21.5q51 0 83.5 25.5t47.5 67.5h75q-20 -75 -71.5 -119
t-130.5 -44q-97 0 -150 76h-11v-64h-70v64h-12q-28 -36 -72.5 -56t-92.5 -20q-54 0 -104.5 27.5zM805 285q1 37 -16 69t-49.5 51.5t-76.5 19.5q-57 0 -99.5 -37.5t-50.5 -102.5h292zM356.5 79q36.5 20 59 61t22.5 101t-22.5 101t-59 61t-78.5 20t-79.5 -20t-61 -61
t-23.5 -101t23.5 -101t61 -61t79.5 -20t78.5 20z" />
    <glyph glyph-name="a.ss02" horiz-adv-x="507" 
d="M81.5 28.5q-44.5 40.5 -44.5 105.5q0 70 44.5 109.5t126.5 39.5h111v-62h-108q-49 0 -73.5 -21t-24.5 -61q0 -42 29.5 -63t79.5 -21q96 0 157 83v186q0 46 -29.5 73t-90.5 27q-58 0 -90 -24.5t-37 -68.5h-75q8 75 62 119t142 44q90 0 140.5 -41t50.5 -125v-328h-73v51
h-11q-25 -27 -67.5 -45t-88.5 -18q-86 0 -130.5 40.5z" />
    <glyph glyph-name="ae.ss02" horiz-adv-x="840" 
d="M82 28.5q-45 40.5 -45 105.5q0 70 44.5 110t126.5 40h91v-62h-88q-49 0 -73.5 -21.5t-24.5 -61.5q0 -42 28.5 -63t73.5 -21q43 0 78 21.5t66 68.5v179q0 45 -27.5 72.5t-82.5 27.5q-52 0 -83 -24.5t-36 -68.5h-73q7 75 59.5 119t133.5 44q59 0 102 -22t62 -66
q29 41 73.5 64.5t99.5 23.5q60 0 108.5 -28t76 -77.5t27.5 -109.5v-57h-304v62h231q1 36 -15.5 68.5t-48.5 52.5t-76 20q-41 0 -75.5 -21t-55.5 -62t-21 -99q0 -91 43 -138t111 -47q94 0 130 93h74q-19 -75 -73 -119t-132 -44q-117 0 -183 101h-12q-76 -101 -178 -101
q-87 0 -132 40.5z" />
    <glyph glyph-name="b.ss02" horiz-adv-x="567" 
d="M212.5 8.5q-44.5 20.5 -72.5 60.5h-11v-69h-73v720h73v-479q0 -60 22 -101t58.5 -61t79.5 -20q42 0 79.5 19.5t60.5 60.5t23 101q0 88 -47.5 129t-115.5 41h-100v72h106q60 0 112 -24.5t85.5 -78.5t33.5 -139q0 -83 -32.5 -140t-83 -84.5t-105.5 -27.5q-48 0 -92.5 20.5z
" />
    <glyph glyph-name="d.ss02" horiz-adv-x="567" 
d="M156.5 15.5q-50.5 27.5 -83 84.5t-32.5 140q0 84 33.5 138.5t85.5 79t111 24.5h107v-72h-100q-68 0 -116 -41t-48 -129q0 -60 23.5 -100.5t61 -60.5t79.5 -20t78.5 20t59 61t22.5 101v479h73v-720h-73v69h-12q-27 -40 -71.5 -60.5t-93.5 -20.5q-54 0 -104.5 27.5z" />
    <glyph glyph-name="e.ss02" horiz-adv-x="540" 
d="M151.5 20.5q-53.5 32.5 -82 89.5t-28.5 129t28 130t81.5 91.5t125.5 33.5q66 0 116.5 -28.5t78.5 -78t28 -112.5v-56h-325v63h252q1 60 -38.5 101.5t-111.5 41.5t-117 -47.5t-45 -130.5q-1 -92 43.5 -140.5t119.5 -48.5q105 0 141 93h74q-19 -75 -74.5 -119t-140.5 -44
q-72 0 -125.5 32.5z" />
    <glyph glyph-name="eacute.ss02" horiz-adv-x="540" 
d="M151.5 20.5q-53.5 32.5 -82 89.5t-28.5 129t28 130t81.5 91.5t125.5 33.5q66 0 116.5 -28.5t78.5 -78t28 -112.5v-56h-325v63h252q1 60 -38.5 101.5t-111.5 41.5t-117 -47.5t-45 -130.5q-1 -92 43.5 -140.5t119.5 -48.5q105 0 141 93h74q-19 -75 -74.5 -119t-140.5 -44
q-72 0 -125.5 32.5zM333 705h95l-127 -154h-80z" />
    <glyph glyph-name="ecaron.ss02" horiz-adv-x="540" 
d="M151.5 20.5q-53.5 32.5 -82 89.5t-28.5 129t28 130t81.5 91.5t125.5 33.5q66 0 116.5 -28.5t78.5 -78t28 -112.5v-56h-325v63h252q1 60 -38.5 101.5t-111.5 41.5t-117 -47.5t-45 -130.5q-1 -92 43.5 -140.5t119.5 -48.5q105 0 141 93h74q-19 -75 -74.5 -119t-140.5 -44
q-72 0 -125.5 32.5zM105 689h84l77 -77h11l77 77h83l-136 -140h-60z" />
    <glyph glyph-name="ecircumflex.ss02" horiz-adv-x="540" 
d="M151.5 20.5q-53.5 32.5 -82 89.5t-28.5 129t28 130t81.5 91.5t125.5 33.5q66 0 116.5 -28.5t78.5 -78t28 -112.5v-56h-325v63h252q1 60 -38.5 101.5t-111.5 41.5t-117 -47.5t-45 -130.5q-1 -92 43.5 -140.5t119.5 -48.5q105 0 141 93h74q-19 -75 -74.5 -119t-140.5 -44
q-72 0 -125.5 32.5zM241 689h60l136 -140h-83l-77 77h-11l-77 -77h-84z" />
    <glyph glyph-name="edieresis.ss02" horiz-adv-x="540" 
d="M151.5 20.5q-53.5 32.5 -82 89.5t-28.5 129t28 130t81.5 91.5t125.5 33.5q66 0 116.5 -28.5t78.5 -78t28 -112.5v-56h-325v63h252q1 60 -38.5 101.5t-111.5 41.5t-117 -47.5t-45 -130.5q-1 -92 43.5 -140.5t119.5 -48.5q105 0 141 93h74q-19 -75 -74.5 -119t-140.5 -44
q-72 0 -125.5 32.5zM136 670h83v-83h-83v83zM323 670h83v-83h-83v83z" />
    <glyph glyph-name="edotaccent.ss02" horiz-adv-x="540" 
d="M151.5 20.5q-53.5 32.5 -82 89.5t-28.5 129t28 130t81.5 91.5t125.5 33.5q66 0 116.5 -28.5t78.5 -78t28 -112.5v-56h-325v63h252q1 60 -38.5 101.5t-111.5 41.5t-117 -47.5t-45 -130.5q-1 -92 43.5 -140.5t119.5 -48.5q105 0 141 93h74q-19 -75 -74.5 -119t-140.5 -44
q-72 0 -125.5 32.5zM230 670h83v-83h-83v83z" />
    <glyph glyph-name="egrave.ss02" horiz-adv-x="540" 
d="M151.5 20.5q-53.5 32.5 -82 89.5t-28.5 129t28 130t81.5 91.5t125.5 33.5q66 0 116.5 -28.5t78.5 -78t28 -112.5v-56h-325v63h252q1 60 -38.5 101.5t-111.5 41.5t-117 -47.5t-45 -130.5q-1 -92 43.5 -140.5t119.5 -48.5q105 0 141 93h74q-19 -75 -74.5 -119t-140.5 -44
q-72 0 -125.5 32.5zM114 705h95l112 -154h-80z" />
    <glyph glyph-name="emacron.ss02" horiz-adv-x="540" 
d="M151.5 20.5q-53.5 32.5 -82 89.5t-28.5 129t28 130t81.5 91.5t125.5 33.5q66 0 116.5 -28.5t78.5 -78t28 -112.5v-56h-325v63h252q1 60 -38.5 101.5t-111.5 41.5t-117 -47.5t-45 -130.5q-1 -92 43.5 -140.5t119.5 -48.5q105 0 141 93h74q-19 -75 -74.5 -119t-140.5 -44
q-72 0 -125.5 32.5zM114 659h315v-62h-315v62z" />
    <glyph glyph-name="eogonek.ss02" horiz-adv-x="540" 
d="M426 282q1 60 -38.5 101.5t-111.5 41.5t-117 -47.5t-45 -130.5q-1 -92 43.5 -140.5t119.5 -48.5q105 0 141 93h74q-15 -55 -49.5 -94.5t-85.5 -56.5q-35 -14 -54 -32.5t-19 -46.5q0 -52 67 -52h27v-61h-44q-52 0 -85 25t-33 75q0 48 33 81q-96 10 -152 78.5t-56 171.5
q0 72 28 130t81.5 91.5t125.5 33.5q66 0 116.5 -28.5t78.5 -78t28 -112.5v-56h-325v63h252z" />
    <glyph glyph-name="g.ss02" horiz-adv-x="544" 
d="M67.5 -192q-41.5 40 -41.5 101v29h74v-21q0 -36 27.5 -58t83.5 -22h90q42 0 76 21.5t34 66.5q0 38 -23.5 59.5t-70.5 21.5h-177q-47 0 -71.5 23t-24.5 59q0 26 10.5 45.5t29.5 41.5l13 15q-22 24 -34 55t-12 66q0 50 23 91.5t67.5 66t105.5 24.5q38 0 73 -11h204v-67
h-114q34 -42 34 -104q0 -49 -23.5 -90t-68 -65.5t-105.5 -24.5q-55 0 -97 22l-10 -11q-22 -24 -22 -40q0 -28 34 -28h173q71 0 115.5 -37.5t44.5 -111.5q0 -69 -47 -113t-147 -44h-82q-100 0 -141.5 40zM333.5 228.5q36.5 28.5 36.5 83.5t-36.5 83.5t-86.5 28.5
q-49 0 -85.5 -28.5t-36.5 -83.5t36.5 -83.5t85.5 -28.5q50 0 86.5 28.5z" />
    <glyph glyph-name="gbreve.ss02" horiz-adv-x="544" 
d="M67.5 -192q-41.5 40 -41.5 101v29h74v-21q0 -36 27.5 -58t83.5 -22h90q42 0 76 21.5t34 66.5q0 38 -23.5 59.5t-70.5 21.5h-177q-47 0 -71.5 23t-24.5 59q0 26 10.5 45.5t29.5 41.5l13 15q-22 24 -34 55t-12 66q0 50 23 91.5t67.5 66t105.5 24.5q38 0 73 -11h204v-67
h-114q34 -42 34 -104q0 -49 -23.5 -90t-68 -65.5t-105.5 -24.5q-55 0 -97 22l-10 -11q-22 -24 -22 -40q0 -28 34 -28h173q71 0 115.5 -37.5t44.5 -111.5q0 -69 -47 -113t-147 -44h-82q-100 0 -141.5 40zM333.5 228.5q36.5 28.5 36.5 83.5t-36.5 83.5t-86.5 28.5
q-49 0 -85.5 -28.5t-36.5 -83.5t36.5 -83.5t85.5 -28.5q50 0 86.5 28.5zM139.5 581q-43.5 42 -45.5 106h69q2 -36 26.5 -60t67.5 -24t67.5 24t26.5 60h69q-2 -63 -45.5 -105.5t-117.5 -42.5t-117.5 42z" />
    <glyph glyph-name="uni0123.ss02" horiz-adv-x="544" 
d="M67.5 -192q-41.5 40 -41.5 101v29h74v-21q0 -36 27.5 -58t83.5 -22h90q42 0 76 21.5t34 66.5q0 38 -23.5 59.5t-70.5 21.5h-177q-47 0 -71.5 23t-24.5 59q0 26 10.5 45.5t29.5 41.5l13 15q-22 24 -34 55t-12 66q0 50 23 91.5t67.5 66t105.5 24.5q38 0 73 -11h204v-67
h-114q34 -42 34 -104q0 -49 -23.5 -90t-68 -65.5t-105.5 -24.5q-55 0 -97 22l-10 -11q-22 -24 -22 -40q0 -28 34 -28h173q71 0 115.5 -37.5t44.5 -111.5q0 -69 -47 -113t-147 -44h-82q-100 0 -141.5 40zM333.5 228.5q36.5 28.5 36.5 83.5t-36.5 83.5t-86.5 28.5
q-49 0 -85.5 -28.5t-36.5 -83.5t36.5 -83.5t85.5 -28.5q50 0 86.5 28.5zM289 659h-14q-21 0 -21 -20v-17h36v-79h-83v98q0 31 18 45.5t44 14.5h20v-42z" />
    <glyph glyph-name="k.ss02" horiz-adv-x="452" 
d="M56 720h73v-720h-73v720zM159 245v11l187 226h90l-190 -231l192 -251h-91z" />
    <glyph glyph-name="uni0137.ss02" horiz-adv-x="452" 
d="M56 720h73v-720h-73v720zM159 245v11l187 226h90l-190 -231l192 -251h-91zM186 -166h14q20 0 20 20v17h-35v79h83v-98q0 -31 -18 -45.5t-45 -14.5h-19v42z" />
    <glyph glyph-name="oe.ss02" horiz-adv-x="917" 
d="M151.5 22q-53.5 34 -82 91.5t-28.5 127.5t28.5 127.5t82 91.5t124.5 34q66 0 117 -30t81 -82q28 53 76.5 82.5t111.5 29.5q61 0 110 -28t76.5 -78t27.5 -113v-56h-306v63h233q0 60 -37.5 101.5t-103.5 41.5q-40 0 -74.5 -19.5t-55.5 -59t-21 -96.5q0 -95 42.5 -143.5
t109.5 -48.5q50 0 83 25.5t48 67.5h74q-19 -75 -73 -119t-132 -44q-63 0 -112 29.5t-77 82.5q-30 -53 -81 -82.5t-117 -29.5q-71 0 -124.5 34zM356 80.5q37 21.5 59 62.5t22 98t-22 98t-59 62.5t-79 21.5q-43 0 -80 -21.5t-59 -62.5t-22 -98t22 -98t59 -62.5t80 -21.5
q42 0 79 21.5z" />
    <glyph glyph-name="p.ss02" horiz-adv-x="567" 
d="M56 482h73v-69h11q28 40 72.5 60.5t92.5 20.5q55 0 105.5 -27.5t83 -84.5t32.5 -140q0 -85 -33.5 -139t-85.5 -78.5t-112 -24.5h-106v72h100q68 0 115.5 41t47.5 129q0 60 -23 101t-60.5 60.5t-79.5 19.5q-43 0 -79.5 -20t-58.5 -61t-22 -101v-461h-73v702z" />
    <glyph glyph-name="q.ss02" horiz-adv-x="567" 
d="M438 241q0 60 -22.5 101t-59 61t-78.5 20t-79.5 -20t-61 -60.5t-23.5 -100.5q0 -88 48 -129t116 -41h100v-72h-107q-59 0 -111 24.5t-85.5 79t-33.5 138.5q0 83 32.5 140t83 84.5t104.5 27.5q49 0 93.5 -20.5t71.5 -60.5h12v69h73v-702h-73v461z" />
    <glyph glyph-name="ae.ss01.ss02" horiz-adv-x="919" 
d="M156.5 15.5q-50.5 27.5 -83 84.5t-32.5 140q0 84 33 141.5t85.5 85t110.5 27.5q49 0 93.5 -19t74.5 -58v65h70v-64q58 76 158 76q60 0 108.5 -28t76 -77.5t27.5 -109.5v-56h-308v62h235q1 37 -16 69t-49.5 51.5t-76.5 19.5q-42 0 -77 -21.5t-55.5 -63t-20.5 -98.5
q0 -88 43 -136t112 -48q51 0 83.5 25t48.5 68h74q-20 -75 -71.5 -119t-130.5 -44q-97 0 -150 76h-11v-64h-70v64h-12q-28 -36 -72.5 -56t-92.5 -20q-54 0 -104.5 27.5zM356.5 79q36.5 20 59 61t22.5 101t-22.5 101t-59 61t-78.5 20t-79.5 -20t-61 -61t-23.5 -101t23.5 -101
t61 -61t79.5 -20t78.5 20z" />
    <glyph glyph-name="f_t" horiz-adv-x="705" 
d="M135 414h-108v68h108v99q0 68 37 103.5t102 35.5h71v-66h-51q-45 0 -65.5 -21t-20.5 -66v-85h216v130h73v-130h160v-68h-160v-259q0 -45 20.5 -66t66.5 -21h72v-68h-92q-65 0 -102.5 35.5t-37.5 103.5v275h-216v-414h-73v414z" />
    <glyph glyph-name="uni0410.ss02" horiz-adv-x="684" 
d="M565 0l-64 185h-234v66h211l-130 372h-12l-217 -623h-78l250 700h102l251 -700h-79z" />
    <glyph glyph-name="uni0411.ss02" horiz-adv-x="606" 
d="M60 700h446v-66h-372v-634h-74v700zM194 66h146q65 0 103 41.5t38 100.5q0 58 -37.5 94.5t-103.5 36.5h-146v65h145q103 0 160 -51.5t57 -143.5q0 -95 -59.5 -152t-158.5 -57h-144v66z" />
    <glyph glyph-name="uni0412.ss02" horiz-adv-x="638" 
d="M60 700h266q97 0 153 -49t56 -137q0 -40 -20 -76.5t-54 -55.5v-12q58 -16 92 -61t34 -113q0 -94 -57 -145t-157 -51h-179v66h181q66 0 101 35.5t35 94.5t-35 94.5t-101 35.5h-181v64h132q63 0 98 34.5t35 87.5t-35 87.5t-98 34.5h-192v-634h-74v700z" />
    <glyph glyph-name="uni0414.ss02" horiz-adv-x="682" 
d="M5 66h74q39 56 57.5 139.5t22.5 225.5l6 269h418v-572h-74v506h-276l-5 -212q-7 -258 -68 -356h512v-208h-69v142h-529v-142h-69v208z" />
    <glyph glyph-name="uni0416.ss02" horiz-adv-x="896" 
d="M295 365v10l-265 325h93l258 -321v-21l-279 -358h-93zM411 700h74v-700h-74v700zM515 358v21l259 321h92l-265 -325v-10l286 -365h-93z" />
    <glyph glyph-name="uni041A.ss02" horiz-adv-x="545" 
d="M60 700h74v-700h-74v700zM164 358v21l258 321h93l-265 -325v-10l286 -365h-93z" />
    <glyph glyph-name="uni040C.ss02" horiz-adv-x="545" 
d="M60 700h74v-700h-74v700zM164 358v21l258 321h93l-265 -325v-10l286 -365h-93zM341 923h95l-127 -154h-80z" />
    <glyph glyph-name="uni0420.ss02" horiz-adv-x="607" 
d="M498.5 644.5q58.5 -55.5 58.5 -148.5t-58.5 -149t-157.5 -56h-147v67h143q73 0 108.5 38.5t35.5 99.5t-35.5 99.5t-108.5 38.5h-203v-634h-74v700h281q99 0 157.5 -55.5z" />
    <glyph glyph-name="uni0424.ss02" horiz-adv-x="840" 
d="M713.5 554.5q82.5 -76.5 82.5 -202.5q0 -85 -33.5 -148.5t-95.5 -98.5t-146 -35h-4v66h4q98 0 148.5 59.5t50.5 156.5q0 101 -63.5 156.5t-189.5 55.5h-10v-579h-74v579h-10q-126 0 -189.5 -55.5t-63.5 -156.5q0 -96 51 -155.5t149 -59.5h3v-66h-4q-84 0 -146 35
t-95.5 99t-33.5 147q0 126 82.5 202.5t247.5 76.5h9v84h74v-84h9q165 0 247.5 -76.5z" />
    <glyph glyph-name="uni0427.ss02" horiz-adv-x="607" 
d="M286 254q-108 0 -174.5 49.5t-66.5 153.5v243h74v-235q0 -73 47.5 -107t127.5 -34q69 0 120 22v-69q-59 -23 -128 -23zM474 700h73v-700h-73v700z" />
    <glyph glyph-name="uni042C.ss02" horiz-adv-x="601" 
d="M60 700h74v-634h204q73 0 108.5 45t35.5 109q0 62 -35 99t-109 37h-144v66h149q99 0 157 -54.5t58 -147.5q0 -63 -26.5 -113t-75 -78.5t-113.5 -28.5h-283v700z" />
    <glyph glyph-name="uni042A.ss02" horiz-adv-x="782" 
d="M36 700h278v-634h205q73 0 108.5 45t35.5 109q0 62 -35 99t-109 37h-145v66h150q99 0 157 -54.5t58 -147.5q0 -63 -26.5 -113t-75 -78.5t-113.5 -28.5h-283v634h-205v66z" />
    <glyph glyph-name="uni042B.ss02" horiz-adv-x="764" 
d="M60 700h74v-634h204q73 0 108.5 45t35.5 109q0 62 -35 99t-109 37h-144v66h149q99 0 157 -54.5t58 -147.5q0 -63 -26.5 -113t-75 -78.5t-113.5 -28.5h-283v700zM631 700h74v-700h-74v700z" />
    <glyph glyph-name="uni0409.ss02" horiz-adv-x="1056" 
d="M19 72h20q46 0 71 26t36.5 92t14.5 191l7 319h425v-634h200q73 0 108.5 45t35.5 109q0 62 -35 99t-109 37h-140v66h144q100 0 158 -54.5t58 -147.5q0 -63 -26.5 -113t-75.5 -78.5t-114 -28.5h-277v634h-282l-6 -256q-4 -152 -21 -232t-56 -113.5t-111 -33.5h-25v73z" />
    <glyph glyph-name="uni040A.ss02" horiz-adv-x="1043" 
d="M60 700h74v-300h373v300h74v-634h199q74 0 109.5 39t35.5 101q0 60 -35 94.5t-110 34.5h-139v66h144q100 0 157.5 -51.5t57.5 -143.5q0 -95 -58 -150.5t-157 -55.5h-278v333h-373v-333h-74v700z" />
    <glyph glyph-name="uni042F.ss02" horiz-adv-x="592" 
d="M532 700v-700h-74v634h-186q-74 0 -109 -35t-35 -94t35 -93.5t109 -34.5h126v-98l-242 -279h-97l274 311h-68q-98 0 -155.5 51t-57.5 143t58 143.5t158 51.5h264z" />
    <glyph glyph-name="uni0430.ss01" horiz-adv-x="567" 
d="M156.5 15.5q-50.5 27.5 -83 84.5t-32.5 140q0 84 33 141.5t85.5 85t110.5 27.5q49 0 93.5 -19t74.5 -58v65h73v-482h-73v69h-12q-27 -40 -71.5 -60.5t-93.5 -20.5q-54 0 -104.5 27.5zM356.5 79q36.5 20 59 61t22.5 101t-22.5 101t-59 61t-78.5 20t-79.5 -20t-61 -61
t-23.5 -101t23.5 -101t61 -61t79.5 -20t78.5 20z" />
    <glyph glyph-name="uni0430.ss02" horiz-adv-x="507" 
d="M81.5 28.5q-44.5 40.5 -44.5 105.5q0 70 44.5 109.5t126.5 39.5h111v-62h-108q-49 0 -73.5 -21t-24.5 -61q0 -42 29.5 -63t79.5 -21q96 0 157 83v186q0 46 -29.5 73t-90.5 27q-58 0 -90 -24.5t-37 -68.5h-75q8 75 62 119t142 44q90 0 140.5 -41t50.5 -125v-328h-73v51
h-11q-25 -27 -67.5 -45t-88.5 -18q-86 0 -130.5 40.5z" />
    <glyph glyph-name="uni0431.ss02" horiz-adv-x="589" 
d="M315 444q105 0 169 -54.5t64 -159.5q0 -69 -31.5 -124t-87.5 -86.5t-128 -31.5q-74 0 -129.5 31.5t-86.5 91.5t-31 143v104q0 140 51 216.5t165 88.5l124 14q20 2 29.5 9.5t11.5 22.5l2 17h75l-2 -26q-4 -45 -28.5 -66t-77.5 -26l-126 -14q-78 -8 -113.5 -61.5
t-35.5 -151.5v-147q0 -56 24 -95.5t63.5 -59.5t84.5 -20q46 0 85 19t63 57.5t24 94.5q0 78 -45.5 112.5t-119.5 34.5h-120v67h127z" />
    <glyph glyph-name="uni0432.ss02" horiz-adv-x="489" 
d="M57 482h230q68 0 107 -34.5t39 -87.5q0 -34 -16.5 -58.5t-46.5 -37.5v-11q35 -10 58 -40t23 -69q0 -66 -44 -105t-123 -39h-227v482zM285 64q46 0 69.5 21.5t23.5 58.5q0 34 -24 53.5t-68 19.5h-98v61h92q41 0 61 21t20 52q0 29 -19.5 48t-53.5 19h-160v-354h157z" />
    <glyph glyph-name="uni0434.ss02" horiz-adv-x="540" 
d="M5 69h59q29 44 44 100.5t16 146.5l3 166h332v-351h-73v282h-190l-3 -105q-3 -90 -15 -143t-35 -96h389v-187h-69v118h-389v-118h-69v187z" />
    <glyph glyph-name="uni0435.ss02" horiz-adv-x="540" 
d="M151.5 20.5q-53.5 32.5 -82 89.5t-28.5 129t28 130t81.5 91.5t125.5 33.5q66 0 116.5 -28.5t78.5 -78t28 -112.5v-56h-325v63h252q1 60 -38.5 101.5t-111.5 41.5t-117 -47.5t-45 -130.5q-1 -92 43.5 -140.5t119.5 -48.5q105 0 141 93h74q-19 -75 -74.5 -119t-140.5 -44
q-72 0 -125.5 32.5z" />
    <glyph glyph-name="uni0450.ss02" horiz-adv-x="540" 
d="M151.5 20.5q-53.5 32.5 -82 89.5t-28.5 129t28 130t81.5 91.5t125.5 33.5q66 0 116.5 -28.5t78.5 -78t28 -112.5v-56h-325v63h252q1 60 -38.5 101.5t-111.5 41.5t-117 -47.5t-45 -130.5q-1 -92 43.5 -140.5t119.5 -48.5q105 0 141 93h74q-19 -75 -74.5 -119t-140.5 -44
q-72 0 -125.5 32.5zM114 705h95l112 -154h-80z" />
    <glyph glyph-name="uni0451.ss02" horiz-adv-x="540" 
d="M151.5 20.5q-53.5 32.5 -82 89.5t-28.5 129t28 130t81.5 91.5t125.5 33.5q66 0 116.5 -28.5t78.5 -78t28 -112.5v-56h-325v63h252q1 60 -38.5 101.5t-111.5 41.5t-117 -47.5t-45 -130.5q-1 -92 43.5 -140.5t119.5 -48.5q105 0 141 93h74q-19 -75 -74.5 -119t-140.5 -44
q-72 0 -125.5 32.5zM136 670h83v-83h-83v83zM323 670h83v-83h-83v83z" />
    <glyph glyph-name="uni0436.ss02" horiz-adv-x="709" 
d="M204 251l-188 231h90l182 -226v-11l-183 -245h-91zM318 482h73v-482h-73v482zM421 245v11l183 226h89l-188 -231l190 -251h-90z" />
    <glyph glyph-name="uni043A.ss02" horiz-adv-x="449" 
d="M57 482h73v-482h-73v482zM160 245v11l183 226h90l-190 -231l192 -251h-91z" />
    <glyph glyph-name="uni045C.ss02" horiz-adv-x="452" 
d="M57 482h73v-482h-73v482zM160 245v11l183 226h90l-190 -231l192 -251h-91zM292 705h93l-126 -154h-79z" />
    <glyph glyph-name="uni0440.ss02" horiz-adv-x="567" 
d="M56 482h73v-69h11q28 40 72.5 60.5t92.5 20.5q55 0 105.5 -27.5t83 -84.5t32.5 -140q0 -85 -33.5 -139t-85.5 -78.5t-112 -24.5h-106v72h100q68 0 115.5 41t47.5 129q0 60 -23 101t-60.5 60.5t-79.5 19.5q-43 0 -79.5 -20t-58.5 -61t-22 -101v-461h-73v702z" />
    <glyph glyph-name="uni0444.ss02" horiz-adv-x="711" 
d="M540 460.5q63 -32.5 96.5 -89.5t33.5 -130q0 -70 -28 -124.5t-77.5 -85.5t-112.5 -31v73q40 0 72.5 21.5t51.5 59.5t19 87q0 85 -56 133.5t-147 49.5v-644h-73v644q-90 -2 -146.5 -50.5t-56.5 -132.5q0 -76 39 -122t104 -47v-72q-63 0 -112.5 30.5t-77.5 85.5t-28 125
q0 74 34 131t96.5 89t147.5 33v226h73v-226q85 -1 148 -33.5z" />
    <glyph glyph-name="uni0447.ss02" horiz-adv-x="497" 
d="M222 157q-73 0 -124.5 39.5t-51.5 124.5v161h73v-155q0 -53 31.5 -78t81.5 -25q42 0 75 15v-65q-36 -17 -85 -17zM440 0h-73v482h73v-482z" />
    <glyph glyph-name="uni044C.ss02" horiz-adv-x="465" 
d="M57 482h73v-417h132q48 0 73 25.5t25 68.5q0 40 -24.5 62.5t-69.5 22.5h-76v64h80q73 0 118 -40t45 -107q0 -74 -46.5 -117.5t-125.5 -43.5h-204v482z" />
    <glyph glyph-name="uni044A.ss02" horiz-adv-x="595" 
d="M25 482h235v-417h132q48 0 73 25.5t25 68.5q0 40 -24.5 62.5t-69.5 22.5h-76v64h80q73 0 118 -40t45 -107q0 -74 -46.5 -117.5t-125.5 -43.5h-204v413h-162v69z" />
    <glyph glyph-name="uni044B.ss02" horiz-adv-x="620" 
d="M57 482h73v-417h132q48 0 73 25.5t25 68.5q0 40 -24.5 62.5t-69.5 22.5h-76v64h80q73 0 117.5 -39.5t44.5 -107.5q0 -74 -46 -117.5t-125 -43.5h-204v482zM491 482h73v-482h-73v482z" />
    <glyph glyph-name="uni0459.ss02" horiz-adv-x="781" 
d="M14 70h7q33 0 52.5 17.5t29.5 59t12 116.5l5 219h331v-417h127q48 0 73 25.5t25 68.5q0 40 -24.5 62.5t-69.5 22.5h-71v64h75q73 0 118 -40t45 -107q0 -74 -46.5 -117.5t-125.5 -43.5h-199v413h-189l-4 -150q-2 -97 -18 -154.5t-49.5 -83.5t-88.5 -26h-15v71z" />
    <glyph glyph-name="uni045A.ss02" horiz-adv-x="792" 
d="M57 482h73v-195h259v195h73v-417h125q49 0 74.5 23.5t25.5 64.5q0 38 -25 58.5t-70 20.5h-70v66h74q73 0 118.5 -38t45.5 -105q0 -73 -47 -114t-127 -41h-197v218h-259v-218h-73v482z" />
    <glyph glyph-name="uni044F.ss02" horiz-adv-x="490" 
d="M135 0h-92l164 171v13q-77 2 -122 41t-45 105q0 68 48.5 110t124.5 42h220v-482h-73v417h-146q-47 0 -74 -23.5t-27 -63.5t27 -62.5t74 -22.5h86v-68z" />
    <glyph glyph-name="zero.zero" horiz-adv-x="612" 
d="M442 670q59 -42 92.5 -124t33.5 -196t-33.5 -196t-92.5 -124t-136 -42t-136 42t-92.5 124t-33.5 196t33.5 196t92.5 124t136 42t136 -42zM208 607q-42 -34 -65.5 -99.5t-23.5 -157.5q0 -129 46 -207l233 469q-40 29 -92 29q-56 0 -98 -34zM404 93q42 34 65.5 99.5
t23.5 157.5q0 127 -45 206l-234 -468q41 -29 92 -29q56 0 98 34z" />
    <glyph glyph-name="slash.case" horiz-adv-x="455" 
d="M362 780h73l-342 -920h-73z" />
    <glyph glyph-name="backslash.case" horiz-adv-x="455" 
d="M20 780h73l342 -920h-73z" />
    <glyph glyph-name="parenleft.case" horiz-adv-x="297" 
d="M73.5 126q-37.5 105 -37.5 222t37.5 222t113.5 211h78q-75 -104 -115 -207.5t-40 -225.5q0 -121 40 -225.5t115 -207.5h-78q-76 106 -113.5 211z" />
    <glyph glyph-name="parenright.case" horiz-adv-x="301" 
d="M147 122.5q40 104.5 40 225.5q0 122 -40 225.5t-115 207.5h78q76 -106 113.5 -211t37.5 -222t-37.5 -222t-113.5 -211h-78q75 103 115 207.5z" />
    <glyph glyph-name="braceleft.case" horiz-adv-x="429" 
d="M190.5 -46.5q-44.5 38.5 -44.5 110.5v169q0 43 -13 62.5t-56 19.5h-27v66h27q43 0 56 19.5t13 62.5v169q0 73 44.5 111t107.5 38h92v-66h-70q-52 0 -76 -24.5t-24 -83.5v-128q0 -53 -13 -82.5t-52 -42.5v-12q39 -13 52 -42.5t13 -81.5v-129q0 -59 24 -83t76 -24h70v-67
h-92q-63 0 -107.5 38.5z" />
    <glyph glyph-name="braceright.case" horiz-adv-x="429" 
d="M39 -18h69q52 0 76.5 24t24.5 83v129q0 52 13 81.5t51 42.5v12q-38 13 -51 42.5t-13 82.5v128q0 59 -24.5 83.5t-76.5 24.5h-69v66h92q62 0 106.5 -38t44.5 -111v-169q0 -43 13.5 -62.5t55.5 -19.5h28v-66h-28q-42 0 -55.5 -19.5t-13.5 -62.5v-169q0 -73 -44.5 -111
t-106.5 -38h-92v67z" />
    <glyph glyph-name="bracketleft.case" horiz-adv-x="351" 
d="M134 715v-733h185v-67h-259v866h259v-66h-185z" />
    <glyph glyph-name="bracketright.case" horiz-adv-x="351" 
d="M291 -85h-260v67h186v733h-186v66h260v-866z" />
    <glyph glyph-name="hyphen.case" horiz-adv-x="437" 
d="M49 374h340v-68h-340v68z" />
    <glyph glyph-name="endash.case" horiz-adv-x="597" 
d="M49 374h500v-68h-500v68z" />
    <glyph glyph-name="emdash.case" horiz-adv-x="758" 
d="M49 374h661v-68h-661v68z" />
    <glyph glyph-name="guillemotleft.case" horiz-adv-x="481" 
d="M41 327v12l152 190h86l-152 -190v-12l152 -190h-86zM211 327v12l152 190h86l-152 -190v-12l152 -190h-86z" />
    <glyph glyph-name="guillemotright.case" horiz-adv-x="481" 
d="M32 137l152 190v12l-152 190h86l152 -190v-12l-152 -190h-86zM202 137l152 190v12l-152 190h86l152 -190v-12l-152 -190h-86z" />
    <glyph glyph-name="guilsinglleft.case" horiz-adv-x="315" 
d="M43 327v12l151 190h87l-152 -190v-12l152 -190h-87z" />
    <glyph glyph-name="guilsinglright.case" horiz-adv-x="315" 
d="M34 137l152 190v12l-152 190h87l151 -190v-12l-151 -190h-87z" />
    <glyph glyph-name="caron.alt" horiz-adv-x="170" 
d="M40 720h73l-5 -208h-63z" />
    <glyph glyph-name="uni0308.cap" 
d="M-270 857h83v-83h-83v83zM-83 857h83v-83h-83v83z" />
    <glyph glyph-name="uni0307.cap" 
d="M-83 857h83v-83h-83v83z" />
    <glyph glyph-name="gravecomb.cap" 
d="M-207 923h95l112 -154h-80z" />
    <glyph glyph-name="acutecomb.cap" 
d="M-95 923h95l-127 -154h-80z" />
    <glyph glyph-name="uni030B.cap" 
d="M-246 923h93l-126 -154h-79zM-93 923h93l-127 -154h-78z" />
    <glyph glyph-name="uni0302.cap" 
d="M-196 907h60l136 -140h-83l-77 77h-11l-77 -77h-84z" />
    <glyph glyph-name="uni030C.cap" 
d="M-332 907h84l77 -77h11l77 77h83l-136 -140h-60z" />
    <glyph glyph-name="uni0306.cap" 
d="M-280.5 799q-43.5 42 -45.5 106h69q2 -36 26.5 -60t67.5 -24t67.5 24t26.5 60h69q-2 -63 -45.5 -105.5t-117.5 -42.5t-117.5 42z" />
    <glyph glyph-name="uni030A.cap" 
d="M-150 772.5q-25 25.5 -25 62.5t25 62.5t63 25.5q37 0 62 -25.5t25 -62.5q0 -36 -25 -62t-62 -26q-38 0 -63 25.5zM-62 810.5q10 10.5 10 24.5q0 15 -10 25.5t-25 10.5t-25 -10.5t-10 -25.5q0 -14 10 -24.5t25 -10.5t25 10.5z" />
    <glyph glyph-name="tildecomb.cap" 
d="M-323.5 867q31.5 28 77.5 28q24 0 41.5 -7t41.5 -21q17 -10 27.5 -14.5t22.5 -4.5q21 0 32.5 13.5t11.5 33.5h69q-4 -56 -35.5 -84t-76.5 -28q-24 0 -40.5 6.5t-42.5 20.5q-16 10 -27 15t-24 5q-21 0 -32 -13.5t-11 -33.5h-70q4 56 35.5 84z" />
    <glyph glyph-name="uni0304.cap" 
d="M-315 854h315v-62h-315v62z" />
    <glyph glyph-name="uni0327.cap" 
d="M-148 -147h53q12 0 19 6.5t7 17.5q0 12 -7 18.5t-19 6.5h-43l9 112h67l-9 -59q34 -1 52.5 -24t18.5 -54q0 -34 -22 -58t-63 -24h-63v58z" />
    <glyph glyph-name="uni0328.cap" 
d="M-129 -167q-33 25 -33 75q0 48 30.5 78t70.5 40l40 -26q-35 -14 -54 -32.5t-19 -46.5q0 -52 67 -52h27v-61h-44q-52 0 -85 25z" />
    <glyph glyph-name="brevecombcy" 
d="M-278.5 577.5q-42.5 37.5 -44.5 108.5h70q4 -86 90 -86q41 0 64 21.5t25 64.5h70q-2 -71 -44.5 -108.5t-114.5 -37.5q-73 0 -115.5 37.5z" />
    <glyph glyph-name="brevecombcy.cap" 
d="M-287 796.5q-45 39.5 -47 109.5h69q2 -41 29.5 -66t72.5 -25t72 25t29 66h70q-3 -70 -47.5 -109.5t-123.5 -39.5t-124 39.5z" />
    </font>
</defs>
</svg>
